<?xml version="1.0" standalone="no"?>
<!DOCTYPE svg PUBLIC "-//W3C//DTD SVG 1.1//EN" "http://www.w3.org/Graphics/SVG/1.1/DTD/svg11.dtd" >
<svg>
<metadata>
Created by FontForge 20120731 at Thu Jun 20 13:58:57 2013
 By Stefan Warting
Digitized data (C) 2004 Monotype Imaging. All rights reserved. Neo Sans is designed by Sebastian Lester.
</metadata>
<defs>
<font id="NeoSansPro-Bold" horiz-adv-x="645" >
  <font-face 
    font-family="Neo Sans Pro"
    font-weight="700"
    font-stretch="normal"
    units-per-em="1000"
    panose-1="2 11 8 4 3 5 4 4 2 4"
    ascent="765"
    descent="-235"
    x-height="573"
    cap-height="743"
    bbox="-93 -216 1533 1012"
    underline-thickness="80"
    underline-position="1"
    stemh="122"
    stemv="162"
    unicode-range="U+0020-FB04"
  />
<missing-glyph horiz-adv-x="500" 
d="M12 0v665h475v-665h-475zM88 618l162 -243l161 243h-323zM60 575v-484c0 -1 161 242 161 242zM440 575l-162 -242l162 -243v485zM411 48l-161 242l-162 -242h323z" />
    <glyph glyph-name="fi" unicode="fi" horiz-adv-x="702" 
d="M394 670c0 -11 -8 -17 -21 -17h-49c-30 0 -33 -7 -33 -47v-33h327c11 0 20 -10 20 -21v-531c0 -11 -9 -21 -20 -21h-121c-11 0 -21 10 -21 21v431h-185v-432c0 -11 -9 -20 -20 -20h-123c-11 0 -20 9 -20 20v432l-80 13c-11 2 -21 10 -21 21v66c0 11 10 21 21 21h80v32
c0 142 58 171 168 171c29 0 49 -3 79 -8c12 -2 19 -10 19 -20v-78zM642 658c0 -11 -10 -20 -21 -20h-127c-11 0 -22 9 -22 20v93c0 11 11 20 22 20h127c11 0 21 -9 21 -20v-93z" />
    <glyph glyph-name="fl" unicode="fl" horiz-adv-x="698" 
d="M638 21c0 -11 -8 -21 -19 -21h-122c-11 0 -21 10 -21 21v632h-133c-48 0 -52 -7 -52 -47v-33h82c11 0 20 -9 20 -20v-81c0 -11 -9 -20 -20 -20h-82v-432c0 -11 -9 -20 -20 -20h-123c-11 0 -20 9 -20 20v432l-80 13c-11 2 -21 10 -21 21v66c0 11 10 21 21 21h80v42
c0 143 63 161 192 161c57 0 150 -4 180 -9h119c11 0 19 -9 19 -20v-726z" />
    <glyph glyph-name="f_f" unicode="ff" horiz-adv-x="771" 
d="M741 670c0 -11 -8 -17 -21 -17h-49c-30 0 -33 -7 -33 -47v-33h82c11 0 20 -9 20 -20v-81c0 -11 -9 -20 -20 -20h-82v-432c0 -11 -9 -20 -20 -20h-123c-11 0 -20 9 -20 20v432h-184v-432c0 -11 -9 -20 -20 -20h-123c-11 0 -20 9 -20 20v432l-80 13c-11 2 -21 10 -21 21v66
c0 11 10 21 21 21h80v32c0 142 58 171 168 171c29 0 49 -3 79 -8c12 -2 19 -10 19 -20v-78c0 -11 -8 -17 -21 -17h-49c-30 0 -33 -7 -33 -47v-33h184v32c0 142 58 171 168 171c29 0 49 -3 79 -8c12 -2 19 -10 19 -20v-78z" />
    <glyph glyph-name="f_f_i" unicode="ffi" horiz-adv-x="1049" 
d="M989 658c0 -11 -10 -20 -21 -20h-127c-11 0 -22 9 -22 20v93c0 11 11 20 22 20h127c11 0 21 -9 21 -20v-93zM475 573v32c0 142 58 171 168 171c29 0 49 -3 79 -8c12 -2 19 -10 19 -20v-78c0 -11 -8 -17 -21 -17h-49c-30 0 -33 -7 -33 -47v-33h327c11 0 20 -10 20 -21
v-531c0 -11 -9 -21 -20 -21h-121c-11 0 -21 10 -21 21v431h-185v-432c0 -11 -9 -20 -20 -20h-123c-11 0 -20 9 -20 20v432h-184v-432c0 -11 -9 -20 -20 -20h-123c-11 0 -20 9 -20 20v432l-80 13c-11 2 -21 10 -21 21v66c0 11 10 21 21 21h80v32c0 142 58 171 168 171
c29 0 49 -3 79 -8c12 -2 19 -10 19 -20v-78c0 -11 -8 -17 -21 -17h-49c-30 0 -33 -7 -33 -47v-33h184z" />
    <glyph glyph-name="f_f_l" unicode="ffl" horiz-adv-x="1045" 
d="M394 670c0 -11 -8 -17 -21 -17h-49c-30 0 -33 -7 -33 -47v-33h184v42c0 143 63 161 192 161c57 0 150 -4 180 -9h119c11 0 19 -9 19 -20v-726c0 -11 -8 -21 -19 -21h-122c-11 0 -21 10 -21 21v632h-133c-48 0 -52 -7 -52 -47v-33h82c11 0 20 -9 20 -20v-81
c0 -11 -9 -20 -20 -20h-82v-432c0 -11 -9 -20 -20 -20h-123c-11 0 -20 9 -20 20v432h-184v-432c0 -11 -9 -20 -20 -20h-123c-11 0 -20 9 -20 20v432l-80 13c-11 2 -21 10 -21 21v66c0 11 10 21 21 21h80v32c0 142 58 171 168 171c29 0 49 -3 79 -8c12 -2 19 -10 19 -20v-78z
" />
    <glyph glyph-name="f_b" unicode="fb" horiz-adv-x="1021" 
d="M476 653h-133c-48 0 -52 -7 -52 -47v-33h82c11 0 20 -9 20 -20v-81c0 -11 -9 -20 -20 -20h-82v-432c0 -11 -9 -20 -20 -20h-123c-11 0 -20 9 -20 20v432l-80 13c-11 2 -21 10 -21 21v66c0 11 10 21 21 21h80v42c0 143 63 161 192 161c57 0 150 -4 180 -9h119
c11 0 19 -9 19 -20v-173c29 4 62 7 82 7c169 0 251 -99 251 -256v-78c0 -162 -89 -256 -251 -256c-77 0 -156 12 -213 26c-27 6 -31 13 -31 29v607zM809 247v78c0 70 -18 122 -89 122c-24 0 -58 -2 -82 -5v-312c19 -3 49 -6 82 -6c71 0 89 52 89 123z" />
    <glyph glyph-name="f_f_b" unicode="ffb" horiz-adv-x="1368" 
d="M394 670c0 -11 -8 -17 -21 -17h-49c-30 0 -33 -7 -33 -47v-33h184v42c0 143 63 161 192 161c57 0 150 -4 180 -9h119c11 0 19 -9 19 -20v-173c29 4 62 7 82 7c169 0 251 -99 251 -256v-78c0 -162 -89 -256 -251 -256c-77 0 -156 12 -213 26c-27 6 -31 13 -31 29v607h-133
c-48 0 -52 -7 -52 -47v-33h82c11 0 20 -9 20 -20v-81c0 -11 -9 -20 -20 -20h-82v-432c0 -11 -9 -20 -20 -20h-123c-11 0 -20 9 -20 20v432h-184v-432c0 -11 -9 -20 -20 -20h-123c-11 0 -20 9 -20 20v432l-80 13c-11 2 -21 10 -21 21v66c0 11 10 21 21 21h80v32
c0 142 58 171 168 171c29 0 49 -3 79 -8c12 -2 19 -10 19 -20v-78zM1156 247v78c0 70 -18 122 -89 122c-24 0 -58 -2 -82 -5v-312c19 -3 49 -6 82 -6c71 0 89 52 89 123z" />
    <glyph glyph-name="f_f_h" unicode="ffh" horiz-adv-x="1374" 
d="M291 573h183v42c0 143 63 161 192 161c57 0 150 -4 180 -9h119c11 0 19 -9 19 -20v-211c51 33 93 45 153 45c145 0 177 -101 177 -227v-333c0 -11 -10 -21 -21 -21h-121c-11 0 -20 10 -20 21v333c0 70 -13 93 -74 93c-29 0 -60 -14 -94 -32v-394c0 -11 -9 -21 -20 -21
h-121c-11 0 -21 10 -21 21v632h-133c-48 0 -51 -7 -51 -47v-33h82c11 0 20 -9 20 -20v-81c0 -11 -9 -20 -20 -20h-82v-432c0 -11 -9 -20 -20 -20h-123c-11 0 -20 9 -20 20v432h-184v-432c0 -11 -9 -20 -20 -20h-123c-11 0 -20 9 -20 20v432l-80 13c-11 2 -21 10 -21 21v66
c0 11 10 21 21 21h80v32c0 142 58 171 168 171c29 0 49 -3 79 -8c12 -2 19 -10 19 -20v-78c0 -11 -8 -17 -21 -17h-49c-30 0 -33 -7 -33 -47v-33z" />
    <glyph glyph-name="f_f_k" unicode="ffk" horiz-adv-x="1350" 
d="M475 573v42c0 143 63 161 192 161c57 0 150 -4 180 -9h119c11 0 18 -9 18 -20v-418l152 229c8 12 18 15 26 15h143c9 0 15 -5 15 -11c0 -3 -1 -6 -4 -10l-186 -253l185 -278c2 -2 2 -5 2 -8c0 -7 -5 -13 -13 -13h-151c-11 0 -17 2 -25 14l-144 235v-228
c0 -11 -9 -21 -20 -21h-121c-11 0 -21 10 -21 21v632h-132c-48 0 -51 -7 -51 -47v-33h82c11 0 20 -9 20 -20v-81c0 -11 -9 -20 -20 -20h-82v-432c0 -11 -9 -20 -20 -20h-123c-11 0 -21 9 -21 20v432h-184v-432c0 -11 -9 -20 -20 -20h-123c-11 0 -20 9 -20 20v432l-80 13
c-11 2 -21 10 -21 21v66c0 11 10 21 21 21h80v32c0 142 58 171 168 171c29 0 49 -3 79 -8c12 -2 19 -10 19 -20v-78c0 -11 -8 -17 -21 -17h-49c-30 0 -33 -7 -33 -47v-33h184z" />
    <glyph glyph-name="f_h" unicode="fh" horiz-adv-x="1027" 
d="M475 653h-133c-48 0 -51 -7 -51 -47v-33h82c11 0 20 -9 20 -20v-81c0 -11 -9 -20 -20 -20h-82v-432c0 -11 -9 -20 -20 -20h-123c-11 0 -20 9 -20 20v432l-80 13c-11 2 -21 10 -21 21v66c0 11 10 21 21 21h79v42c0 143 63 161 192 161c57 0 150 -4 180 -9h119
c11 0 19 -9 19 -20v-211c51 33 93 45 153 45c145 0 177 -101 177 -227v-333c0 -11 -10 -21 -21 -21h-121c-11 0 -20 10 -20 21v333c0 70 -13 93 -74 93c-29 0 -60 -14 -94 -32v-394c0 -11 -9 -21 -20 -21h-121c-11 0 -21 10 -21 21v632z" />
    <glyph glyph-name="f_j" unicode="fj" horiz-adv-x="714" 
d="M650 -32c0 -133 -61 -171 -158 -171c-26 0 -51 2 -80 7c-13 2 -20 9 -20 20v79c0 11 8 18 21 18h44c28 0 31 13 31 47v484h-197v-432c0 -11 -9 -20 -20 -20h-123c-11 0 -20 9 -20 20v432l-80 13c-11 2 -21 10 -21 21v66c0 11 10 21 21 21h80v32c0 142 58 171 168 171
c29 0 49 -3 79 -8c12 -2 19 -10 19 -20v-78c0 -11 -8 -17 -21 -17h-49c-30 0 -33 -7 -33 -47v-33h340c11 0 19 -10 19 -21v-584zM654 658c0 -11 -10 -20 -21 -20h-129c-11 0 -20 9 -20 20v93c0 11 9 20 20 20h129c11 0 21 -9 21 -20v-93z" />
    <glyph glyph-name="f_f_j" unicode="ffj" horiz-adv-x="1061" 
d="M997 -32c0 -133 -61 -171 -158 -171c-26 0 -51 2 -80 7c-13 2 -20 9 -20 20v79c0 11 8 18 21 18h44c28 0 31 13 31 47v484h-197v-432c0 -11 -9 -20 -20 -20h-123c-11 0 -20 9 -20 20v432h-184v-432c0 -11 -9 -20 -20 -20h-123c-11 0 -20 9 -20 20v432l-80 13
c-11 2 -21 10 -21 21v66c0 11 10 21 21 21h80v32c0 142 58 171 168 171c29 0 49 -3 79 -8c12 -2 19 -10 19 -20v-78c0 -11 -8 -17 -21 -17h-49c-30 0 -33 -7 -33 -47v-33h184v32c0 142 58 171 168 171c29 0 49 -3 79 -8c12 -2 19 -10 19 -20v-78c0 -11 -8 -17 -21 -17h-49
c-30 0 -33 -7 -33 -47v-33h340c11 0 19 -10 19 -21v-584zM1001 658c0 -11 -10 -20 -21 -20h-129c-11 0 -20 9 -20 20v93c0 11 9 20 20 20h129c11 0 21 -9 21 -20v-93z" />
    <glyph glyph-name="f_k" unicode="fk" horiz-adv-x="1002" 
d="M636 747v-418l152 229c8 12 18 15 26 15h143c9 0 15 -5 15 -11c0 -3 -1 -6 -4 -10l-186 -253l185 -278c2 -2 2 -5 2 -8c0 -7 -5 -13 -13 -13h-151c-11 0 -17 2 -25 14l-144 235v-228c0 -11 -9 -21 -20 -21h-121c-11 0 -21 10 -21 21v632h-132c-48 0 -51 -7 -51 -47v-33
h82c11 0 20 -9 20 -20v-81c0 -11 -9 -20 -20 -20h-82v-432c0 -11 -9 -20 -20 -20h-123c-11 0 -20 9 -20 20v432l-80 13c-11 2 -21 10 -21 21v66c0 11 10 21 21 21h79v42c0 143 63 161 192 161c57 0 150 -4 180 -9h119c11 0 18 -9 18 -20z" />
    <glyph glyph-name=".notdef" horiz-adv-x="500" 
d="M12 0v665h475v-665h-475zM88 618l162 -243l161 243h-323zM60 575v-484c0 -1 161 242 161 242zM440 575l-162 -242l162 -243v485zM411 48l-161 242l-162 -242h323z" />
    <glyph glyph-name="space" unicode=" " horiz-adv-x="260" 
 />
    <glyph glyph-name="exclam" unicode="!" horiz-adv-x="273" 
d="M220 748v-1l-20 -499c0 -11 -9 -21 -20 -21h-85c-11 0 -22 10 -22 21l-20 499v1c0 10 11 19 22 19h125c11 0 20 -9 20 -19zM215 20c0 -11 -8 -20 -19 -20h-118c-11 0 -20 9 -20 20v126c0 11 9 19 20 19h118c11 0 19 -8 19 -19v-126z" />
    <glyph glyph-name="quotedbl" unicode="&#x22;" horiz-adv-x="472" 
d="M449 756c0 -2 -1 -5 -2 -8l-75 -219c-5 -13 -9 -19 -19 -19h-101c-7 0 -9 4 -9 10c0 2 0 6 1 9l54 219c3 14 10 19 20 19h119c7 0 12 -4 12 -11zM230 756c0 -2 -1 -5 -2 -8l-75 -219c-5 -13 -9 -19 -19 -19h-101c-7 0 -9 4 -9 10c0 2 0 6 1 9l54 219c3 14 10 19 20 19
h119c7 0 12 -4 12 -11z" />
    <glyph glyph-name="numbersign" unicode="#" horiz-adv-x="699" 
d="M651 539v-2l-12 -76c-1 -7 -8 -11 -15 -11h-85l-15 -161h84c8 0 18 -6 18 -14v-2l-11 -71c-1 -7 -9 -15 -16 -15h-84l-14 -168c-1 -10 -7 -19 -18 -19h-102c-10 0 -16 8 -16 17v2l14 168h-113l-15 -168c-1 -10 -8 -19 -18 -19h-103c-9 0 -16 8 -16 17v2l14 168h-85
c-8 0 -14 5 -14 13v2l12 75c1 7 7 12 14 12h83l14 161h-85c-8 0 -14 4 -14 12v2l12 77c1 7 9 11 16 11h80l15 172c1 10 9 19 19 19h103c9 0 15 -8 15 -17v-2l-15 -172h113l16 172c1 10 8 19 19 19h102c10 0 15 -8 15 -17v-2l-16 -172h87c8 0 17 -5 17 -13zM403 450h-113
l-15 -161h113z" />
    <glyph glyph-name="dollar" unicode="$" 
d="M575 210c0 -89 -49 -183 -186 -211v-94c0 -11 -9 -20 -20 -20h-110c-11 0 -20 9 -20 20v89c-50 3 -91 10 -127 19c-10 3 -19 9 -19 20v98c0 11 9 19 19 19h2c41 -5 142 -12 189 -12c69 0 90 24 90 70c0 29 -14 45 -66 76l-138 82c-93 55 -119 118 -119 191
c0 91 43 166 169 188v86c0 11 9 20 20 20h110c11 0 20 -9 20 -20v-82c59 -4 119 -12 146 -19c10 -3 19 -9 19 -19v-99c0 -10 -8 -18 -18 -18h-2c-62 6 -144 11 -212 11c-55 0 -77 -16 -77 -53c0 -25 13 -41 67 -70l127 -69c103 -56 136 -122 136 -203z" />
    <glyph glyph-name="percent" unicode="%" horiz-adv-x="839" 
d="M801 166c0 -116 -53 -172 -147 -172s-148 56 -148 172v75c0 116 54 172 148 172s147 -56 147 -172v-75zM698 735c0 -4 -1 -8 -4 -12l-416 -702c-8 -14 -12 -21 -23 -21h-103c-7 0 -11 4 -11 11c0 3 1 6 3 10l416 702c9 15 14 20 25 20h103c7 0 10 -3 10 -8zM334 502
c0 -116 -54 -172 -148 -172s-148 56 -148 172v75c0 116 54 171 148 171s148 -55 148 -171v-75zM701 166v75c0 68 -18 85 -47 85s-48 -17 -48 -85v-75c0 -68 19 -85 48 -85s47 17 47 85zM233 502v75c0 68 -18 85 -47 85s-48 -17 -48 -85v-75c0 -68 19 -86 48 -86s47 18 47 86
z" />
    <glyph glyph-name="ampersand" unicode="&#x26;" horiz-adv-x="732" 
d="M714 12c0 -7 -5 -12 -12 -12h-142c-8 0 -10 1 -17 8l-30 32c-50 -31 -112 -49 -186 -49c-157 0 -277 54 -277 196v9c0 86 51 143 133 194l-8 9c-73 82 -89 126 -89 171v9c0 98 72 173 237 173c148 0 228 -71 228 -173v-9c0 -92 -61 -141 -132 -187l-31 -20l130 -137
c11 26 17 62 17 124v8c0 11 7 20 18 20h93c11 0 19 -9 19 -20v-8c0 -74 -11 -146 -58 -218l102 -108c4 -4 5 -8 5 -12zM402 570v9c0 37 -26 61 -79 61c-58 0 -89 -24 -89 -61v-9c0 -28 4 -51 56 -103l8 -8l26 16c61 38 78 57 78 95zM427 130l-153 163
c-48 -29 -58 -59 -58 -97v-9c0 -53 44 -80 111 -80c41 0 73 8 100 23z" />
    <glyph glyph-name="quoteright" unicode="&#x2019;" horiz-adv-x="253" 
d="M230 756c0 -2 -1 -5 -2 -8l-75 -219c-5 -13 -9 -19 -19 -19h-101c-7 0 -9 4 -9 10c0 2 0 6 1 9l54 219c3 14 10 19 20 19h119c7 0 12 -4 12 -11z" />
    <glyph glyph-name="parenleft" unicode="(" horiz-adv-x="361" 
d="M328 -184c0 -6 -3 -10 -12 -10h-100c-15 0 -26 3 -34 14c-85 119 -131 251 -131 445v18c0 194 46 327 131 446c8 11 19 14 34 14h100c9 0 12 -4 12 -10c0 -5 -2 -10 -5 -16c-55 -102 -108 -242 -108 -434v-18c0 -192 53 -331 108 -433c3 -6 5 -11 5 -16z" />
    <glyph glyph-name="parenright" unicode=")" horiz-adv-x="361" 
d="M310 265c0 -194 -46 -326 -131 -445c-8 -11 -19 -14 -34 -14h-100c-9 0 -12 4 -12 10c0 5 2 10 5 16c55 102 108 241 108 433v18c0 192 -53 332 -108 434c-3 6 -5 11 -5 16c0 6 3 10 12 10h100c15 0 26 -3 34 -14c85 -119 131 -252 131 -446v-18z" />
    <glyph glyph-name="asterisk" unicode="*" horiz-adv-x="479" 
d="M445 570c0 -7 -6 -12 -15 -15l-115 -34l72 -98c3 -5 5 -10 5 -14c0 -5 -1 -9 -6 -12l-52 -38c-3 -2 -6 -3 -9 -3c-6 0 -12 4 -16 10l-69 100l-69 -100c-4 -6 -10 -10 -16 -10c-3 0 -6 1 -9 3l-53 38c-5 3 -7 7 -7 12c0 4 3 9 6 14l72 98l-114 34c-9 3 -16 8 -16 16
c0 1 0 3 1 5l20 63c2 7 7 10 13 10c4 0 7 -1 11 -2l115 -38l-3 119c0 11 5 21 16 21h66c11 0 15 -10 15 -21l-1 -119l113 38c4 1 7 2 11 2c6 0 11 -3 13 -10l20 -63c1 -2 1 -4 1 -6z" />
    <glyph glyph-name="plus" unicode="+" 
d="M573 346c0 -11 -9 -16 -20 -16h-170v-169c0 -11 -5 -20 -16 -20h-90c-11 0 -16 9 -16 20v169h-169c-11 0 -20 5 -20 16v90c0 11 9 16 20 16h169v170c0 11 5 20 16 20h90c11 0 16 -9 16 -20v-170h170c11 0 20 -5 20 -16v-90z" />
    <glyph glyph-name="comma" unicode="," horiz-adv-x="274" 
d="M231 153c0 -2 -1 -5 -2 -7l-96 -224c-5 -11 -8 -20 -19 -20h-88c-9 0 -17 7 -17 15c0 2 1 3 1 5l64 224c3 12 9 19 20 19h122c9 0 15 -5 15 -12z" />
    <glyph glyph-name="hyphen" unicode="-" horiz-adv-x="302" 
d="M268 264c0 -11 -9 -18 -20 -18h-194c-11 0 -20 7 -20 18v80c0 11 9 19 20 19h194c11 0 20 -8 20 -19v-80z" />
    <glyph glyph-name="period" unicode="." horiz-adv-x="274" 
d="M216 20c0 -11 -9 -20 -20 -20h-117c-11 0 -21 9 -21 20v126c0 11 10 19 21 19h117c11 0 20 -8 20 -19v-126z" />
    <glyph glyph-name="slash" unicode="/" horiz-adv-x="405" 
d="M391 727c0 -1 -1 -2 -1 -4l-211 -702c-3 -11 -9 -21 -20 -21h-127c-10 0 -19 8 -19 17c0 1 1 3 1 4l212 702c3 11 9 20 20 20h127c9 0 18 -7 18 -16z" />
    <glyph glyph-name="zero" unicode="0" 
d="M592 328c0 -240 -100 -337 -270 -337s-269 97 -269 337v86c0 240 99 338 269 338s270 -98 270 -338v-86zM421 328v86c0 158 -43 196 -99 196s-98 -38 -98 -196v-86c0 -158 42 -195 98 -195s99 37 99 195z" />
    <glyph glyph-name="one" unicode="1" 
d="M121 142h133v430l-130 -56c-5 -2 -9 -3 -12 -3c-7 0 -11 5 -11 13v114c0 7 3 11 10 14l181 85c7 3 13 4 23 4h90c11 0 19 -8 19 -19v-582h133c11 0 20 -8 20 -19v-103c0 -11 -9 -20 -20 -20h-436c-11 0 -20 9 -20 20v103c0 11 9 19 20 19z" />
    <glyph glyph-name="two" unicode="2" 
d="M570 561c0 -81 -41 -138 -115 -188l-85 -57c-85 -57 -145 -100 -145 -170v-4h316c11 0 20 -8 20 -19v-103c0 -11 -9 -20 -20 -20h-445c-11 0 -20 9 -20 20v102c0 110 60 200 136 254l92 65c87 61 102 69 102 116c0 43 -25 60 -106 60c-61 0 -136 -7 -197 -13h-2
c-11 0 -18 9 -18 20v78c0 10 9 16 19 19c56 17 139 31 213 31c184 0 255 -63 255 -191z" />
    <glyph glyph-name="three" unicode="3" 
d="M566 212c0 -153 -106 -221 -261 -221c-78 0 -155 12 -207 28c-10 3 -19 9 -19 19v80c0 11 8 18 18 18h2c70 -6 145 -9 199 -9c71 0 99 30 99 85v18c0 45 -16 86 -81 86h-176c-11 0 -19 9 -19 20v85c0 11 8 19 19 19h172c65 0 85 43 85 87v14c0 45 -21 75 -99 75
c-70 0 -121 -5 -197 -12h-2c-10 0 -18 7 -18 18v80c0 10 10 16 20 19c52 16 126 31 204 31c163 0 261 -55 261 -205v-14c0 -58 -36 -123 -89 -153c55 -29 89 -85 89 -150v-18z" />
    <glyph glyph-name="four" unicode="4" 
d="M606 187c0 -11 -9 -20 -20 -20h-66v-147c0 -11 -8 -20 -19 -20h-133c-11 0 -19 9 -19 20v147h-289c-11 0 -20 9 -20 20v97c0 11 4 21 11 31l316 414c7 9 14 14 26 14h107c11 0 20 -9 20 -20v-424h66c11 0 20 -9 20 -20v-92zM354 299v220c0 4 -2 6 -4 6c-1 0 -2 -1 -3 -2
l-157 -214c-2 -2 -2 -4 -2 -6c0 -3 2 -4 6 -4h160z" />
    <glyph glyph-name="five" unicode="5" 
d="M566 236c0 -158 -95 -245 -270 -245c-64 0 -139 11 -197 29c-10 3 -20 8 -20 22v79c0 11 8 18 18 18h2c63 -7 143 -12 180 -12c95 0 115 40 115 109v8c0 67 -31 92 -142 92h-155c-8 0 -14 7 -14 14v1l31 373c1 10 10 19 20 19h389c11 0 20 -8 20 -19v-100
c0 -11 -9 -19 -20 -19h-272l-12 -138h29c173 0 298 -49 298 -223v-8z" />
    <glyph glyph-name="six" unicode="6" 
d="M589 245c0 -152 -92 -254 -264 -254c-161 0 -268 95 -268 294v153c0 226 108 314 278 314c90 0 156 -10 197 -20c16 -4 22 -10 22 -22v-87c0 -14 -7 -21 -18 -21h-5c-48 8 -123 14 -182 14c-88 0 -125 -35 -125 -146v-7c26 5 76 12 118 12c135 0 247 -57 247 -223v-7z
M422 245v7c0 82 -48 104 -107 104c-26 0 -68 -6 -91 -10v-61c0 -136 43 -164 101 -164c55 0 97 26 97 124z" />
    <glyph glyph-name="seven" unicode="7" 
d="M566 637c0 -13 -7 -27 -16 -46l-263 -572c-6 -13 -13 -19 -25 -19h-137c-13 0 -18 5 -18 12c0 4 1 7 3 11l272 571c1 2 1 3 1 5c0 3 -3 6 -7 6h-277c-11 0 -21 8 -21 19v100c0 11 10 19 21 19h433c18 0 34 -15 34 -33v-73z" />
    <glyph glyph-name="eight" unicode="8" 
d="M593 213c0 -145 -108 -222 -265 -222h-11c-157 0 -265 77 -265 222v13c0 66 34 123 85 160c-54 37 -81 86 -81 150v11c0 140 103 205 261 205h11c158 0 262 -65 262 -205v-11c0 -64 -28 -113 -82 -150c51 -37 85 -94 85 -160v-13zM429 531v5c0 53 -28 91 -101 91h-11
c-73 0 -101 -38 -101 -91v-5c0 -51 29 -87 91 -87h31c62 0 91 36 91 87zM428 218v10c0 46 -24 96 -90 96h-31c-66 0 -90 -50 -90 -96v-10c0 -58 34 -101 100 -101h11c66 0 100 43 100 101z" />
    <glyph glyph-name="nine" unicode="9" 
d="M589 305c0 -226 -108 -314 -278 -314c-90 0 -156 10 -197 20c-16 4 -22 10 -22 22v87c0 14 7 21 18 21h5c48 -8 123 -14 182 -14c88 0 125 35 125 146v7c-26 -5 -76 -12 -118 -12c-135 0 -247 57 -247 223v7c0 152 92 254 264 254c161 0 268 -95 268 -294v-153zM422 397
v61c0 136 -43 164 -101 164c-55 0 -97 -26 -97 -124v-7c0 -82 48 -104 107 -104c26 0 68 6 91 10z" />
    <glyph glyph-name="colon" unicode=":" horiz-adv-x="275" 
d="M216 402c0 -11 -9 -19 -20 -19h-117c-11 0 -21 8 -21 19v126c0 11 10 20 21 20h117c11 0 20 -9 20 -20v-126zM216 20c0 -11 -9 -20 -20 -20h-117c-11 0 -21 9 -21 20v126c0 11 10 19 21 19h117c11 0 20 -8 20 -19v-126z" />
    <glyph glyph-name="semicolon" unicode=";" horiz-adv-x="275" 
d="M216 402c0 -11 -10 -19 -21 -19h-117c-11 0 -20 8 -20 19v126c0 11 9 20 20 20h117c11 0 21 -9 21 -20v-126zM216 151c0 -2 -1 -5 -2 -7l-95 -224c-5 -11 -9 -20 -20 -20h-88c-9 0 -17 7 -17 15c0 2 1 3 1 5l64 224c3 12 9 19 20 19h122c9 0 15 -5 15 -12z" />
    <glyph glyph-name="less" unicode="&#x3c;" 
d="M536 150c0 -7 -5 -13 -12 -13h-139c-11 0 -17 5 -24 11l-233 207c-14 12 -20 22 -20 36s6 24 20 36l233 207c7 6 13 11 24 11h139c7 0 12 -6 12 -13c0 -4 -2 -8 -6 -12l-259 -229l259 -229c4 -4 6 -8 6 -12z" />
    <glyph glyph-name="equal" unicode="=" 
d="M552 474c0 -11 -9 -16 -20 -16h-419c-11 0 -20 5 -20 16v90c0 11 9 16 20 16h419c11 0 20 -5 20 -16v-90zM552 218c0 -11 -9 -16 -20 -16h-419c-11 0 -20 5 -20 16v90c0 11 9 16 20 16h419c11 0 20 -5 20 -16v-90z" />
    <glyph glyph-name="greater" unicode="&#x3e;" 
d="M536 391c0 -14 -7 -24 -21 -36l-232 -207c-7 -6 -13 -11 -24 -11h-139c-7 0 -12 6 -12 13c0 4 2 8 6 12l259 229l-259 229c-4 4 -6 8 -6 12c0 7 5 13 12 13h139c11 0 17 -5 24 -11l232 -207c14 -12 21 -22 21 -36z" />
    <glyph glyph-name="question" unicode="?" horiz-adv-x="479" 
d="M431 580c0 -45 -21 -85 -77 -157l-45 -58c-45 -58 -56 -70 -56 -91v-28c0 -12 -13 -19 -24 -19h-100c-11 0 -19 9 -19 20v27c0 52 4 82 42 132l48 63c37 49 46 72 46 101v10c0 22 -14 37 -49 37c-52 0 -95 -5 -143 -11h-3c-12 0 -17 8 -17 21v89c0 14 3 22 18 26
c43 13 104 21 160 21c138 0 219 -41 219 -166v-17zM262 19c0 -11 -9 -19 -20 -19h-118c-11 0 -20 8 -20 19v126c0 11 9 20 20 20h118c11 0 20 -9 20 -20v-126z" />
    <glyph glyph-name="at" unicode="@" horiz-adv-x="774" 
d="M741 361c0 -240 -154 -315 -371 -315c-101 0 -174 48 -174 145c0 6 1 12 1 18l9 116c9 117 87 167 198 167c43 0 91 -6 133 -15c15 -3 24 -12 24 -27v-4l-28 -299c95 16 127 100 127 214c0 120 -73 229 -239 229c-175 0 -274 -88 -289 -246l-15 -160
c-1 -12 -2 -23 -2 -34c0 -116 80 -198 249 -198c60 0 112 8 147 8h1h4c7 0 8 -2 8 -10v-39c0 -7 -4 -12 -12 -13c-34 -4 -86 -10 -148 -10c-192 0 -330 93 -330 264v3c0 9 0 19 1 29l16 165c19 191 151 312 371 312c215 0 319 -146 319 -300zM442 392c-17 3 -35 5 -51 5
c-48 0 -65 -19 -71 -76l-11 -111c-1 -6 -1 -12 -1 -17c0 -39 19 -52 69 -52c15 0 29 0 42 1z" />
    <glyph glyph-name="A" unicode="A" horiz-adv-x="669" 
d="M650 16c0 -10 -7 -16 -17 -16h-140c-10 0 -18 8 -20 18l-36 164h-205l-36 -164c-2 -10 -10 -18 -20 -18h-140c-10 0 -17 6 -17 16c0 1 1 3 1 5l149 620c23 96 97 111 166 111s142 -15 165 -111l149 -620c0 -2 1 -4 1 -5zM409 319l-61 276c-2 10 -4 15 -13 15
s-12 -5 -14 -15l-61 -276h149z" />
    <glyph glyph-name="B" unicode="B" horiz-adv-x="669" 
d="M623 215c0 -176 -142 -224 -315 -224c-66 0 -144 5 -183 12c-40 7 -55 20 -55 65v608c0 45 14 59 53 65c34 5 115 11 179 11c189 0 316 -50 316 -209v-18c0 -65 -31 -121 -84 -147c53 -26 89 -79 89 -148v-15zM453 517v15c0 55 -35 80 -138 80c-16 0 -62 0 -76 -1v-173
h112c79 0 102 36 102 79zM457 219v11c0 48 -26 89 -106 89h-112v-187c16 0 68 -1 82 -1c103 0 136 32 136 88z" />
    <glyph glyph-name="C" unicode="C" horiz-adv-x="561" 
d="M520 31c0 -14 -8 -19 -22 -23c-21 -7 -79 -17 -149 -17c-152 0 -296 80 -296 318v126c0 238 144 317 296 317c70 0 128 -10 149 -17c14 -4 22 -8 22 -22v-97c0 -12 -6 -20 -19 -20h-3c-38 3 -93 8 -148 8c-69 0 -124 -36 -124 -169v-126c0 -133 55 -169 124 -169
c55 0 110 5 148 8h3c13 0 19 -8 19 -20v-97z" />
    <glyph glyph-name="D" unicode="D" horiz-adv-x="682" 
d="M631 307c0 -211 -120 -316 -319 -316c-83 0 -172 8 -213 15c-19 3 -29 12 -29 35v661c0 23 10 32 29 35c41 7 130 15 213 15c199 0 319 -105 319 -316v-129zM460 307v129c0 135 -58 171 -148 171c-25 0 -57 -1 -71 -2v-467c14 -1 46 -2 71 -2c90 0 148 36 148 171z" />
    <glyph glyph-name="E" unicode="E" horiz-adv-x="580" 
d="M524 25c0 -13 -6 -19 -20 -21c-35 -5 -86 -13 -194 -13c-129 0 -243 33 -243 215v332c0 182 115 214 244 214c108 0 158 -8 193 -13c14 -2 20 -7 20 -20v-93c0 -11 -9 -20 -20 -20h-203c-47 0 -64 -16 -64 -68v-91h259c11 0 20 -9 20 -20v-95c0 -11 -9 -20 -20 -20h-259
v-106c0 -52 17 -68 64 -68h203c11 0 20 -9 20 -20v-93z" />
    <glyph glyph-name="F" unicode="F" horiz-adv-x="581" 
d="M524 625c0 -11 -9 -20 -20 -20h-203c-47 0 -64 -16 -64 -68v-90h259c11 0 20 -9 20 -20v-95c0 -11 -9 -20 -20 -20h-259v-292c0 -11 -9 -20 -20 -20h-130c-11 0 -20 9 -20 20v517c0 182 115 214 244 214c108 0 158 -8 193 -13c14 -2 20 -7 20 -20v-93z" />
    <glyph glyph-name="G" unicode="G" 
d="M580 608c0 -11 -6 -13 -15 -13h-3c-48 2 -123 8 -208 8c-81 0 -131 -39 -131 -170v-125c0 -138 63 -170 112 -170c28 0 53 1 77 3v230c0 11 8 20 19 20h128c11 0 20 -9 20 -20v-336c0 -14 -5 -20 -20 -23c-54 -11 -124 -21 -224 -21c-114 0 -285 65 -285 318v124
c0 255 159 319 304 319c100 0 172 -15 209 -23c10 -2 17 -6 17 -15v-106z" />
    <glyph glyph-name="H" unicode="H" horiz-adv-x="729" 
d="M659 20c0 -11 -9 -20 -20 -20h-131c-11 0 -20 9 -20 20v289h-247v-289c0 -11 -9 -20 -20 -20h-131c-11 0 -20 9 -20 20v704c0 11 9 19 20 19h131c11 0 20 -8 20 -19v-266h247v266c0 11 9 19 20 19h131c11 0 20 -8 20 -19v-704z" />
    <glyph glyph-name="I" unicode="I" horiz-adv-x="311" 
d="M241 20c0 -11 -8 -20 -19 -20h-134c-11 0 -18 9 -18 20v704c0 11 7 19 18 19h134c11 0 19 -8 19 -19v-704z" />
    <glyph glyph-name="J" unicode="J" horiz-adv-x="311" 
d="M241 -6c0 -136 -78 -173 -179 -173c-23 0 -37 1 -64 4c-9 1 -15 8 -15 17v102c0 7 4 14 11 14h50c23 0 26 11 26 36v730c0 11 9 19 20 19h131c11 0 20 -8 20 -19v-730z" />
    <glyph glyph-name="K" unicode="K" horiz-adv-x="678" 
d="M652 732c0 -4 -2 -9 -5 -14l-238 -338l239 -359c3 -4 4 -8 4 -11c0 -6 -5 -10 -14 -10h-172c-12 0 -17 6 -22 14l-203 330v-324c0 -11 -9 -20 -20 -20h-131c-11 0 -20 9 -20 20v704c0 11 9 19 20 19h131c11 0 20 -8 20 -19v-318l220 325c5 8 11 12 22 12h153
c11 0 16 -5 16 -11z" />
    <glyph glyph-name="L" unicode="L" horiz-adv-x="519" 
d="M497 25c0 -13 -6 -18 -20 -21c-33 -7 -110 -13 -163 -13c-129 0 -244 33 -244 215v517c0 11 9 20 20 20h131c11 0 20 -9 20 -20v-517c0 -52 17 -68 64 -68h172c11 0 20 -9 20 -20v-93z" />
    <glyph glyph-name="M" unicode="M" horiz-adv-x="816" 
d="M746 14c0 -11 -9 -14 -17 -14h-132c-9 0 -16 9 -16 20v417c0 7 -3 8 -5 8c-3 0 -5 -2 -8 -7l-90 -165c-7 -12 -17 -17 -30 -17h-80c-13 0 -23 5 -30 17l-90 165c-3 5 -5 7 -8 7c-2 0 -5 -1 -5 -8v-417c0 -11 -7 -20 -16 -20h-132c-8 0 -17 3 -17 14v695c0 21 15 34 36 34
h94c21 0 35 -10 44 -27l153 -285c4 -8 7 -13 11 -13s7 5 11 13l153 285c9 17 23 27 44 27h94c21 0 36 -14 36 -35v-694z" />
    <glyph glyph-name="N" unicode="N" horiz-adv-x="729" 
d="M659 38c0 -21 -18 -38 -39 -38h-98c-21 0 -36 4 -52 31l-228 394c-4 6 -6 8 -9 8s-5 -2 -5 -8v-405c0 -11 -9 -20 -20 -20h-118c-11 0 -20 9 -20 20v685c0 21 17 38 38 38h101c20 0 30 -10 42 -31l237 -412c4 -6 5 -8 8 -8c2 0 5 2 5 9v423c0 11 9 19 20 19h118
c11 0 20 -8 20 -19v-686z" />
    <glyph glyph-name="O" unicode="O" horiz-adv-x="698" 
d="M645 312c0 -232 -131 -321 -296 -321s-296 89 -296 321v119c0 232 131 321 296 321s296 -89 296 -321v-119zM473 312v119c0 120 -40 171 -124 171s-123 -51 -123 -171v-119c0 -120 39 -171 123 -171s124 51 124 171z" />
    <glyph glyph-name="P" unicode="P" horiz-adv-x="651" 
d="M618 502c0 -187 -149 -242 -298 -242c-24 0 -56 2 -81 3v-243c0 -11 -9 -20 -20 -20h-129c-11 0 -20 8 -20 19v672c0 34 14 43 45 48c51 8 131 13 203 13c151 0 300 -53 300 -241v-9zM448 502v9c0 71 -44 99 -128 99c-14 0 -69 -2 -81 -3v-204c11 -1 70 -2 81 -2
c89 0 128 33 128 101z" />
    <glyph glyph-name="Q" unicode="Q" horiz-adv-x="698" 
d="M645 312c0 -192 -90 -287 -215 -313v-20c0 -21 10 -25 25 -25h90c14 0 24 -6 24 -16v-82c0 -10 -8 -18 -23 -22c-28 -7 -72 -13 -111 -13c-92 0 -166 39 -166 157v21c-125 26 -216 120 -216 313v119c0 232 131 321 296 321s296 -89 296 -321v-119zM473 312v119
c0 120 -40 171 -124 171s-123 -51 -123 -171v-119c0 -120 39 -171 123 -171s124 51 124 171z" />
    <glyph glyph-name="R" unicode="R" horiz-adv-x="680" 
d="M644 12c0 -7 -4 -12 -15 -12h-153c-11 0 -15 10 -20 20l-134 253l-11 -1c-21 0 -52 2 -71 2v-254c0 -11 -9 -20 -20 -20h-130c-11 0 -20 9 -20 20v671c0 34 14 43 45 48c46 7 131 13 203 13c170 0 301 -57 301 -234v-13c0 -106 -56 -171 -129 -200l151 -282
c2 -4 3 -8 3 -11zM449 505v13c0 61 -47 89 -131 89c-14 0 -66 -2 -78 -3v-192c11 -1 60 -2 71 -2c105 0 138 27 138 95z" />
    <glyph glyph-name="S" unicode="S" horiz-adv-x="588" 
d="M546 210c0 -106 -70 -219 -273 -219c-79 0 -138 9 -189 22c-10 3 -20 9 -20 20v98c0 14 8 19 18 19h3c41 -4 151 -12 190 -12c69 0 89 22 89 70c0 29 -14 45 -66 76l-138 82c-93 55 -118 118 -118 191c0 110 62 195 256 195c73 0 174 -12 212 -22c8 -2 15 -7 15 -18v-101
c0 -9 -4 -17 -17 -17h-2c-28 2 -144 11 -212 11c-57 0 -78 -17 -78 -53c0 -28 13 -41 67 -70l128 -69c104 -56 135 -122 135 -203z" />
    <glyph glyph-name="T" unicode="T" horiz-adv-x="587" 
d="M562 621c0 -11 -10 -19 -21 -19h-162v-582c0 -11 -9 -20 -20 -20h-131c-11 0 -20 9 -20 20v582h-163c-11 0 -20 8 -20 19v103c0 11 9 19 20 19h496c11 0 21 -8 21 -19v-103z" />
    <glyph glyph-name="U" unicode="U" horiz-adv-x="711" 
d="M644 279c0 -228 -130 -288 -289 -288s-288 60 -288 288v445c0 11 9 19 20 19h131c11 0 20 -8 20 -19v-445c0 -102 27 -145 117 -145s118 43 118 145v445c0 11 9 19 20 19h130c11 0 21 -8 21 -19v-445z" />
    <glyph glyph-name="V" unicode="V" horiz-adv-x="686" 
d="M658 727c0 -1 -1 -3 -1 -5l-149 -620c-23 -96 -96 -111 -165 -111s-143 15 -166 111l-149 620c0 2 -1 3 -1 5c0 9 8 16 18 16h139c10 0 18 -8 20 -18l125 -577c2 -11 5 -15 14 -15s12 4 14 15l125 577c2 10 9 18 19 18h140c10 0 17 -6 17 -16z" />
    <glyph glyph-name="W" unicode="W" horiz-adv-x="889" 
d="M872 730v-2l-93 -655c-8 -58 -39 -76 -92 -76h-57c-44 0 -79 17 -92 68l-79 299c-2 8 -4 8 -9 8s-6 0 -8 -8l-79 -299c-13 -51 -48 -68 -92 -68h-57c-53 0 -84 18 -92 76l-93 655v2c0 10 8 13 16 13h136c8 0 15 -8 16 -19l57 -536c1 -9 2 -13 6 -13c3 0 5 4 7 13l72 275
c10 38 35 48 62 48h99c27 0 52 -10 62 -48l72 -275c2 -9 4 -13 7 -13c4 0 5 4 6 13l57 536c1 11 8 19 16 19h136c8 0 16 -3 16 -13z" />
    <glyph glyph-name="X" unicode="X" horiz-adv-x="703" 
d="M671 10c0 -6 -5 -10 -13 -10h-159c-13 0 -19 4 -26 15l-130 211l-117 -206c-7 -12 -14 -20 -25 -20h-148c-10 0 -15 6 -15 13c0 2 1 5 2 7l209 361l-211 343c-1 2 -2 4 -2 6c0 7 7 13 15 13h161c11 0 19 -10 25 -19l124 -202l112 202c5 9 14 19 25 19h148
c8 0 15 -6 15 -13c0 -2 -1 -4 -2 -6l-206 -353l215 -351c2 -4 3 -7 3 -10z" />
    <glyph glyph-name="Y" unicode="Y" horiz-adv-x="647" 
d="M626 728c0 -2 0 -5 -1 -7l-151 -346c-20 -46 -41 -67 -65 -77v-278c0 -11 -9 -20 -20 -20h-131c-11 0 -20 9 -20 20v278c-24 10 -46 31 -66 77l-151 346c-1 2 -1 5 -1 7c0 8 6 15 16 15h144c10 0 17 -8 20 -17l108 -282c5 -13 8 -15 15 -15s10 2 15 15l108 282
c3 9 10 17 20 17h144c10 0 16 -7 16 -15z" />
    <glyph glyph-name="Z" unicode="Z" horiz-adv-x="615" 
d="M565 20c0 -11 -9 -20 -20 -20h-454c-23 0 -41 9 -41 31v80c0 14 3 26 15 44l279 422c3 4 4 7 4 10c0 5 -4 8 -11 8h-249c-11 0 -20 8 -20 19v110c0 11 9 19 20 19h431c21 0 40 -9 40 -28c0 0 1 -10 1 -24c0 -27 -1 -67 -1 -67c0 -9 -3 -18 -8 -26l-282 -432
c-3 -4 -5 -8 -5 -11c0 -4 4 -7 11 -7h270c11 0 20 -7 20 -18v-110z" />
    <glyph glyph-name="bracketleft" unicode="[" horiz-adv-x="374" 
d="M344 -174c0 -11 -9 -20 -20 -20h-244c-10 0 -17 9 -17 19v899c0 10 7 19 17 19h243c11 0 20 -9 20 -20v-87c0 -11 -9 -20 -20 -20h-96v-683h97c11 0 20 -9 20 -20v-87z" />
    <glyph glyph-name="backslash" unicode="\" horiz-adv-x="405" 
d="M392 12c0 -9 -9 -17 -19 -17h-127c-11 0 -16 10 -19 21l-213 707c0 1 -1 3 -1 4c0 9 9 16 19 16h126c11 0 18 -9 21 -20l212 -707c0 -1 1 -3 1 -4z" />
    <glyph glyph-name="bracketright" unicode="]" horiz-adv-x="374" 
d="M311 -175c0 -10 -7 -19 -17 -19h-244c-11 0 -20 9 -20 20v87c0 11 9 20 20 20h97v683h-96c-11 0 -20 9 -20 20v87c0 11 9 20 20 20h243c10 0 17 -9 17 -19v-899z" />
    <glyph glyph-name="asciicircum" unicode="^" 
d="M576 574c0 -5 -4 -9 -12 -9h-130c-17 0 -21 4 -31 15l-80 89l-80 -89c-10 -11 -14 -15 -31 -15h-130c-8 0 -12 4 -12 9c0 4 2 8 5 12l111 148c11 14 16 18 34 18h206c18 0 23 -4 34 -18l111 -148c3 -4 5 -8 5 -12z" />
    <glyph glyph-name="underscore" unicode="_" horiz-adv-x="541" 
d="M573 -103c0 -11 -9 -16 -20 -16h-564c-11 0 -20 5 -20 16v48c0 11 9 16 20 16h564c11 0 20 -5 20 -16v-48z" />
    <glyph glyph-name="quoteleft" unicode="&#x2018;" horiz-adv-x="253" 
d="M229 757c0 -2 0 -6 -1 -9l-54 -219c-3 -14 -10 -19 -20 -19h-119c-7 0 -12 4 -12 11c0 2 1 5 2 8l75 219c5 13 9 19 19 19h101c7 0 9 -4 9 -10z" />
    <glyph glyph-name="a" unicode="a" horiz-adv-x="562" 
d="M502 20c0 -11 -9 -20 -20 -20h-112c-11 0 -20 9 -20 20v16c-39 -28 -79 -45 -139 -45c-87 0 -171 42 -171 172v9c0 117 75 169 246 169h54v36c0 57 -28 69 -75 69c-64 0 -135 -4 -166 -7h-5c-10 0 -18 5 -18 18v81c0 11 7 19 19 22c37 9 107 21 173 21
c144 0 234 -58 234 -204v-357zM343 135v110h-57c-70 0 -88 -24 -88 -73v-9c0 -42 21 -50 63 -50c30 0 58 10 82 22z" />
    <glyph glyph-name="b" unicode="b" horiz-adv-x="597" 
d="M555 247c0 -162 -89 -256 -251 -256c-77 0 -156 12 -213 26c-27 6 -31 13 -31 29v701c0 11 10 20 21 20h121c11 0 20 -9 20 -20v-173c29 4 62 7 82 7c169 0 251 -99 251 -256v-78zM393 247v78c0 70 -18 122 -89 122c-24 0 -58 -2 -82 -5v-312c19 -3 49 -6 82 -6
c71 0 89 52 89 123z" />
    <glyph glyph-name="c" unicode="c" horiz-adv-x="474" 
d="M432 29c0 -15 -6 -19 -21 -23c-28 -7 -73 -15 -133 -15c-141 0 -233 90 -233 253v84c0 163 92 253 233 253c60 0 105 -8 133 -15c15 -4 21 -8 21 -23v-89c0 -10 -9 -17 -19 -17h-2c-37 4 -65 7 -122 7c-45 0 -82 -27 -82 -116v-84c0 -89 37 -116 82 -116c57 0 85 3 122 7
h2c10 0 19 -7 19 -17v-89z" />
    <glyph glyph-name="d" unicode="d" horiz-adv-x="597" 
d="M537 46c0 -16 -4 -23 -31 -29c-57 -14 -136 -26 -213 -26c-162 0 -251 94 -251 256v78c0 157 82 256 251 256c20 0 53 -3 82 -7v173c0 11 9 20 20 20h121c11 0 21 -9 21 -20v-701zM375 130v312c-24 3 -58 5 -82 5c-71 0 -89 -52 -89 -122v-78c0 -71 18 -123 89 -123
c33 0 63 3 82 6z" />
    <glyph glyph-name="e" unicode="e" horiz-adv-x="590" 
d="M545 260c0 -15 -8 -24 -21 -24h-319v-2c0 -57 24 -109 103 -109c63 0 152 5 192 9h3c11 0 19 -5 19 -16v-76c0 -16 -4 -23 -21 -27c-64 -16 -118 -24 -205 -24c-121 0 -251 64 -251 257v70c0 161 94 263 253 263c164 0 247 -112 247 -263v-58zM387 336v4
c0 74 -34 111 -90 111c-55 0 -92 -38 -92 -111v-4h182z" />
    <glyph glyph-name="f" unicode="f" horiz-adv-x="424" 
d="M394 670c0 -11 -8 -17 -21 -17h-49c-30 0 -33 -7 -33 -47v-33h82c11 0 20 -9 20 -20v-81c0 -11 -9 -20 -20 -20h-82v-432c0 -11 -9 -20 -20 -20h-123c-11 0 -20 9 -20 20v432l-80 13c-11 2 -21 10 -21 21v66c0 11 10 21 21 21h80v32c0 142 58 171 168 171
c29 0 49 -3 79 -8c12 -2 19 -10 19 -20v-78z" />
    <glyph glyph-name="g" unicode="g" horiz-adv-x="599" 
d="M577 490c0 -14 -6 -18 -18 -22l-31 -10c12 -18 22 -50 22 -74v-8c0 -130 -91 -187 -247 -187c-47 0 -84 7 -104 15c-11 -7 -14 -14 -14 -23c0 -16 6 -23 30 -28l113 -25c174 -38 234 -65 234 -161v-8c0 -110 -86 -163 -262 -163c-166 0 -254 58 -254 163v8
c0 41 17 79 60 112c-36 20 -51 60 -51 93c0 37 19 65 44 85c-32 28 -46 79 -46 119v8c0 113 75 189 250 189h249c14 0 25 -12 25 -26v-57zM392 376v8c0 41 -18 72 -89 72s-91 -31 -91 -72v-8c0 -34 15 -70 91 -70c70 0 89 27 89 70zM397 -41v8c0 19 -13 32 -103 52l-74 16
c-12 -17 -20 -33 -20 -68v-8c0 -34 23 -51 100 -51c82 0 97 21 97 51z" />
    <glyph glyph-name="h" unicode="h" horiz-adv-x="612" 
d="M552 21c0 -11 -10 -21 -21 -21h-121c-11 0 -20 10 -20 21v333c0 70 -13 93 -74 93c-29 0 -60 -14 -94 -32v-394c0 -11 -9 -21 -20 -21h-121c-11 0 -21 10 -21 21v726c0 11 9 20 20 20h122c11 0 20 -9 20 -20v-211c51 33 93 45 153 45c145 0 177 -101 177 -227v-333z" />
    <glyph glyph-name="i" unicode="i" horiz-adv-x="290" 
d="M230 658c0 -11 -9 -20 -20 -20h-130c-11 0 -20 9 -20 20v93c0 11 9 20 20 20h130c11 0 20 -9 20 -20v-93zM226 20c0 -11 -9 -20 -20 -20h-122c-11 0 -20 9 -20 20v533c0 11 9 20 20 20h122c11 0 20 -9 20 -20v-533z" />
    <glyph glyph-name="j" unicode="j" horiz-adv-x="290" 
d="M230 658c0 -11 -10 -20 -21 -20h-129c-11 0 -20 9 -20 20v93c0 11 9 20 20 20h129c11 0 21 -9 21 -20v-93zM226 -32c0 -133 -61 -171 -158 -171c-26 0 -51 2 -80 7c-13 2 -20 9 -20 20v79c0 11 8 18 21 18h44c28 0 31 13 31 47v584c0 11 8 21 19 21h124
c11 0 19 -10 19 -21v-584z" />
    <glyph glyph-name="k" unicode="k" horiz-adv-x="588" 
d="M558 562c0 -3 -1 -6 -4 -10l-186 -253l185 -278c2 -2 2 -5 2 -8c0 -7 -5 -13 -13 -13h-151c-11 0 -17 2 -25 14l-144 235v-228c0 -11 -9 -21 -20 -21h-121c-11 0 -21 10 -21 21v726c0 11 10 20 21 20h121c11 0 20 -9 20 -20v-418l152 229c8 12 18 15 26 15h143
c9 0 15 -5 15 -11z" />
    <glyph glyph-name="l" unicode="l" horiz-adv-x="282" 
d="M222 21c0 -11 -8 -21 -19 -21h-122c-11 0 -21 10 -21 21v726c0 11 10 20 21 20h122c11 0 19 -9 19 -20v-726z" />
    <glyph glyph-name="m" unicode="m" horiz-adv-x="875" 
d="M815 21c0 -11 -10 -21 -21 -21h-121c-11 0 -20 10 -20 21v341c0 64 -15 83 -61 83c-17 0 -47 -4 -77 -18c2 -20 3 -43 3 -65v-341c0 -11 -9 -21 -20 -21h-121c-11 0 -21 10 -21 21v341c0 64 -12 83 -58 83c-19 0 -45 -10 -76 -26v-398c0 -11 -9 -21 -20 -21h-121
c-11 0 -21 10 -21 21v532c0 11 9 20 20 20h114c11 0 20 -9 20 -20v-22c42 28 90 50 148 50c53 0 90 -15 118 -49c58 33 98 49 163 49c132 0 172 -88 172 -219v-341z" />
    <glyph glyph-name="n" unicode="n" horiz-adv-x="612" 
d="M552 21c0 -11 -10 -21 -21 -21h-121c-11 0 -20 10 -20 21v333c0 70 -13 93 -74 93c-29 0 -60 -14 -94 -32v-394c0 -11 -9 -21 -20 -21h-121c-11 0 -21 10 -21 21v532c0 11 9 20 20 20h112c11 0 20 -9 20 -20v-24c55 39 99 52 163 52c145 0 177 -101 177 -227v-333z" />
    <glyph glyph-name="o" unicode="o" horiz-adv-x="589" 
d="M545 251c0 -159 -88 -260 -250 -260s-251 101 -251 260v70c0 159 89 260 251 260s250 -101 250 -260v-70zM384 251v70c0 81 -31 122 -89 122s-90 -41 -90 -122v-70c0 -81 32 -123 90 -123s89 42 89 123z" />
    <glyph glyph-name="p" unicode="p" horiz-adv-x="597" 
d="M555 247c0 -157 -82 -256 -251 -256c-20 0 -53 3 -82 7v-173c0 -11 -9 -20 -20 -20h-121c-11 0 -21 9 -21 20v701c0 16 4 23 31 29c57 14 136 26 213 26c162 0 251 -94 251 -256v-78zM393 247v78c0 71 -18 122 -89 122c-33 0 -63 -2 -82 -5v-312c24 -3 58 -6 82 -6
c71 0 89 53 89 123z" />
    <glyph glyph-name="q" unicode="q" horiz-adv-x="597" 
d="M537 -175c0 -11 -10 -20 -21 -20h-121c-11 0 -20 9 -20 20v173c-29 -4 -62 -7 -82 -7c-169 0 -251 99 -251 256v78c0 162 89 256 251 256c77 0 156 -12 213 -26c27 -6 31 -13 31 -29v-701zM375 130v312c-19 3 -49 5 -82 5c-71 0 -89 -51 -89 -122v-78
c0 -70 18 -123 89 -123c24 0 58 3 82 6z" />
    <glyph glyph-name="r" unicode="r" horiz-adv-x="396" 
d="M374 466c0 -9 -6 -19 -15 -19h-8c-49 0 -92 -15 -129 -35v-391c0 -11 -9 -21 -20 -21h-121c-11 0 -21 10 -21 21v532c0 11 9 20 20 20h119c11 0 20 -9 20 -20v-20c37 31 87 48 135 48c11 0 20 -9 20 -20v-95z" />
    <glyph glyph-name="s" unicode="s" horiz-adv-x="503" 
d="M461 159c0 -94 -68 -168 -214 -168c-55 0 -131 8 -182 22c-12 3 -19 11 -19 23v81c0 10 7 19 19 19h4c54 -7 138 -14 170 -14c48 0 59 13 59 39c0 15 -9 26 -37 42l-130 75c-56 32 -89 83 -89 148c0 101 67 155 205 155c79 0 127 -10 178 -23c12 -3 19 -11 19 -23v-81
c0 -12 -7 -19 -17 -19h-3c-29 4 -115 13 -166 13c-39 0 -53 -6 -53 -29c0 -15 11 -23 31 -35l124 -71c83 -48 101 -100 101 -154z" />
    <glyph glyph-name="t" unicode="t" horiz-adv-x="421" 
d="M390 19c0 -10 -7 -18 -19 -20c-30 -5 -50 -8 -79 -8c-110 0 -168 29 -168 171v290l-80 13c-11 2 -21 10 -21 21v66c0 11 10 21 21 21h80v82c0 11 9 18 20 20l122 21h3c10 0 18 -7 18 -17v-106h82c11 0 20 -9 20 -20v-81c0 -11 -9 -20 -20 -20h-82v-291
c0 -40 3 -47 33 -47h49c13 0 21 -6 21 -17v-78z" />
    <glyph glyph-name="u" unicode="u" horiz-adv-x="612" 
d="M552 20c0 -11 -9 -20 -20 -20h-112c-11 0 -20 9 -20 20v24c-55 -39 -99 -52 -163 -52c-145 0 -177 101 -177 227v333c0 11 10 21 21 21h121c11 0 20 -10 20 -21v-333c0 -70 13 -93 74 -93c29 0 60 14 94 32v394c0 11 9 21 20 21h121c11 0 21 -10 21 -21v-532z" />
    <glyph glyph-name="v" unicode="v" horiz-adv-x="585" 
d="M564 556c0 -2 0 -4 -1 -6l-126 -454c-25 -89 -86 -105 -145 -105s-119 16 -144 105l-125 454c-1 2 -1 4 -1 6c0 10 7 17 16 17h132c10 0 18 -9 21 -21l86 -392c3 -15 8 -21 15 -21s13 6 16 21l86 392c3 12 11 21 21 21h132c9 0 17 -7 17 -17z" />
    <glyph glyph-name="w" unicode="w" horiz-adv-x="845" 
d="M816 556v-4l-89 -482c-11 -57 -46 -70 -88 -70h-61c-48 0 -74 26 -84 64l-67 261c-1 5 -2 5 -5 5s-4 0 -5 -5l-67 -261c-10 -38 -36 -64 -84 -64h-61c-42 0 -77 13 -88 70l-89 482v4c0 9 6 17 15 17h121c12 0 19 -2 21 -17l59 -380c1 -8 4 -13 6 -13c3 0 6 4 8 13l67 264
c9 35 24 45 56 45h82c32 0 47 -10 56 -45l67 -264c2 -9 5 -13 8 -13c2 0 5 5 6 13l59 380c2 15 9 17 21 17h121c9 0 15 -8 15 -17z" />
    <glyph glyph-name="x" unicode="x" horiz-adv-x="617" 
d="M585 14c0 -7 -6 -14 -14 -14h-151c-11 0 -17 6 -26 21l-99 155l-93 -156c-9 -15 -15 -20 -26 -20h-134c-7 0 -11 5 -11 12c0 2 0 5 2 8l175 278l-170 254c-1 2 -2 4 -2 6c0 8 7 15 15 15h149c11 0 17 -8 26 -21l89 -138l82 138c9 15 15 21 26 21h134c7 0 12 -6 12 -13
c0 -3 0 -5 -2 -8l-165 -262l181 -269c1 -2 2 -4 2 -7z" />
    <glyph glyph-name="y" unicode="y" horiz-adv-x="592" 
d="M570 555c0 -2 -1 -3 -1 -5l-168 -589c-31 -108 -72 -163 -219 -163c-37 0 -96 8 -121 16c-11 4 -21 7 -21 18v81c0 11 9 19 20 19h2c33 -2 92 -8 125 -8c36 0 54 12 66 52l9 31h-15c-37 0 -68 6 -93 93l-132 450c-1 3 -1 5 -1 7c0 10 6 16 20 16h133c10 0 17 -9 19 -19
l90 -376c3 -14 6 -19 12 -19h1h4h4l93 395c2 10 10 19 21 19h133c10 0 19 -8 19 -18z" />
    <glyph glyph-name="z" unicode="z" horiz-adv-x="515" 
d="M472 20c0 -11 -9 -20 -20 -20h-375c-18 0 -34 15 -34 33v64c0 14 4 24 14 38l217 296c2 3 3 5 3 7c0 3 -3 5 -7 5h-201c-10 0 -17 6 -17 16v94c0 11 9 20 20 20h365c18 0 33 -16 33 -34v-74c0 -10 -2 -22 -11 -35l-207 -283c-2 -3 -3 -5 -3 -7s3 -4 7 -4h198
c10 0 18 -6 18 -16v-100z" />
    <glyph glyph-name="braceleft" unicode="{" horiz-adv-x="407" 
d="M377 -174c0 -11 -9 -20 -20 -20h-58c-148 0 -202 42 -202 185v131c0 48 -20 79 -57 103v95c37 24 56 55 56 103v135c0 143 54 185 202 185h58c11 0 20 -9 20 -20v-87c0 -11 -9 -20 -20 -20h-58c-32 0 -38 -9 -38 -58v-135c0 -69 -23 -119 -83 -150c60 -31 83 -82 83 -151
v-131c0 -49 7 -58 39 -58h58c11 0 20 -9 20 -20v-87z" />
    <glyph glyph-name="bar" unicode="|" horiz-adv-x="290" 
d="M227 -173c0 -11 -9 -21 -20 -21h-123c-11 0 -21 10 -21 21v896c0 11 10 20 21 20h123c11 0 20 -9 20 -20v-896z" />
    <glyph glyph-name="braceright" unicode="}" horiz-adv-x="407" 
d="M367 225c-37 -24 -57 -55 -57 -103v-131c0 -143 -54 -185 -202 -185h-58c-11 0 -20 9 -20 20v87c0 11 9 20 20 20h58c32 0 39 9 39 58v131c0 69 23 120 83 151c-60 31 -83 81 -83 150v135c0 49 -6 58 -38 58h-58c-11 0 -20 9 -20 20v87c0 11 9 20 20 20h58
c148 0 202 -42 202 -185v-135c0 -48 19 -79 56 -103v-95z" />
    <glyph glyph-name="asciitilde" unicode="~" 
d="M576 480c0 -105 -47 -151 -143 -151c-39 0 -68 15 -91 29l-71 43c-18 11 -33 13 -43 13c-28 0 -31 -19 -31 -40v-18c0 -11 -7 -20 -18 -20h-89c-13 0 -20 6 -20 20v18c0 120 57 158 143 158c19 0 54 -5 73 -17l90 -54c18 -11 33 -14 43 -14c21 0 29 8 29 33v25
c0 14 6 20 19 20h89c13 0 20 -6 20 -20v-25z" />
    <glyph glyph-name="exclamdown" unicode="&#xa1;" horiz-adv-x="273" 
d="M215 427c0 -11 -9 -19 -20 -19h-118c-11 0 -19 8 -19 19v126c0 11 8 20 19 20h118c11 0 20 -9 20 -20v-126zM220 -175c0 -10 -11 -19 -22 -19h-125c-11 0 -20 9 -20 19v1l20 499c1 11 9 21 20 21h85c11 0 22 -10 22 -21l20 -499v-1z" />
    <glyph glyph-name="cent" unicode="&#xa2;" 
d="M516 29c0 -15 -6 -19 -21 -23c-19 -5 -45 -10 -79 -13v-73c0 -11 -9 -20 -20 -20h-101c-11 0 -20 9 -20 20v84c-91 31 -146 114 -146 240v84c0 126 55 209 146 240v82c0 11 9 20 20 20h101c11 0 20 -9 20 -20v-71c34 -3 60 -8 79 -13c15 -4 21 -8 21 -23v-89
c0 -10 -9 -17 -19 -17h-2c-37 4 -65 7 -122 7c-45 0 -82 -27 -82 -116v-84c0 -89 37 -116 82 -116c57 0 85 3 122 7h2c10 0 19 -7 19 -17v-89z" />
    <glyph glyph-name="sterling" unicode="&#xa3;" 
d="M577 614c0 -13 -7 -18 -16 -18h-3c-42 5 -112 12 -165 12c-65 0 -91 -15 -91 -79v-84h169c11 0 20 -8 20 -19v-97c0 -11 -8 -19 -19 -19h-170v-100c0 -33 -9 -57 -20 -76h274c11 0 20 -7 20 -18v-97c0 -11 -9 -19 -20 -19h-442c-14 0 -19 13 -19 24v70c0 12 5 18 9 24
c14 18 33 58 33 92v100h-50c-11 0 -19 8 -19 19v97c0 11 9 19 20 19h49v83c0 155 70 224 256 224c57 0 134 -12 165 -19c18 -4 19 -9 19 -20v-99z" />
    <glyph glyph-name="fraction" unicode="&#x2044;" horiz-adv-x="370" 
d="M464 735c0 -4 -1 -8 -4 -12l-416 -702c-8 -14 -12 -21 -23 -21h-103c-7 0 -11 4 -11 11c0 3 1 6 3 10l416 702c9 15 14 20 25 20h103c7 0 10 -3 10 -8z" />
    <glyph glyph-name="yen" unicode="&#xa5;" 
d="M623 730c0 -3 0 -6 -2 -9l-111 -224h87c11 0 20 -8 20 -19v-74c0 -11 -8 -19 -19 -19h-142l-46 -92l-2 -11h189c11 0 20 -7 20 -18v-75c0 -11 -8 -18 -19 -18h-190v-151c0 -11 -9 -20 -20 -20h-133c-11 0 -19 9 -19 20v151h-189c-11 0 -20 7 -20 18v75c0 11 9 18 20 18
h189l-1 11l-45 92h-143c-11 0 -20 8 -20 19v74c0 11 9 19 20 19h88l-111 224c-2 3 -2 6 -2 9c0 8 6 13 15 13h147c10 0 15 -8 19 -17l119 -270l120 270c4 9 9 17 19 17h147c9 0 15 -5 15 -13z" />
    <glyph glyph-name="florin" unicode="&#x192;" 
d="M612 759v-4l-10 -75c-1 -11 -11 -18 -24 -18h-65c-49 0 -61 -11 -66 -49l-22 -159h134c11 0 18 -7 18 -16v-3l-12 -84c-2 -11 -11 -21 -23 -21h-134l-46 -325c-19 -133 -107 -170 -211 -170c-40 0 -80 5 -99 9c-14 3 -18 8 -18 15v4l10 75c1 11 11 18 24 18h65
c49 0 61 11 66 49l45 325h-126c-11 0 -18 8 -18 18v3l12 84c2 11 11 19 23 19h127l22 159c18 133 107 170 211 170c40 0 80 -5 99 -9c14 -3 18 -8 18 -15z" />
    <glyph glyph-name="section" unicode="&#xa7;" horiz-adv-x="589" 
d="M549 1c0 -104 -68 -217 -272 -217c-79 0 -144 9 -195 22c-10 3 -20 9 -20 20v101c0 10 10 19 20 19h2c63 -6 124 -14 187 -14h6c69 1 94 19 94 69c0 29 -18 46 -71 75l-133 73c-103 56 -127 116 -127 205c0 26 13 76 30 103c-16 19 -29 56 -29 95c0 110 61 200 255 200
c73 0 174 -12 212 -22c10 -3 20 -9 20 -19v-102c0 -8 -6 -14 -13 -14h-1c-71 4 -145 8 -218 8c-60 0 -83 -8 -83 -51c0 -25 18 -41 72 -70l128 -69c104 -56 136 -119 136 -200c0 -37 -13 -81 -26 -106c19 -31 26 -68 26 -106zM407 220c0 43 -19 63 -96 105l-72 39
c-25 14 -40 23 -49 31c-12 -12 -17 -31 -17 -51c0 -38 11 -53 86 -93l70 -37c29 -15 56 -36 66 -44c8 14 12 31 12 50z" />
    <glyph glyph-name="currency" unicode="&#xa4;" 
d="M583 557c0 -6 -3 -11 -7 -15l-86 -85c15 -27 23 -56 23 -86c0 -31 -8 -62 -24 -90l84 -84c4 -4 7 -10 7 -15c0 -4 -2 -8 -5 -11l-57 -57c-3 -3 -7 -5 -11 -5c-6 0 -11 3 -15 7l-86 87c-25 -14 -54 -21 -82 -21c-30 0 -59 7 -86 22l-85 -85c-4 -4 -10 -8 -16 -8
c-3 0 -7 2 -10 5l-57 57c-3 3 -5 8 -5 12c0 5 3 11 7 15l85 84c-15 27 -23 57 -23 87c0 28 6 57 20 82l-85 86c-4 4 -7 10 -7 15c0 4 2 8 5 11l57 57c3 3 7 5 11 5c5 0 11 -3 15 -7l83 -83c28 16 60 23 91 23c30 0 59 -7 86 -22l85 85c4 4 10 7 15 7c4 0 8 -2 11 -5l57 -57
c3 -3 5 -7 5 -11zM410 374c0 46 -38 83 -84 83s-85 -37 -85 -83s39 -84 85 -84s84 38 84 84z" />
    <glyph glyph-name="quotesingle" unicode="'" horiz-adv-x="253" 
d="M230 756c0 -2 -1 -5 -2 -8l-75 -219c-5 -13 -9 -19 -19 -19h-101c-7 0 -9 4 -9 10c0 2 0 6 1 9l54 219c3 14 10 19 20 19h119c7 0 12 -4 12 -11z" />
    <glyph glyph-name="quotedblleft" unicode="&#x201c;" horiz-adv-x="473" 
d="M449 757c0 -2 0 -6 -1 -9l-54 -219c-3 -14 -10 -19 -20 -19h-119c-7 0 -12 4 -12 11c0 2 1 5 2 8l74 219c4 13 9 19 19 19h102c7 0 9 -4 9 -10zM229 757c0 -2 0 -6 -1 -9l-54 -219c-3 -14 -10 -19 -20 -19h-119c-7 0 -12 4 -12 11c0 2 1 5 2 8l75 219c5 13 9 19 19 19
h101c7 0 9 -4 9 -10z" />
    <glyph glyph-name="guillemotleft" unicode="&#xab;" horiz-adv-x="718" 
d="M685 74c0 -6 -5 -11 -14 -11h-122c-15 0 -21 3 -29 12l-160 185c-7 8 -10 18 -10 26s3 18 10 26l160 185c8 9 14 12 29 12h122c9 0 14 -5 14 -11c0 -3 -2 -6 -4 -9l-176 -203l176 -203c2 -3 4 -6 4 -9zM380 74c0 -6 -5 -11 -14 -11h-121c-15 0 -22 3 -30 12l-160 185
c-7 8 -10 18 -10 26s3 18 10 26l160 185c8 9 15 12 30 12h121c9 0 14 -5 14 -11c0 -3 -2 -6 -4 -9l-176 -203l176 -203c2 -3 4 -6 4 -9z" />
    <glyph glyph-name="guilsinglleft" unicode="&#x2039;" horiz-adv-x="413" 
d="M370 74c0 -6 -5 -11 -14 -11h-121c-15 0 -22 3 -30 12l-160 185c-7 8 -10 18 -10 26s3 18 10 26l160 185c8 9 15 12 30 12h121c9 0 14 -5 14 -11c0 -3 -2 -6 -4 -9l-176 -203l176 -203c2 -3 4 -6 4 -9z" />
    <glyph glyph-name="guilsinglright" unicode="&#x203a;" horiz-adv-x="413" 
d="M378 286c0 -8 -3 -18 -10 -26l-160 -185c-8 -9 -15 -12 -30 -12h-121c-9 0 -14 5 -14 11c0 3 2 6 4 9l176 203l-176 203c-2 3 -4 6 -4 9c0 6 5 11 14 11h121c15 0 22 -3 30 -12l160 -185c7 -8 10 -18 10 -26z" />
    <glyph glyph-name="endash" unicode="&#x2013;" horiz-adv-x="309" 
d="M324 251c0 -11 -9 -19 -20 -19h-300c-11 0 -19 8 -19 19v79c0 11 8 20 19 20h300c11 0 20 -9 20 -20v-79z" />
    <glyph glyph-name="dagger" unicode="&#x2020;" horiz-adv-x="440" 
d="M410 465c0 -10 -8 -16 -19 -16h-92v-435c0 -11 -5 -20 -16 -20h-132c-11 0 -16 9 -16 20v435h-86c-11 0 -19 6 -19 16v104c0 10 8 15 19 15h86v164c0 10 6 19 17 19h131c10 0 16 -9 16 -19v-164h92c11 0 19 -5 19 -15v-104z" />
    <glyph glyph-name="daggerdbl" unicode="&#x2021;" horiz-adv-x="440" 
d="M410 243c0 -10 -8 -16 -19 -16h-92v-213c0 -11 -5 -20 -16 -20h-132c-11 0 -16 9 -16 20v213h-86c-11 0 -19 6 -19 16v103c0 10 8 15 19 15h86v88h-86c-11 0 -19 6 -19 16v104c0 10 8 15 19 15h86v164c0 10 6 19 17 19h131c10 0 16 -9 16 -19v-164h92c11 0 19 -5 19 -15
v-104c0 -10 -8 -16 -19 -16h-92v-88h92c11 0 19 -5 19 -15v-103z" />
    <glyph glyph-name="periodcentered" unicode="&#xb7;" horiz-adv-x="274" 
d="M216 319c0 -11 -9 -20 -20 -20h-117c-11 0 -21 9 -21 20v126c0 11 10 19 21 19h117c11 0 20 -8 20 -19v-126z" />
    <glyph glyph-name="paragraph" unicode="&#xb6;" horiz-adv-x="659" 
d="M602 -176c0 -10 -7 -19 -17 -19h-43c-10 0 -17 9 -17 19v843h-63v-843c0 -10 -7 -19 -17 -19h-43c-10 0 -17 9 -17 19v418h-96c-138 0 -244 79 -244 223v55c0 144 106 223 244 223h297c12 0 16 -7 16 -19v-900z" />
    <glyph glyph-name="bullet" unicode="&#x2022;" horiz-adv-x="418" 
d="M376 367c0 -92 -75 -167 -167 -167s-167 75 -167 167s75 167 167 167s167 -75 167 -167z" />
    <glyph glyph-name="quotesinglbase" unicode="&#x201a;" horiz-adv-x="253" 
d="M231 153c0 -2 -1 -5 -2 -7l-96 -224c-5 -11 -8 -20 -19 -20h-88c-9 0 -17 7 -17 15c0 2 1 3 1 5l64 224c3 12 9 19 20 19h122c9 0 15 -5 15 -12z" />
    <glyph glyph-name="quotedblbase" unicode="&#x201e;" horiz-adv-x="473" 
d="M460 153c0 -2 -1 -5 -2 -7l-96 -224c-5 -11 -8 -20 -19 -20h-88c-9 0 -17 7 -17 15c0 2 1 3 1 5l64 224c3 12 9 19 20 19h122c9 0 15 -5 15 -12zM231 153c0 -2 -1 -5 -2 -7l-96 -224c-5 -11 -8 -20 -19 -20h-88c-9 0 -17 7 -17 15c0 2 1 3 1 5l64 224c3 12 9 19 20 19
h122c9 0 15 -5 15 -12z" />
    <glyph glyph-name="quotedblright" unicode="&#x201d;" horiz-adv-x="473" 
d="M450 756c0 -2 -1 -5 -2 -8l-75 -219c-5 -13 -9 -19 -19 -19h-101c-7 0 -9 4 -9 10c0 2 0 6 1 9l54 219c3 14 10 19 20 19h119c7 0 12 -4 12 -11zM230 756c0 -2 -1 -5 -2 -8l-74 -219c-4 -13 -9 -19 -19 -19h-102c-7 0 -9 4 -9 10c0 2 0 6 1 9l55 219c3 14 10 19 20 19
h118c7 0 12 -4 12 -11z" />
    <glyph glyph-name="guillemotright" unicode="&#xbb;" horiz-adv-x="718" 
d="M683 286c0 -8 -4 -18 -11 -26l-160 -185c-8 -9 -14 -12 -29 -12h-121c-9 0 -14 5 -14 11c0 3 2 6 4 9l176 203l-176 203c-2 3 -4 6 -4 9c0 6 5 11 14 11h121c15 0 21 -3 29 -12l160 -185c7 -8 11 -18 11 -26zM378 286c0 -8 -3 -18 -10 -26l-160 -185
c-8 -9 -15 -12 -30 -12h-121c-9 0 -14 5 -14 11c0 3 2 6 4 9l176 203l-176 203c-2 3 -4 6 -4 9c0 6 5 11 14 11h121c15 0 22 -3 30 -12l160 -185c7 -8 10 -18 10 -26z" />
    <glyph glyph-name="ellipsis" unicode="&#x2026;" horiz-adv-x="767" 
d="M717 20c0 -11 -9 -20 -20 -20h-118c-11 0 -20 9 -20 20v126c0 11 9 19 20 19h118c11 0 20 -8 20 -19v-126zM463 20c0 -11 -9 -20 -20 -20h-118c-11 0 -20 9 -20 20v126c0 11 9 19 20 19h118c11 0 20 -8 20 -19v-126zM209 20c0 -11 -9 -20 -20 -20h-118
c-11 0 -20 9 -20 20v126c0 11 9 19 20 19h118c11 0 20 -8 20 -19v-126z" />
    <glyph glyph-name="perthousand" unicode="&#x2030;" horiz-adv-x="1193" 
d="M1155 166c0 -116 -54 -172 -148 -172s-148 56 -148 172v75c0 116 54 172 148 172s148 -56 148 -172v-75zM801 166c0 -116 -53 -172 -147 -172s-148 56 -148 172v75c0 116 54 172 148 172s147 -56 147 -172v-75zM698 735c0 -4 -1 -8 -4 -12l-416 -702
c-8 -14 -12 -21 -23 -21h-103c-7 0 -11 4 -11 11c0 3 1 6 3 10l416 702c9 15 14 20 25 20h103c7 0 10 -3 10 -8zM334 502c0 -116 -54 -172 -148 -172s-148 56 -148 172v75c0 116 54 171 148 171s148 -55 148 -171v-75zM1054 166v75c0 68 -18 85 -47 85s-48 -17 -48 -85v-75
c0 -68 19 -85 48 -85s47 17 47 85zM701 166v75c0 68 -18 85 -47 85s-48 -17 -48 -85v-75c0 -68 19 -85 48 -85s47 17 47 85zM233 502v75c0 68 -18 85 -47 85s-48 -17 -48 -85v-75c0 -68 19 -86 48 -86s47 18 47 86z" />
    <glyph glyph-name="questiondown" unicode="&#xbf;" horiz-adv-x="479" 
d="M375 428c0 -11 -9 -20 -20 -20h-118c-11 0 -20 9 -20 20v126c0 11 9 19 20 19h118c11 0 20 -8 20 -19v-126zM445 -143c0 -14 -3 -22 -18 -26c-43 -13 -104 -21 -160 -21c-138 0 -219 41 -219 166v17c0 45 21 85 77 157l45 58c45 58 56 70 56 91v28c0 12 13 19 24 19h100
c11 0 19 -9 19 -20v-27c0 -52 -4 -82 -42 -132l-48 -63c-37 -49 -46 -72 -46 -101v-10c0 -22 14 -37 49 -37c52 0 95 5 143 11h3c12 0 17 -8 17 -21v-89z" />
    <glyph glyph-name="grave" unicode="`" horiz-adv-x="443" 
d="M293 637c0 -4 -3 -7 -9 -7h-107c-13 0 -16 4 -24 12l-122 122c-3 3 -4 6 -4 8c0 4 4 7 11 7h132c14 0 18 -4 27 -15l92 -117c3 -4 4 -7 4 -10z" />
    <glyph glyph-name="acute" unicode="&#xb4;" horiz-adv-x="443" 
d="M416 772c0 -2 -1 -5 -4 -8l-122 -122c-8 -8 -11 -12 -24 -12h-107c-6 0 -9 3 -9 7c0 3 1 6 4 10l93 117c9 11 13 15 27 15h131c7 0 11 -3 11 -7z" />
    <glyph glyph-name="circumflex" unicode="&#x2c6;" horiz-adv-x="443" 
d="M421 637c0 -4 -3 -7 -9 -7h-103c-13 0 -16 3 -24 12l-63 70l-64 -70c-8 -9 -11 -12 -24 -12h-103c-6 0 -9 3 -9 7c0 3 1 6 4 10l89 117c9 11 13 15 27 15h160c14 0 18 -3 27 -15l88 -117c3 -4 4 -7 4 -10z" />
    <glyph glyph-name="tilde" unicode="&#x2dc;" horiz-adv-x="497" 
d="M444 746c0 -88 -47 -120 -122 -120c-20 0 -50 8 -71 22l-42 29c-17 12 -30 18 -41 18c-13 0 -23 -6 -23 -27v-19c0 -11 -5 -17 -15 -17h-71c-10 0 -15 6 -15 17v19c0 86 48 119 123 119c20 0 49 -7 70 -21l43 -28c17 -11 29 -18 40 -18c15 0 23 6 23 27v19
c0 11 6 16 16 16h70c10 0 15 -5 15 -16v-20z" />
    <glyph glyph-name="macron" unicode="&#xaf;" horiz-adv-x="443" 
d="M404 672c0 -11 -9 -19 -20 -19h-324c-11 0 -20 8 -20 19v72c0 11 9 19 20 19h324c11 0 20 -8 20 -19v-72z" />
    <glyph glyph-name="breve" unicode="&#x2d8;" horiz-adv-x="443" 
d="M408 772c0 -1 -1 -2 -1 -4c-19 -80 -77 -145 -185 -145s-166 65 -185 145c0 2 -1 3 -1 4c0 5 4 7 10 7h87c8 0 11 -4 13 -12c11 -42 39 -57 76 -57s65 15 76 57c2 8 3 12 13 12h87c6 0 10 -2 10 -7z" />
    <glyph glyph-name="dotaccent" unicode="&#x2d9;" horiz-adv-x="443" 
d="M306 658c0 -11 -9 -20 -20 -20h-130c-11 0 -20 9 -20 20v93c0 11 9 20 20 20h130c11 0 20 -9 20 -20v-93z" />
    <glyph glyph-name="dieresis" unicode="&#xa8;" horiz-adv-x="443" 
d="M399 658c0 -11 -11 -20 -22 -20h-94c-11 0 -21 9 -21 20v93c0 11 10 20 21 20h94c11 0 22 -9 22 -20v-93zM182 658c0 -11 -10 -20 -21 -20h-94c-11 0 -22 9 -22 20v93c0 11 11 20 22 20h94c11 0 21 -9 21 -20v-93z" />
    <glyph glyph-name="ring" unicode="&#x2da;" horiz-adv-x="443" 
d="M339 711c0 -65 -52 -117 -117 -117s-117 52 -117 117s52 117 117 117s117 -52 117 -117zM266 711c0 24 -20 44 -44 44s-44 -20 -44 -44s20 -44 44 -44s44 20 44 44z" />
    <glyph glyph-name="cedilla" unicode="&#xb8;" horiz-adv-x="426" 
d="M324 -45c0 -2 -1 -5 -4 -8l-127 -130c-8 -8 -11 -12 -24 -12h-107c-6 0 -9 3 -9 7c0 3 1 6 4 10l97 125c9 11 13 15 27 15h132c7 0 11 -3 11 -7z" />
    <glyph glyph-name="hungarumlaut" unicode="&#x2dd;" horiz-adv-x="443" 
d="M487 772c0 -2 -1 -5 -4 -8l-122 -122c-8 -8 -12 -12 -25 -12h-107c-6 0 -9 3 -9 7c0 3 1 6 4 10l93 117c9 11 13 15 27 15h132c7 0 11 -3 11 -7zM254 772c0 -2 -1 -5 -4 -8l-122 -122c-8 -8 -12 -12 -25 -12h-107c-6 0 -9 3 -9 7c0 3 1 6 4 10l93 117c9 11 13 15 27 15
h132c7 0 11 -3 11 -7z" />
    <glyph glyph-name="ogonek" unicode="&#x2db;" horiz-adv-x="426" 
d="M333 -165v-1c0 -7 -1 -10 -11 -15c-14 -6 -63 -20 -118 -20c-68 0 -135 23 -135 97c0 47 19 76 71 106l48 28c6 4 15 7 29 7h98c11 0 12 -9 4 -15l-78 -52c-14 -9 -26 -17 -26 -30c0 -20 12 -27 41 -27c25 0 56 9 67 9c9 0 10 -2 10 -12v-75z" />
    <glyph glyph-name="caron" unicode="&#x2c7;" horiz-adv-x="443" 
d="M421 772c0 -3 -1 -6 -4 -10l-89 -117c-9 -11 -13 -15 -27 -15h-160c-14 0 -18 3 -27 15l-88 117c-3 4 -4 7 -4 10c0 4 3 7 9 7h103c13 0 16 -3 24 -12l63 -70l64 70c8 9 11 12 24 12h103c6 0 9 -3 9 -7z" />
    <glyph glyph-name="emdash" unicode="&#x2014;" horiz-adv-x="599" 
d="M614 251c0 -11 -9 -19 -20 -19h-590c-11 0 -19 8 -19 19v79c0 11 8 20 19 20h590c11 0 20 -9 20 -20v-79z" />
    <glyph glyph-name="AE" unicode="&#xc6;" horiz-adv-x="923" 
d="M867 25c0 -13 -6 -19 -20 -21c-35 -5 -61 -13 -169 -13c-123 0 -232 30 -242 191h-204l-36 -164c-2 -10 -10 -18 -20 -18h-140c-10 0 -17 6 -17 16c0 1 1 3 1 5l149 620c23 96 97 102 166 102h512c14 0 20 -7 20 -20v-97c0 -11 -9 -20 -20 -20h-242v-159h234
c11 0 20 -9 20 -20v-95c0 -11 -9 -20 -20 -20h-234v-106c0 -52 17 -68 64 -68h178c11 0 20 -9 20 -20v-93zM435 319v291h-100c-9 0 -12 -5 -14 -15l-61 -276h175z" />
    <glyph glyph-name="ordfeminine" unicode="&#xaa;" horiz-adv-x="357" 
d="M320 418c0 -8 -1 -14 -8 -16c-41 -11 -85 -16 -128 -16c-103 0 -151 35 -151 111v7c0 73 62 99 159 99h22v13c0 36 -9 45 -42 45c-25 0 -80 -3 -100 -5h-1c-7 0 -13 6 -13 14v50c0 8 6 13 14 15c20 6 62 15 100 15c88 0 148 -32 148 -134v-198zM214 464v80h-22
c-39 0 -58 -11 -58 -40v-7c0 -28 16 -36 50 -36c13 0 22 2 30 3z" />
    <glyph glyph-name="Lslash" unicode="&#x141;" horiz-adv-x="519" 
d="M497 25c0 -13 -6 -18 -20 -21c-33 -7 -110 -13 -163 -13c-129 0 -244 33 -244 215v11l-38 -38c-3 -3 -5 -4 -7 -4c-3 0 -5 2 -5 6v139v3c0 8 0 10 9 19l41 41v340c0 11 9 20 20 20h130c11 0 20 -9 20 -20v-173l70 68c2 2 5 3 8 3c4 0 8 -3 8 -8v-135c0 -8 0 -12 -7 -18
l-79 -77v-177c0 -52 17 -68 64 -68h173c11 0 20 -9 20 -20v-93z" />
    <glyph glyph-name="Oslash" unicode="&#xd8;" horiz-adv-x="698" 
d="M677 739c0 -3 -1 -5 -3 -8l-75 -103c29 -49 46 -114 46 -197v-119c0 -232 -131 -321 -296 -321c-66 0 -125 15 -174 46l-19 -27c-6 -8 -16 -19 -26 -19h-97c-7 0 -11 5 -11 11c0 3 1 5 3 8l75 104c-29 49 -47 114 -47 198v119c0 232 131 321 296 321
c66 0 127 -14 176 -46l18 25c6 8 16 19 26 19h97c7 0 11 -5 11 -11zM431 575c-20 18 -48 27 -82 27c-84 0 -123 -51 -123 -171v-119c0 -7 1 -14 1 -21zM473 444v7l-204 -284c20 -18 46 -26 80 -26c84 0 124 51 124 171v119v13z" />
    <glyph glyph-name="OE" unicode="&#x152;" horiz-adv-x="987" 
d="M931 25c0 -13 -6 -19 -20 -21c-35 -5 -86 -13 -194 -13c-72 0 -140 10 -185 51c-50 -36 -114 -51 -183 -51c-165 0 -296 89 -296 321v119c0 232 131 321 296 321c70 0 133 -16 183 -52c46 41 114 51 186 51c108 0 158 -8 193 -13c14 -2 20 -7 20 -20v-93
c0 -11 -9 -20 -20 -20h-203c-47 0 -64 -16 -64 -68v-72c0 -6 1 -12 1 -18h258c11 0 20 -9 20 -20v-95c0 -11 -9 -20 -20 -20h-258c0 -12 -1 -23 -1 -34v-72c0 -52 17 -68 64 -68h203c11 0 20 -9 20 -20v-93zM473 312v119c0 120 -40 171 -124 171s-123 -51 -123 -171v-119
c0 -120 39 -171 123 -171s124 51 124 171z" />
    <glyph glyph-name="ordmasculine" unicode="&#xba;" horiz-adv-x="380" 
d="M347 551c0 -111 -57 -165 -156 -165s-157 54 -157 165v33c0 111 58 166 157 166s156 -55 156 -166v-33zM240 551v33c0 55 -15 76 -49 76s-51 -21 -51 -76v-33c0 -55 17 -76 51 -76s49 21 49 76z" />
    <glyph glyph-name="ae" unicode="&#xe6;" horiz-adv-x="881" 
d="M835 265c0 -11 -10 -21 -21 -21h-310v-41c0 -57 43 -77 116 -77c38 0 135 4 173 8h5c10 0 16 -4 16 -16v-72c0 -15 -4 -21 -19 -26c-56 -19 -133 -29 -198 -29c-57 0 -106 16 -141 46c-53 -29 -125 -46 -195 -46c-113 0 -219 49 -219 181v11c0 117 98 158 259 158h42v9
c0 74 -21 96 -78 96c-62 0 -136 -4 -163 -7h-3c-10 0 -17 7 -17 18v79c0 11 8 21 20 24c34 9 103 21 163 21c74 0 131 -21 170 -60c40 38 89 60 158 60c169 0 242 -104 242 -252v-64zM680 332v18c0 65 -25 106 -88 106c-61 0 -88 -41 -88 -106v-18h176zM348 119v134h-47
c-70 0 -105 -18 -105 -70v-11c0 -49 38 -66 79 -66c26 0 53 4 73 13z" />
    <glyph glyph-name="dotlessi" unicode="&#x131;" horiz-adv-x="290" 
d="M226 21c0 -11 -10 -21 -21 -21h-120c-11 0 -21 10 -21 21v531c0 11 10 21 21 21h120c11 0 21 -10 21 -21v-531z" />
    <glyph glyph-name="lslash" unicode="&#x142;" horiz-adv-x="282" 
d="M294 478c0 -8 0 -12 -7 -18l-64 -63v-376c0 -11 -9 -21 -20 -21h-122c-11 0 -21 10 -21 21v216l-59 -58c-3 -3 -5 -4 -7 -4c-3 0 -5 2 -5 6v139v3c0 8 0 10 9 19l62 62v343c0 11 10 20 21 20h122c11 0 20 -9 20 -20v-183l55 54c2 2 5 3 7 3c5 0 9 -3 9 -8v-135z" />
    <glyph glyph-name="oslash" unicode="&#xf8;" horiz-adv-x="589" 
d="M559 598c0 -3 -1 -8 -4 -11l-65 -87c36 -44 55 -106 55 -179v-70c0 -159 -88 -260 -250 -260c-61 0 -111 14 -150 40l-42 -56c-7 -9 -10 -10 -16 -10h-50c-6 0 -8 3 -8 8c0 3 1 7 4 11l66 89c-36 44 -55 105 -55 178v70c0 159 89 260 251 260c60 0 111 -14 150 -40l40 55
c7 9 10 10 16 10h50c6 0 8 -3 8 -8zM355 420c-15 15 -35 23 -60 23c-58 0 -90 -41 -90 -122v-70c0 -11 1 -22 2 -32zM384 251v70c0 11 -1 22 -2 32l-148 -201c15 -16 35 -24 61 -24c58 0 89 42 89 123z" />
    <glyph glyph-name="oe" unicode="&#x153;" horiz-adv-x="932" 
d="M887 260c0 -15 -8 -24 -21 -24h-319v-5v-3c2 -55 27 -103 103 -103c63 0 152 5 192 9h3c11 0 19 -5 19 -16v-76c0 -16 -4 -23 -21 -27c-64 -16 -118 -24 -205 -24c-59 0 -125 17 -171 65c-42 -42 -99 -65 -171 -65c-162 0 -251 101 -251 260v70c0 159 89 260 251 260
c73 0 130 -26 172 -67c42 43 101 67 172 67c164 0 247 -112 247 -263v-58zM729 336v4c0 74 -34 111 -90 111c-54 0 -92 -37 -92 -108v-7h182zM385 251v70c0 81 -31 122 -89 122s-89 -41 -89 -122v-70c0 -81 31 -123 89 -123s89 42 89 123z" />
    <glyph glyph-name="germandbls" unicode="&#xdf;" horiz-adv-x="652" 
d="M598 225c0 -159 -115 -234 -243 -234c-17 0 -40 2 -61 6c-11 2 -20 8 -20 19v96c0 7 3 16 11 16h1c12 -1 25 -1 37 -1c61 0 112 20 112 98v21c0 51 -31 88 -107 88h-31c-11 0 -20 8 -20 19v79c0 11 9 19 20 19h31c74 0 98 40 98 83v19c0 46 -27 82 -97 82
c-87 0 -109 -51 -109 -120v-494c0 -11 -8 -21 -19 -21h-124c-11 0 -20 10 -20 21v494c0 177 95 259 272 259c166 0 259 -80 259 -221v-19c0 -61 -44 -116 -91 -137c64 -27 101 -83 101 -151v-21z" />
    <glyph glyph-name="logicalnot" unicode="&#xac;" 
d="M552 198c0 -11 -8 -20 -19 -20h-85c-11 0 -18 9 -18 20v261h-317c-11 0 -20 5 -20 16v89c0 11 9 16 20 16h420c11 0 19 -6 19 -16v-366z" />
    <glyph glyph-name="mu" unicode="&#xb5;" horiz-adv-x="612" 
d="M552 49c0 -14 -7 -23 -31 -31c-45 -15 -118 -27 -211 -27c-33 0 -63 3 -89 9v-171c0 -11 -9 -20 -20 -20h-122c-11 0 -20 9 -20 20v722c0 11 10 22 21 22h121c11 0 21 -11 21 -22v-332c0 -69 26 -95 88 -95c32 0 60 2 80 7v420c0 11 9 22 20 22h121c11 0 21 -11 21 -22
v-502z" />
    <glyph glyph-name="trademark" unicode="&#x2122;" horiz-adv-x="830" 
d="M791 349c0 -6 -5 -10 -11 -10h-78c-6 0 -11 4 -11 10v242c0 57 -14 66 -70 66v-308c0 -6 -5 -10 -11 -10h-79c-6 0 -10 4 -10 10v308c-27 0 -49 -2 -70 -4v-304c0 -6 -4 -10 -10 -10h-78c-6 0 -11 4 -11 10v355c0 25 7 32 28 34c71 7 134 9 190 9c141 0 221 -16 221 -156
v-242zM320 673c0 -8 -6 -13 -13 -13h-82v-308c0 -7 -6 -13 -13 -13h-77c-7 0 -13 6 -13 13v308h-84c-7 0 -13 5 -13 13v57c0 7 6 13 13 13h269c7 0 13 -6 13 -13v-57z" />
    <glyph glyph-name="Eth" unicode="&#xd0;" horiz-adv-x="682" 
d="M631 321c0 -236 -130 -330 -319 -330c-99 0 -166 7 -217 16c-19 3 -29 12 -29 35v270h-55c-11 0 -19 8 -19 19v97c0 11 8 19 19 19h55v254c0 23 10 32 29 35c52 9 118 16 217 16c189 0 319 -93 319 -330v-101zM457 321v101c0 142 -52 182 -145 182c-19 0 -59 -1 -74 -2
v-155h61c11 0 19 -8 19 -19v-97c0 -11 -8 -19 -19 -19h-61v-172c15 -1 55 -1 74 -1c93 0 145 41 145 182z" />
    <glyph glyph-name="onehalf" unicode="&#xbd;" horiz-adv-x="804" 
d="M40 706l88 40c4 2 8 3 14 3h49c13 0 15 -8 15 -17v-380c0 -13 -5 -17 -15 -17h-71c-9 0 -17 4 -17 17v290l-53 -23c-14 -5 -20 -1 -20 12v62c0 5 3 10 10 13zM636 735c0 -4 -1 -8 -4 -12l-416 -702c-8 -14 -12 -21 -23 -21h-103c-7 0 -11 4 -11 11c0 3 1 6 3 10l416 702
c9 15 14 20 25 20h103c7 0 10 -3 10 -8zM570 214l50 36c43 31 52 34 52 57c0 19 -11 26 -51 26c-32 0 -72 -3 -106 -7c-10 0 -17 8 -17 17v42c0 9 7 14 14 17c31 9 77 17 117 17c103 0 145 -37 145 -109c0 -47 -24 -78 -66 -107l-45 -31c-47 -32 -74 -51 -76 -84h165
c9 0 17 -5 17 -15v-56c0 -9 -8 -17 -17 -17h-241c-9 0 -17 8 -17 17v55c0 62 33 111 76 142z" />
    <glyph glyph-name="plusminus" unicode="&#xb1;" 
d="M558 346c0 -11 -9 -16 -20 -16h-155v-154c0 -11 -5 -20 -16 -20h-90c-11 0 -16 9 -16 20v154h-154c-11 0 -20 5 -20 16v90c0 11 9 16 20 16h154v155c0 11 5 20 16 20h90c11 0 16 -9 16 -20v-155h155c11 0 20 -5 20 -16v-90zM558 -4c0 -11 -9 -16 -20 -16h-431
c-11 0 -20 5 -20 16v71c0 11 9 16 20 16h431c11 0 20 -5 20 -16v-71z" />
    <glyph glyph-name="Thorn" unicode="&#xde;" horiz-adv-x="651" 
d="M618 414c0 -191 -151 -245 -301 -245c-26 0 -50 1 -78 2v-151c0 -11 -8 -20 -19 -20h-131c-11 0 -19 9 -19 20v704c0 11 8 19 19 19h131c11 0 19 -8 19 -19v-59c11 1 51 1 74 1c154 0 305 -53 305 -241v-11zM447 414v11c0 71 -46 97 -130 97c-14 0 -68 0 -78 -1v-207
c10 -1 67 -1 78 -1c86 0 130 30 130 101z" />
    <glyph glyph-name="onequarter" unicode="&#xbc;" horiz-adv-x="772" 
d="M40 706l88 40c4 2 8 3 14 3h49c13 0 15 -8 15 -17v-380c0 -13 -5 -17 -15 -17h-71c-9 0 -17 4 -17 17v290l-53 -23c-14 -5 -20 -1 -20 12v62c0 5 3 10 10 13zM636 735c0 -4 -1 -8 -4 -12l-416 -702c-8 -14 -12 -21 -23 -21h-103c-7 0 -11 4 -11 11c0 3 1 6 3 10l416 702
c9 15 14 20 25 20h103c7 0 10 -3 10 -8zM742 107c0 -9 -8 -17 -16 -17h-30v-73c0 -9 -6 -17 -16 -17h-72c-10 0 -16 8 -16 17v73h-151c-8 0 -16 8 -16 17v52c0 6 3 15 7 21l171 224c5 6 10 10 18 10h58c9 0 17 -8 17 -17v-224h30c8 0 16 -6 16 -17v-49zM595 173v103
l-76 -103h76z" />
    <glyph glyph-name="divide" unicode="&#xf7;" 
d="M401 552c0 -11 -9 -20 -20 -20h-118c-11 0 -20 9 -20 20v112c0 11 9 20 20 20h118c11 0 20 -9 20 -20v-112zM552 346c0 -11 -9 -16 -20 -16h-419c-11 0 -20 5 -20 16v90c0 11 9 16 20 16h419c11 0 20 -5 20 -16v-90zM401 104c0 -11 -9 -19 -20 -19h-118
c-11 0 -20 8 -20 19v112c0 11 9 20 20 20h118c11 0 20 -9 20 -20v-112z" />
    <glyph glyph-name="brokenbar" unicode="&#xa6;" horiz-adv-x="290" 
d="M227 363c0 -11 -9 -21 -20 -21h-123c-11 0 -21 10 -21 21v345c0 11 10 20 21 20h123c11 0 20 -9 20 -20v-345zM227 -190c0 -11 -9 -21 -20 -21h-123c-11 0 -21 10 -21 21v345c0 11 10 20 21 20h123c11 0 20 -9 20 -20v-345z" />
    <glyph glyph-name="degree" unicode="&#xb0;" horiz-adv-x="361" 
d="M334 598c0 -85 -68 -154 -153 -154c-84 0 -154 69 -154 154s70 154 154 154c85 0 153 -69 153 -154zM253 598c0 40 -33 73 -72 73s-72 -33 -72 -73c0 -39 32 -72 72 -72s72 33 72 72z" />
    <glyph glyph-name="thorn" unicode="&#xfe;" horiz-adv-x="597" 
d="M555 249c0 -159 -83 -258 -250 -258c-21 0 -61 5 -83 10v-176c0 -11 -8 -20 -19 -20h-122c-11 0 -21 9 -21 20v922c0 11 8 20 19 20h124c11 0 19 -9 19 -20v-171c25 3 55 5 83 5c156 0 250 -93 250 -258v-74zM393 249v74c0 75 -23 124 -88 124c-33 0 -58 -3 -83 -6v-311
c23 -3 55 -6 83 -6c64 0 88 50 88 125z" />
    <glyph glyph-name="threequarters" unicode="&#xbe;" horiz-adv-x="835" 
d="M699 735c0 -4 -1 -8 -4 -12l-416 -702c-8 -14 -12 -21 -23 -21h-103c-7 0 -11 4 -11 11c0 3 1 6 3 10l416 702c9 15 14 20 25 20h103c7 0 10 -3 10 -8zM805 107c0 -9 -8 -17 -16 -17h-30v-73c0 -9 -6 -17 -16 -17h-72c-10 0 -16 8 -16 17v73h-151c-8 0 -16 8 -16 17v52
c0 6 3 15 7 21l171 224c5 6 10 10 18 10h58c9 0 17 -8 17 -17v-224h30c8 0 16 -6 16 -17v-49zM658 173v103l-76 -103h76zM306 456c0 -88 -59 -126 -147 -126c-43 0 -85 7 -114 15c-8 3 -15 7 -15 17v43c0 10 4 16 17 16c38 -3 85 -5 108 -5c35 0 47 13 47 40v10
c0 20 -6 40 -37 40h-95c-10 0 -16 8 -16 17v46c0 10 6 16 16 16h93c30 0 39 20 39 41v8c0 20 -9 34 -47 34c-23 0 -62 -1 -97 -6c-13 -2 -26 -3 -26 15v43c0 10 7 14 15 17c28 8 68 17 112 17c92 0 147 -33 147 -117v-8c0 -30 -17 -64 -43 -83c28 -17 43 -47 43 -80v-10z
" />
    <glyph glyph-name="registered" unicode="&#xae;" horiz-adv-x="598" 
d="M579 484c0 -154 -126 -279 -280 -279s-279 125 -279 279s125 279 279 279s280 -125 280 -279zM528 484c0 126 -103 229 -229 229s-228 -103 -228 -229s102 -229 228 -229s229 103 229 229zM437 330c0 -5 -4 -10 -10 -10h-67c-5 0 -8 4 -10 8l-63 111c-2 0 -6 6 -8 6h-26
v-114c0 -6 -5 -11 -11 -11h-60c-6 0 -11 5 -11 11v294c0 21 6 27 25 30c15 2 62 5 89 5c87 0 140 -27 140 -108v-7c0 -47 -25 -73 -59 -87l69 -121c1 -2 2 -4 2 -7zM346 545v7c0 27 -15 39 -54 39h-41v-85c5 0 37 -1 41 -1c39 0 54 14 54 40z" />
    <glyph glyph-name="minus" unicode="&#x2212;" 
d="M558 346c0 -11 -9 -16 -20 -16h-431c-11 0 -20 5 -20 16v90c0 11 9 16 20 16h431c11 0 20 -5 20 -16v-90z" />
    <glyph glyph-name="eth" unicode="&#xf0;" horiz-adv-x="589" 
d="M545 259c0 -179 -89 -268 -249 -268c-168 0 -252 97 -252 268v31c0 179 91 267 251 267c15 0 35 -1 50 -9c-22 28 -63 57 -112 81l-71 -54c-5 -4 -9 -6 -13 -6c-3 0 -7 1 -11 6l-27 30c-2 2 -3 5 -3 8c0 5 4 12 10 16l41 31c-16 5 -33 11 -49 15c-8 2 -16 6 -16 14
c0 2 0 4 1 6l25 68c3 9 8 11 14 11c2 0 5 0 8 -1c42 -10 80 -23 116 -37l79 60c4 3 8 4 13 4c4 0 9 -1 12 -5l27 -29c3 -3 4 -5 4 -8c0 -5 -4 -9 -10 -14l-53 -41c143 -78 215 -200 215 -413v-31zM384 259v31c0 93 -27 132 -89 132s-90 -39 -90 -132v-31
c0 -93 29 -132 91 -132s88 39 88 132z" />
    <glyph glyph-name="multiply" unicode="&#xd7;" 
d="M537 255c0 -3 -2 -7 -5 -10l-63 -63c-3 -3 -7 -5 -10 -5c-6 0 -11 3 -16 8l-120 120l-120 -120c-5 -5 -10 -8 -15 -8c-3 0 -7 2 -10 5l-64 64c-3 3 -5 7 -5 10c0 5 3 10 8 15l120 120l-120 120c-5 5 -8 10 -8 15c0 3 2 7 5 10l64 64c3 3 7 5 10 5c5 0 10 -3 15 -8
l120 -120l120 120c5 5 10 8 16 8c3 0 7 -2 10 -5l63 -63c3 -3 5 -7 5 -10c0 -6 -3 -11 -8 -16l-120 -120l120 -120c5 -5 8 -10 8 -16z" />
    <glyph glyph-name="copyright" unicode="&#xa9;" horiz-adv-x="750" 
d="M708 374c0 -184 -150 -332 -334 -332s-332 148 -332 332s148 335 332 335s334 -151 334 -335zM656 374c0 155 -127 283 -282 283s-281 -128 -281 -283s126 -280 281 -280s282 125 282 280zM477 183c0 -8 -4 -12 -13 -14c-17 -5 -44 -9 -82 -9c-107 0 -170 60 -170 189v56
c0 130 63 189 170 189c38 0 66 -6 82 -10c9 -2 13 -4 13 -12v-63c0 -9 -5 -12 -12 -12h-2c-23 3 -42 5 -81 5c-35 0 -67 -18 -67 -97v-56c0 -81 32 -98 67 -98c34 0 58 2 81 5h3c6 0 11 -2 11 -11v-62z" />
    <glyph glyph-name="Aacute" unicode="&#xc1;" horiz-adv-x="669" 
d="M650 16c0 -10 -7 -16 -17 -16h-140c-10 0 -18 8 -20 18l-36 164h-205l-36 -164c-2 -10 -10 -18 -20 -18h-140c-10 0 -17 6 -17 16c0 1 1 3 1 5l149 620c23 96 97 111 166 111s142 -15 165 -111l149 -620c0 -2 1 -4 1 -5zM409 319l-61 276c-2 10 -4 15 -13 15
s-12 -5 -14 -15l-61 -276h149zM497 936c0 -2 -1 -5 -4 -8l-122 -122c-8 -8 -11 -12 -24 -12h-107c-6 0 -9 3 -9 7c0 3 1 6 4 10l93 117c9 11 13 15 27 15h131c7 0 11 -3 11 -7z" />
    <glyph glyph-name="Acircumflex" unicode="&#xc2;" horiz-adv-x="669" 
d="M650 16c0 -10 -7 -16 -17 -16h-140c-10 0 -18 8 -20 18l-36 164h-205l-36 -164c-2 -10 -10 -18 -20 -18h-140c-10 0 -17 6 -17 16c0 1 1 3 1 5l149 620c23 96 97 111 166 111s142 -15 165 -111l149 -620c0 -2 1 -4 1 -5zM409 319l-61 276c-2 10 -4 15 -13 15
s-12 -5 -14 -15l-61 -276h149zM534 802c0 -4 -3 -7 -9 -7h-103c-13 0 -16 3 -24 12l-63 70l-64 -70c-8 -9 -11 -12 -24 -12h-103c-6 0 -9 3 -9 7c0 3 1 6 4 10l89 117c9 11 13 15 27 15h160c14 0 18 -3 27 -15l88 -117c3 -4 4 -7 4 -10z" />
    <glyph glyph-name="Adieresis" unicode="&#xc4;" horiz-adv-x="669" 
d="M650 16c0 -10 -7 -16 -17 -16h-140c-10 0 -18 8 -20 18l-36 164h-205l-36 -164c-2 -10 -10 -18 -20 -18h-140c-10 0 -17 6 -17 16c0 1 1 3 1 5l149 620c23 96 97 111 166 111s142 -15 165 -111l149 -620c0 -2 1 -4 1 -5zM409 319l-61 276c-2 10 -4 15 -13 15
s-12 -5 -14 -15l-61 -276h149zM511 821c0 -11 -11 -20 -22 -20h-94c-11 0 -21 9 -21 20v93c0 11 10 20 21 20h94c11 0 22 -9 22 -20v-93zM294 821c0 -11 -10 -20 -21 -20h-94c-11 0 -22 9 -22 20v93c0 11 11 20 22 20h94c11 0 21 -9 21 -20v-93z" />
    <glyph glyph-name="Agrave" unicode="&#xc0;" horiz-adv-x="669" 
d="M650 16c0 -10 -7 -16 -17 -16h-140c-10 0 -18 8 -20 18l-36 164h-205l-36 -164c-2 -10 -10 -18 -20 -18h-140c-10 0 -17 6 -17 16c0 1 1 3 1 5l149 620c23 96 97 111 166 111s142 -15 165 -111l149 -620c0 -2 1 -4 1 -5zM409 319l-61 276c-2 10 -4 15 -13 15
s-12 -5 -14 -15l-61 -276h149zM453 801c0 -4 -3 -7 -9 -7h-107c-13 0 -16 4 -24 12l-122 122c-3 3 -4 6 -4 8c0 4 4 7 11 7h132c14 0 18 -4 27 -15l92 -117c3 -4 4 -7 4 -10z" />
    <glyph glyph-name="Aring" unicode="&#xc5;" horiz-adv-x="669" 
d="M650 16c0 -10 -7 -16 -17 -16h-140c-10 0 -18 8 -20 18l-36 164h-205l-36 -164c-2 -10 -10 -18 -20 -18h-140c-10 0 -17 6 -17 16c0 1 1 3 1 5l149 620c23 96 97 111 166 111s142 -15 165 -111l149 -620c0 -2 1 -4 1 -5zM409 319l-61 276c-2 10 -4 15 -13 15
s-12 -5 -14 -15l-61 -276h149zM451 895c0 -65 -52 -117 -117 -117s-117 52 -117 117s52 117 117 117s117 -52 117 -117zM378 895c0 24 -20 44 -44 44s-44 -20 -44 -44s20 -44 44 -44s44 20 44 44z" />
    <glyph glyph-name="Atilde" unicode="&#xc3;" horiz-adv-x="669" 
d="M650 16c0 -10 -7 -16 -17 -16h-140c-10 0 -18 8 -20 18l-36 164h-205l-36 -164c-2 -10 -10 -18 -20 -18h-140c-10 0 -17 6 -17 16c0 1 1 3 1 5l149 620c23 96 97 111 166 111s142 -15 165 -111l149 -620c0 -2 1 -4 1 -5zM409 319l-61 276c-2 10 -4 15 -13 15
s-12 -5 -14 -15l-61 -276h149zM535 907c0 -88 -47 -120 -122 -120c-20 0 -50 8 -71 22l-42 29c-17 12 -30 18 -41 18c-13 0 -23 -6 -23 -27v-19c0 -11 -5 -17 -15 -17h-71c-10 0 -15 6 -15 17v19c0 86 48 119 123 119c20 0 49 -7 70 -21l43 -28c17 -11 29 -18 40 -18
c15 0 23 6 23 27v19c0 11 6 16 16 16h70c10 0 15 -5 15 -16v-20z" />
    <glyph glyph-name="Ccedilla" unicode="&#xc7;" horiz-adv-x="561" 
d="M520 31c0 -14 -8 -19 -22 -23c-21 -7 -79 -17 -149 -17c-152 0 -296 80 -296 318v126c0 238 144 317 296 317c70 0 128 -10 149 -17c14 -4 22 -8 22 -22v-97c0 -12 -6 -20 -19 -20h-3c-38 3 -93 8 -148 8c-69 0 -124 -36 -124 -169v-126c0 -133 55 -169 124 -169
c55 0 110 5 148 8h3c13 0 19 -8 19 -20v-97zM430 -42c0 -2 -1 -5 -4 -8l-123 -122c-8 -8 -11 -12 -24 -12h-107c-6 0 -9 3 -9 7c0 3 1 6 4 10l93 117c9 11 13 15 27 15h132c6 0 11 -3 11 -7z" />
    <glyph glyph-name="Eacute" unicode="&#xc9;" horiz-adv-x="580" 
d="M524 25c0 -13 -6 -19 -20 -21c-35 -5 -86 -13 -194 -13c-129 0 -243 33 -243 215v332c0 182 115 214 244 214c108 0 158 -8 193 -13c14 -2 20 -7 20 -20v-93c0 -11 -9 -20 -20 -20h-203c-47 0 -64 -16 -64 -68v-91h259c11 0 20 -9 20 -20v-95c0 -11 -9 -20 -20 -20h-259
v-106c0 -52 17 -68 64 -68h203c11 0 20 -9 20 -20v-93zM477 937c0 -2 -1 -5 -4 -8l-122 -122c-8 -8 -11 -12 -24 -12h-107c-6 0 -9 3 -9 7c0 3 1 6 4 10l93 117c9 11 13 15 27 15h131c7 0 11 -3 11 -7z" />
    <glyph glyph-name="Ecircumflex" unicode="&#xca;" horiz-adv-x="580" 
d="M524 25c0 -13 -6 -19 -20 -21c-35 -5 -86 -13 -194 -13c-129 0 -243 33 -243 215v332c0 182 115 214 244 214c108 0 158 -8 193 -13c14 -2 20 -7 20 -20v-93c0 -11 -9 -20 -20 -20h-203c-47 0 -64 -16 -64 -68v-91h259c11 0 20 -9 20 -20v-95c0 -11 -9 -20 -20 -20h-259
v-106c0 -52 17 -68 64 -68h203c11 0 20 -9 20 -20v-93zM509 802c0 -4 -3 -7 -9 -7h-103c-13 0 -16 3 -24 12l-63 70l-64 -70c-8 -9 -11 -12 -24 -12h-103c-6 0 -9 3 -9 7c0 3 1 6 4 10l89 117c9 11 13 15 27 15h160c14 0 18 -3 27 -15l88 -117c3 -4 4 -7 4 -10z" />
    <glyph glyph-name="Edieresis" unicode="&#xcb;" horiz-adv-x="580" 
d="M524 25c0 -13 -6 -19 -20 -21c-35 -5 -86 -13 -194 -13c-129 0 -243 33 -243 215v332c0 182 115 214 244 214c108 0 158 -8 193 -13c14 -2 20 -7 20 -20v-93c0 -11 -9 -20 -20 -20h-203c-47 0 -64 -16 -64 -68v-91h259c11 0 20 -9 20 -20v-95c0 -11 -9 -20 -20 -20h-259
v-106c0 -52 17 -68 64 -68h203c11 0 20 -9 20 -20v-93zM470 821c0 -11 -11 -20 -22 -20h-94c-11 0 -21 9 -21 20v93c0 11 10 20 21 20h94c11 0 22 -9 22 -20v-93zM253 821c0 -11 -10 -20 -21 -20h-94c-11 0 -22 9 -22 20v93c0 11 11 20 22 20h94c11 0 21 -9 21 -20v-93z" />
    <glyph glyph-name="Egrave" unicode="&#xc8;" horiz-adv-x="580" 
d="M524 25c0 -13 -6 -19 -20 -21c-35 -5 -86 -13 -194 -13c-129 0 -243 33 -243 215v332c0 182 115 214 244 214c108 0 158 -8 193 -13c14 -2 20 -7 20 -20v-93c0 -11 -9 -20 -20 -20h-203c-47 0 -64 -16 -64 -68v-91h259c11 0 20 -9 20 -20v-95c0 -11 -9 -20 -20 -20h-259
v-106c0 -52 17 -68 64 -68h203c11 0 20 -9 20 -20v-93zM394 802c0 -4 -3 -7 -9 -7h-107c-13 0 -16 4 -24 12l-122 122c-3 3 -4 6 -4 8c0 4 4 7 11 7h132c14 0 18 -4 27 -15l92 -117c3 -4 4 -7 4 -10z" />
    <glyph glyph-name="Iacute" unicode="&#xcd;" horiz-adv-x="311" 
d="M241 20c0 -11 -8 -20 -19 -20h-134c-11 0 -18 9 -18 20v704c0 11 7 19 18 19h134c11 0 19 -8 19 -19v-704zM326 937c0 -2 -1 -5 -4 -8l-122 -122c-8 -8 -11 -12 -24 -12h-107c-6 0 -9 3 -9 7c0 3 1 6 4 10l93 117c9 11 13 15 27 15h131c7 0 11 -3 11 -7z" />
    <glyph glyph-name="Icircumflex" unicode="&#xce;" horiz-adv-x="311" 
d="M241 20c0 -11 -8 -20 -19 -20h-134c-11 0 -18 9 -18 20v704c0 11 7 19 18 19h134c11 0 19 -8 19 -19v-704zM356 801c0 -4 -3 -7 -9 -7h-103c-13 0 -16 3 -24 12l-63 70l-64 -70c-8 -9 -11 -12 -24 -12h-103c-6 0 -9 3 -9 7c0 3 1 6 4 10l89 117c9 11 13 15 27 15h160
c14 0 18 -3 27 -15l88 -117c3 -4 4 -7 4 -10z" />
    <glyph glyph-name="Idieresis" unicode="&#xcf;" horiz-adv-x="311" 
d="M241 20c0 -11 -8 -20 -19 -20h-134c-11 0 -18 9 -18 20v704c0 11 7 19 18 19h134c11 0 19 -8 19 -19v-704zM332 821c0 -11 -11 -20 -22 -20h-94c-11 0 -21 9 -21 20v93c0 11 10 20 21 20h94c11 0 22 -9 22 -20v-93zM115 821c0 -11 -10 -20 -21 -20h-94
c-11 0 -22 9 -22 20v93c0 11 11 20 22 20h94c11 0 21 -9 21 -20v-93z" />
    <glyph glyph-name="Igrave" unicode="&#xcc;" horiz-adv-x="311" 
d="M241 20c0 -11 -8 -20 -19 -20h-134c-11 0 -18 9 -18 20v704c0 11 7 19 18 19h134c11 0 19 -8 19 -19v-704zM254 802c0 -4 -3 -7 -9 -7h-107c-13 0 -16 4 -24 12l-122 122c-3 3 -4 6 -4 8c0 4 4 7 11 7h132c14 0 18 -4 27 -15l92 -117c3 -4 4 -7 4 -10z" />
    <glyph glyph-name="Ntilde" unicode="&#xd1;" horiz-adv-x="729" 
d="M659 38c0 -21 -18 -38 -39 -38h-98c-21 0 -36 4 -52 31l-228 394c-4 6 -6 8 -9 8s-5 -2 -5 -8v-405c0 -11 -9 -20 -20 -20h-118c-11 0 -20 9 -20 20v685c0 21 17 38 38 38h101c20 0 30 -10 42 -31l237 -412c4 -6 5 -8 8 -8c2 0 5 2 5 9v423c0 11 9 19 20 19h118
c11 0 20 -8 20 -19v-686zM558 907c0 -88 -47 -120 -122 -120c-20 0 -50 8 -71 22l-42 29c-17 12 -30 18 -41 18c-13 0 -23 -6 -23 -27v-19c0 -11 -5 -17 -15 -17h-71c-10 0 -15 6 -15 17v19c0 86 48 119 123 119c20 0 49 -7 70 -21l43 -28c17 -11 29 -18 40 -18
c15 0 23 6 23 27v19c0 11 6 16 16 16h70c10 0 15 -5 15 -16v-20z" />
    <glyph glyph-name="Oacute" unicode="&#xd3;" horiz-adv-x="698" 
d="M645 312c0 -232 -131 -321 -296 -321s-296 89 -296 321v119c0 232 131 321 296 321s296 -89 296 -321v-119zM473 312v119c0 120 -40 171 -124 171s-123 -51 -123 -171v-119c0 -120 39 -171 123 -171s124 51 124 171zM514 937c0 -2 -1 -5 -4 -8l-122 -122
c-8 -8 -11 -12 -24 -12h-107c-6 0 -9 3 -9 7c0 3 1 6 4 10l93 117c9 11 13 15 27 15h131c7 0 11 -3 11 -7z" />
    <glyph glyph-name="Ocircumflex" unicode="&#xd4;" horiz-adv-x="698" 
d="M645 312c0 -232 -131 -321 -296 -321s-296 89 -296 321v119c0 232 131 321 296 321s296 -89 296 -321v-119zM473 312v119c0 120 -40 171 -124 171s-123 -51 -123 -171v-119c0 -120 39 -171 123 -171s124 51 124 171zM544 802c0 -4 -3 -7 -9 -7h-103c-13 0 -16 3 -24 12
l-63 70l-64 -70c-8 -9 -11 -12 -24 -12h-103c-6 0 -9 3 -9 7c0 3 1 6 4 10l89 117c9 11 13 15 27 15h160c14 0 18 -3 27 -15l88 -117c3 -4 4 -7 4 -10z" />
    <glyph glyph-name="Odieresis" unicode="&#xd6;" horiz-adv-x="698" 
d="M645 312c0 -232 -131 -321 -296 -321s-296 89 -296 321v119c0 232 131 321 296 321s296 -89 296 -321v-119zM473 312v119c0 120 -40 171 -124 171s-123 -51 -123 -171v-119c0 -120 39 -171 123 -171s124 51 124 171zM526 821c0 -11 -11 -20 -22 -20h-94
c-11 0 -21 9 -21 20v93c0 11 10 20 21 20h94c11 0 22 -9 22 -20v-93zM309 821c0 -11 -10 -20 -21 -20h-94c-11 0 -22 9 -22 20v93c0 11 11 20 22 20h94c11 0 21 -9 21 -20v-93z" />
    <glyph glyph-name="Ograve" unicode="&#xd2;" horiz-adv-x="698" 
d="M645 312c0 -232 -131 -321 -296 -321s-296 89 -296 321v119c0 232 131 321 296 321s296 -89 296 -321v-119zM473 312v119c0 120 -40 171 -124 171s-123 -51 -123 -171v-119c0 -120 39 -171 123 -171s124 51 124 171zM438 801c0 -4 -3 -7 -9 -7h-107c-13 0 -16 4 -24 12
l-122 122c-3 3 -4 6 -4 8c0 4 4 7 11 7h132c14 0 18 -4 27 -15l92 -117c3 -4 4 -7 4 -10z" />
    <glyph glyph-name="Otilde" unicode="&#xd5;" horiz-adv-x="698" 
d="M645 312c0 -232 -131 -321 -296 -321s-296 89 -296 321v119c0 232 131 321 296 321s296 -89 296 -321v-119zM473 312v119c0 120 -40 171 -124 171s-123 -51 -123 -171v-119c0 -120 39 -171 123 -171s124 51 124 171zM553 908c0 -88 -47 -120 -122 -120
c-20 0 -50 8 -71 22l-42 29c-17 12 -30 18 -41 18c-13 0 -23 -6 -23 -27v-19c0 -11 -5 -17 -15 -17h-71c-10 0 -15 6 -15 17v19c0 86 48 119 123 119c20 0 49 -7 70 -21l43 -28c17 -11 29 -18 40 -18c15 0 23 6 23 27v19c0 11 6 16 16 16h70c10 0 15 -5 15 -16v-20z" />
    <glyph glyph-name="Scaron" unicode="&#x160;" horiz-adv-x="588" 
d="M546 210c0 -106 -70 -219 -273 -219c-79 0 -138 9 -189 22c-10 3 -20 9 -20 20v98c0 14 8 19 18 19h3c41 -4 151 -12 190 -12c69 0 89 22 89 70c0 29 -14 45 -66 76l-138 82c-93 55 -118 118 -118 191c0 110 62 195 256 195c73 0 174 -12 212 -22c8 -2 15 -7 15 -18v-101
c0 -9 -4 -17 -17 -17h-2c-28 2 -144 11 -212 11c-57 0 -78 -17 -78 -53c0 -28 13 -41 67 -70l128 -69c104 -56 135 -122 135 -203zM483 937c0 -3 -1 -6 -4 -10l-89 -117c-9 -11 -13 -15 -27 -15h-160c-14 0 -18 3 -27 15l-88 117c-3 4 -4 7 -4 10c0 4 3 7 9 7h103
c13 0 16 -3 24 -12l63 -70l64 70c8 9 11 12 24 12h103c6 0 9 -3 9 -7z" />
    <glyph glyph-name="Uacute" unicode="&#xda;" horiz-adv-x="711" 
d="M644 279c0 -228 -130 -288 -289 -288s-288 60 -288 288v445c0 11 9 19 20 19h131c11 0 20 -8 20 -19v-445c0 -102 27 -145 117 -145s118 43 118 145v445c0 11 9 19 20 19h130c11 0 21 -8 21 -19v-445zM534 936c0 -2 -1 -5 -4 -8l-122 -122c-8 -8 -11 -12 -24 -12h-107
c-6 0 -9 3 -9 7c0 3 1 6 4 10l93 117c9 11 13 15 27 15h131c7 0 11 -3 11 -7z" />
    <glyph glyph-name="Ucircumflex" unicode="&#xdb;" horiz-adv-x="711" 
d="M644 279c0 -228 -130 -288 -289 -288s-288 60 -288 288v445c0 11 9 19 20 19h131c11 0 20 -8 20 -19v-445c0 -102 27 -145 117 -145s118 43 118 145v445c0 11 9 19 20 19h130c11 0 21 -8 21 -19v-445zM554 802c0 -4 -3 -7 -9 -7h-103c-13 0 -16 3 -24 12l-63 70l-64 -70
c-8 -9 -11 -12 -24 -12h-103c-6 0 -9 3 -9 7c0 3 1 6 4 10l89 117c9 11 13 15 27 15h160c14 0 18 -3 27 -15l88 -117c3 -4 4 -7 4 -10z" />
    <glyph glyph-name="Udieresis" unicode="&#xdc;" horiz-adv-x="711" 
d="M644 279c0 -228 -130 -288 -289 -288s-288 60 -288 288v445c0 11 9 19 20 19h131c11 0 20 -8 20 -19v-445c0 -102 27 -145 117 -145s118 43 118 145v445c0 11 9 19 20 19h130c11 0 21 -8 21 -19v-445zM532 821c0 -11 -11 -20 -22 -20h-94c-11 0 -21 9 -21 20v93
c0 11 10 20 21 20h94c11 0 22 -9 22 -20v-93zM315 821c0 -11 -10 -20 -21 -20h-94c-11 0 -22 9 -22 20v93c0 11 11 20 22 20h94c11 0 21 -9 21 -20v-93z" />
    <glyph glyph-name="Ugrave" unicode="&#xd9;" horiz-adv-x="711" 
d="M644 279c0 -228 -130 -288 -289 -288s-288 60 -288 288v445c0 11 9 19 20 19h131c11 0 20 -8 20 -19v-445c0 -102 27 -145 117 -145s118 43 118 145v445c0 11 9 19 20 19h130c11 0 21 -8 21 -19v-445zM460 801c0 -4 -3 -7 -9 -7h-107c-13 0 -16 4 -24 12l-122 122
c-3 3 -4 6 -4 8c0 4 4 7 11 7h132c14 0 18 -4 27 -15l92 -117c3 -4 4 -7 4 -10z" />
    <glyph glyph-name="Yacute" unicode="&#xdd;" horiz-adv-x="647" 
d="M626 728c0 -2 0 -5 -1 -7l-151 -346c-20 -46 -41 -67 -65 -77v-278c0 -11 -9 -20 -20 -20h-131c-11 0 -20 9 -20 20v278c-24 10 -46 31 -66 77l-151 346c-1 2 -1 5 -1 7c0 8 6 15 16 15h144c10 0 17 -8 20 -17l108 -282c5 -13 8 -15 15 -15s10 2 15 15l108 282
c3 9 10 17 20 17h144c10 0 16 -7 16 -15zM509 936c0 -2 -1 -5 -4 -8l-122 -122c-8 -8 -11 -12 -24 -12h-107c-6 0 -9 3 -9 7c0 3 1 6 4 10l93 117c9 11 13 15 27 15h131c7 0 11 -3 11 -7z" />
    <glyph glyph-name="Ydieresis" unicode="&#x178;" horiz-adv-x="647" 
d="M626 728c0 -2 0 -5 -1 -7l-151 -346c-20 -46 -41 -67 -65 -77v-278c0 -11 -9 -20 -20 -20h-131c-11 0 -20 9 -20 20v278c-24 10 -46 31 -66 77l-151 346c-1 2 -1 5 -1 7c0 8 6 15 16 15h144c10 0 17 -8 20 -17l108 -282c5 -13 8 -15 15 -15s10 2 15 15l108 282
c3 9 10 17 20 17h144c10 0 16 -7 16 -15zM500 818c0 -11 -11 -20 -22 -20h-94c-11 0 -21 9 -21 20v93c0 11 10 20 21 20h94c11 0 22 -9 22 -20v-93zM283 818c0 -11 -10 -20 -21 -20h-94c-11 0 -22 9 -22 20v93c0 11 11 20 22 20h94c11 0 21 -9 21 -20v-93z" />
    <glyph glyph-name="Zcaron" unicode="&#x17d;" horiz-adv-x="615" 
d="M565 20c0 -11 -9 -20 -20 -20h-454c-23 0 -41 9 -41 31v80c0 14 3 26 15 44l279 422c3 4 4 7 4 10c0 5 -4 8 -11 8h-249c-11 0 -20 8 -20 19v110c0 11 9 19 20 19h431c21 0 40 -9 40 -28c0 0 1 -10 1 -24c0 -27 -1 -67 -1 -67c0 -9 -3 -18 -8 -26l-282 -432
c-3 -4 -5 -8 -5 -11c0 -4 4 -7 11 -7h270c11 0 20 -7 20 -18v-110zM515 936c0 -3 -1 -6 -4 -10l-89 -117c-9 -11 -13 -15 -27 -15h-160c-14 0 -18 3 -27 15l-88 117c-3 4 -4 7 -4 10c0 4 3 7 9 7h103c13 0 16 -3 24 -12l63 -70l64 70c8 9 11 12 24 12h103c6 0 9 -3 9 -7z
" />
    <glyph glyph-name="aacute" unicode="&#xe1;" horiz-adv-x="562" 
d="M502 20c0 -11 -9 -20 -20 -20h-112c-11 0 -20 9 -20 20v16c-39 -28 -79 -45 -139 -45c-87 0 -171 42 -171 172v9c0 117 75 169 246 169h54v36c0 57 -28 69 -75 69c-64 0 -135 -4 -166 -7h-5c-10 0 -18 5 -18 18v81c0 11 7 19 19 22c37 9 107 21 173 21
c144 0 234 -58 234 -204v-357zM343 135v110h-57c-70 0 -88 -24 -88 -73v-9c0 -42 21 -50 63 -50c30 0 58 10 82 22zM465 772c0 -2 -1 -5 -4 -8l-122 -122c-8 -8 -11 -12 -24 -12h-107c-6 0 -9 3 -9 7c0 3 1 6 4 10l93 117c9 11 13 15 27 15h131c7 0 11 -3 11 -7z" />
    <glyph glyph-name="acircumflex" unicode="&#xe2;" horiz-adv-x="562" 
d="M502 20c0 -11 -9 -20 -20 -20h-112c-11 0 -20 9 -20 20v16c-39 -28 -79 -45 -139 -45c-87 0 -171 42 -171 172v9c0 117 75 169 246 169h54v36c0 57 -28 69 -75 69c-64 0 -135 -4 -166 -7h-5c-10 0 -18 5 -18 18v81c0 11 7 19 19 22c37 9 107 21 173 21
c144 0 234 -58 234 -204v-357zM343 135v110h-57c-70 0 -88 -24 -88 -73v-9c0 -42 21 -50 63 -50c30 0 58 10 82 22zM485 637c0 -4 -3 -7 -9 -7h-103c-13 0 -16 3 -24 12l-63 70l-64 -70c-8 -9 -11 -12 -24 -12h-103c-6 0 -9 3 -9 7c0 3 1 6 4 10l89 117c9 11 13 15 27 15
h160c14 0 18 -3 27 -15l88 -117c3 -4 4 -7 4 -10z" />
    <glyph glyph-name="adieresis" unicode="&#xe4;" horiz-adv-x="562" 
d="M502 20c0 -11 -9 -20 -20 -20h-112c-11 0 -20 9 -20 20v16c-39 -28 -79 -45 -139 -45c-87 0 -171 42 -171 172v9c0 117 75 169 246 169h54v36c0 57 -28 69 -75 69c-64 0 -135 -4 -166 -7h-5c-10 0 -18 5 -18 18v81c0 11 7 19 19 22c37 9 107 21 173 21
c144 0 234 -58 234 -204v-357zM343 135v110h-57c-70 0 -88 -24 -88 -73v-9c0 -42 21 -50 63 -50c30 0 58 10 82 22zM464 660c0 -11 -11 -20 -22 -20h-94c-11 0 -21 9 -21 20v93c0 11 10 20 21 20h94c11 0 22 -9 22 -20v-93zM247 660c0 -11 -10 -20 -21 -20h-94
c-11 0 -22 9 -22 20v93c0 11 11 20 22 20h94c11 0 21 -9 21 -20v-93z" />
    <glyph glyph-name="agrave" unicode="&#xe0;" horiz-adv-x="562" 
d="M502 20c0 -11 -9 -20 -20 -20h-112c-11 0 -20 9 -20 20v16c-39 -28 -79 -45 -139 -45c-87 0 -171 42 -171 172v9c0 117 75 169 246 169h54v36c0 57 -28 69 -75 69c-64 0 -135 -4 -166 -7h-5c-10 0 -18 5 -18 18v81c0 11 7 19 19 22c37 9 107 21 173 21
c144 0 234 -58 234 -204v-357zM343 135v110h-57c-70 0 -88 -24 -88 -73v-9c0 -42 21 -50 63 -50c30 0 58 10 82 22zM366 637c0 -4 -3 -7 -9 -7h-107c-13 0 -16 4 -24 12l-122 122c-3 3 -4 6 -4 8c0 4 4 7 11 7h132c14 0 18 -4 27 -15l92 -117c3 -4 4 -7 4 -10z" />
    <glyph glyph-name="aring" unicode="&#xe5;" horiz-adv-x="562" 
d="M502 20c0 -11 -9 -20 -20 -20h-112c-11 0 -20 9 -20 20v16c-39 -28 -79 -45 -139 -45c-87 0 -171 42 -171 172v9c0 117 75 169 246 169h54v36c0 57 -28 69 -75 69c-64 0 -135 -4 -166 -7h-5c-10 0 -18 5 -18 18v81c0 11 7 19 19 22c37 9 107 21 173 21
c144 0 234 -58 234 -204v-357zM343 135v110h-57c-70 0 -88 -24 -88 -73v-9c0 -42 21 -50 63 -50c30 0 58 10 82 22zM400 741c0 -65 -52 -117 -117 -117s-117 52 -117 117s52 117 117 117s117 -52 117 -117zM327 741c0 24 -20 44 -44 44s-44 -20 -44 -44s20 -44 44 -44
s44 20 44 44z" />
    <glyph glyph-name="atilde" unicode="&#xe3;" horiz-adv-x="562" 
d="M502 20c0 -11 -9 -20 -20 -20h-112c-11 0 -20 9 -20 20v16c-39 -28 -79 -45 -139 -45c-87 0 -171 42 -171 172v9c0 117 75 169 246 169h54v36c0 57 -28 69 -75 69c-64 0 -135 -4 -166 -7h-5c-10 0 -18 5 -18 18v81c0 11 7 19 19 22c37 9 107 21 173 21
c144 0 234 -58 234 -204v-357zM343 135v110h-57c-70 0 -88 -24 -88 -73v-9c0 -42 21 -50 63 -50c30 0 58 10 82 22zM489 746c0 -88 -47 -120 -122 -120c-20 0 -50 8 -71 22l-42 29c-17 12 -30 18 -41 18c-13 0 -23 -6 -23 -27v-19c0 -11 -5 -17 -15 -17h-71
c-10 0 -15 6 -15 17v19c0 86 48 119 123 119c20 0 49 -7 70 -21l43 -28c17 -11 29 -18 40 -18c15 0 23 6 23 27v19c0 11 6 16 16 16h70c10 0 15 -5 15 -16v-20z" />
    <glyph glyph-name="ccedilla" unicode="&#xe7;" horiz-adv-x="474" 
d="M432 29c0 -15 -6 -19 -21 -23c-28 -7 -73 -15 -133 -15c-141 0 -233 90 -233 253v84c0 163 92 253 233 253c60 0 105 -8 133 -15c15 -4 21 -8 21 -23v-89c0 -10 -9 -17 -19 -17h-2c-37 4 -65 7 -122 7c-45 0 -82 -27 -82 -116v-84c0 -89 37 -116 82 -116c57 0 85 3 122 7
h2c10 0 19 -7 19 -17v-89zM345 -42c0 -2 -1 -5 -4 -8l-123 -122c-9 -8 -11 -12 -24 -12h-107c-6 0 -10 3 -10 7c0 3 2 6 5 10l93 117c8 11 13 15 27 15h132c6 0 11 -3 11 -7z" />
    <glyph glyph-name="eacute" unicode="&#xe9;" horiz-adv-x="590" 
d="M545 260c0 -15 -8 -24 -21 -24h-319v-2c0 -57 24 -109 103 -109c63 0 152 5 192 9h3c11 0 19 -5 19 -16v-76c0 -16 -4 -23 -21 -27c-64 -16 -118 -24 -205 -24c-121 0 -251 64 -251 257v70c0 161 94 263 253 263c164 0 247 -112 247 -263v-58zM387 336v4
c0 74 -34 111 -90 111c-55 0 -92 -38 -92 -111v-4h182zM469 772c0 -2 -1 -5 -4 -8l-122 -122c-8 -8 -11 -12 -24 -12h-107c-6 0 -9 3 -9 7c0 3 1 6 4 10l93 117c9 11 13 15 27 15h131c7 0 11 -3 11 -7z" />
    <glyph glyph-name="ecircumflex" unicode="&#xea;" horiz-adv-x="590" 
d="M545 260c0 -15 -8 -24 -21 -24h-319v-2c0 -57 24 -109 103 -109c63 0 152 5 192 9h3c11 0 19 -5 19 -16v-76c0 -16 -4 -23 -21 -27c-64 -16 -118 -24 -205 -24c-121 0 -251 64 -251 257v70c0 161 94 263 253 263c164 0 247 -112 247 -263v-58zM387 336v4
c0 74 -34 111 -90 111c-55 0 -92 -38 -92 -111v-4h182zM494 637c0 -4 -3 -7 -9 -7h-103c-13 0 -16 3 -24 12l-63 70l-64 -70c-8 -9 -11 -12 -24 -12h-103c-6 0 -9 3 -9 7c0 3 1 6 4 10l89 117c9 11 13 15 27 15h160c14 0 18 -3 27 -15l88 -117c3 -4 4 -7 4 -10z" />
    <glyph glyph-name="edieresis" unicode="&#xeb;" horiz-adv-x="590" 
d="M545 260c0 -15 -8 -24 -21 -24h-319v-2c0 -57 24 -109 103 -109c63 0 152 5 192 9h3c11 0 19 -5 19 -16v-76c0 -16 -4 -23 -21 -27c-64 -16 -118 -24 -205 -24c-121 0 -251 64 -251 257v70c0 161 94 263 253 263c164 0 247 -112 247 -263v-58zM387 336v4
c0 74 -34 111 -90 111c-55 0 -92 -38 -92 -111v-4h182zM470 658c0 -11 -11 -20 -22 -20h-94c-11 0 -21 9 -21 20v93c0 11 10 20 21 20h94c11 0 22 -9 22 -20v-93zM253 658c0 -11 -10 -20 -21 -20h-94c-11 0 -22 9 -22 20v93c0 11 11 20 22 20h94c11 0 21 -9 21 -20v-93z" />
    <glyph glyph-name="egrave" unicode="&#xe8;" horiz-adv-x="590" 
d="M545 260c0 -15 -8 -24 -21 -24h-319v-2c0 -57 24 -109 103 -109c63 0 152 5 192 9h3c11 0 19 -5 19 -16v-76c0 -16 -4 -23 -21 -27c-64 -16 -118 -24 -205 -24c-121 0 -251 64 -251 257v70c0 161 94 263 253 263c164 0 247 -112 247 -263v-58zM387 336v4
c0 74 -34 111 -90 111c-55 0 -92 -38 -92 -111v-4h182zM407 637c0 -4 -3 -7 -9 -7h-107c-13 0 -16 4 -24 12l-122 122c-3 3 -4 6 -4 8c0 4 4 7 11 7h132c14 0 18 -4 27 -15l92 -117c3 -4 4 -7 4 -10z" />
    <glyph glyph-name="iacute" unicode="&#xed;" horiz-adv-x="290" 
d="M329 772c0 -2 -1 -5 -4 -8l-122 -122c-8 -8 -11 -12 -24 -12h-107c-6 0 -10 3 -10 7c0 3 2 6 5 10l93 117c8 11 13 15 27 15h131c6 0 11 -3 11 -7zM226 21c0 -11 -10 -21 -21 -21h-120c-11 0 -21 10 -21 21v531c0 11 10 21 21 21h120c11 0 21 -10 21 -21v-531z" />
    <glyph glyph-name="icircumflex" unicode="&#xee;" horiz-adv-x="290" 
d="M226 21c0 -11 -10 -21 -21 -21h-120c-11 0 -21 10 -21 21v531c0 11 10 21 21 21h120c11 0 21 -10 21 -21v-531zM345 637c0 -4 -3 -7 -9 -7h-103c-13 0 -16 3 -24 12l-63 70l-64 -70c-8 -9 -11 -12 -24 -12h-103c-6 0 -9 3 -9 7c0 3 1 6 4 10l89 117c9 11 13 15 27 15h160
c14 0 18 -3 27 -15l88 -117c3 -4 4 -7 4 -10z" />
    <glyph glyph-name="idieresis" unicode="&#xef;" horiz-adv-x="290" 
d="M226 21c0 -11 -10 -21 -21 -21h-120c-11 0 -21 10 -21 21v531c0 11 10 21 21 21h120c11 0 21 -10 21 -21v-531zM323 658c0 -11 -11 -20 -22 -20h-94c-11 0 -21 9 -21 20v93c0 11 10 20 21 20h94c11 0 22 -9 22 -20v-93zM106 658c0 -11 -10 -20 -21 -20h-94
c-11 0 -22 9 -22 20v93c0 11 11 20 22 20h94c11 0 21 -9 21 -20v-93z" />
    <glyph glyph-name="igrave" unicode="&#xec;" horiz-adv-x="290" 
d="M233 637c0 -4 -4 -7 -10 -7h-107c-13 0 -16 4 -24 12l-122 122c-3 3 -4 6 -4 8c0 4 5 7 11 7h132c14 0 19 -4 27 -15l92 -117c3 -4 5 -7 5 -10zM226 21c0 -11 -10 -21 -21 -21h-120c-11 0 -21 10 -21 21v531c0 11 10 21 21 21h120c11 0 21 -10 21 -21v-531z" />
    <glyph glyph-name="ntilde" unicode="&#xf1;" horiz-adv-x="612" 
d="M552 21c0 -11 -10 -21 -21 -21h-121c-11 0 -20 10 -20 21v333c0 70 -13 93 -74 93c-29 0 -60 -14 -94 -32v-394c0 -11 -9 -21 -20 -21h-121c-11 0 -21 10 -21 21v532c0 11 9 20 20 20h112c11 0 20 -9 20 -20v-24c55 39 99 52 163 52c145 0 177 -101 177 -227v-333z
M503 746c0 -88 -47 -120 -122 -120c-20 0 -50 8 -71 22l-42 29c-17 12 -30 18 -41 18c-13 0 -23 -6 -23 -27v-19c0 -11 -5 -17 -15 -17h-71c-10 0 -15 6 -15 17v19c0 86 48 119 123 119c20 0 49 -7 70 -21l43 -28c17 -11 29 -18 40 -18c15 0 23 6 23 27v19c0 11 6 16 16 16
h70c10 0 15 -5 15 -16v-20z" />
    <glyph glyph-name="oacute" unicode="&#xf3;" horiz-adv-x="589" 
d="M545 251c0 -159 -88 -260 -250 -260s-251 101 -251 260v70c0 159 89 260 251 260s250 -101 250 -260v-70zM384 251v70c0 81 -31 122 -89 122s-90 -41 -90 -122v-70c0 -81 32 -123 90 -123s89 42 89 123zM465 772c0 -2 -1 -5 -4 -8l-122 -122c-8 -8 -11 -12 -24 -12h-107
c-6 0 -9 3 -9 7c0 3 1 6 4 10l93 117c9 11 13 15 27 15h131c7 0 11 -3 11 -7z" />
    <glyph glyph-name="ocircumflex" unicode="&#xf4;" horiz-adv-x="589" 
d="M545 251c0 -159 -88 -260 -250 -260s-251 101 -251 260v70c0 159 89 260 251 260s250 -101 250 -260v-70zM384 251v70c0 81 -31 122 -89 122s-90 -41 -90 -122v-70c0 -81 32 -123 90 -123s89 42 89 123zM493 637c0 -4 -3 -7 -9 -7h-103c-13 0 -16 3 -24 12l-63 70
l-64 -70c-8 -9 -11 -12 -24 -12h-103c-6 0 -9 3 -9 7c0 3 1 6 4 10l89 117c9 11 13 15 27 15h160c14 0 18 -3 27 -15l88 -117c3 -4 4 -7 4 -10z" />
    <glyph glyph-name="odieresis" unicode="&#xf6;" horiz-adv-x="589" 
d="M545 251c0 -159 -88 -260 -250 -260s-251 101 -251 260v70c0 159 89 260 251 260s250 -101 250 -260v-70zM384 251v70c0 81 -31 122 -89 122s-90 -41 -90 -122v-70c0 -81 32 -123 90 -123s89 42 89 123zM470 658c0 -11 -11 -20 -22 -20h-94c-11 0 -21 9 -21 20v93
c0 11 10 20 21 20h94c11 0 22 -9 22 -20v-93zM253 658c0 -11 -10 -20 -21 -20h-94c-11 0 -22 9 -22 20v93c0 11 11 20 22 20h94c11 0 21 -9 21 -20v-93z" />
    <glyph glyph-name="ograve" unicode="&#xf2;" horiz-adv-x="589" 
d="M545 251c0 -159 -88 -260 -250 -260s-251 101 -251 260v70c0 159 89 260 251 260s250 -101 250 -260v-70zM384 251v70c0 81 -31 122 -89 122s-90 -41 -90 -122v-70c0 -81 32 -123 90 -123s89 42 89 123zM386 637c0 -4 -3 -7 -9 -7h-107c-13 0 -16 4 -24 12l-122 122
c-3 3 -4 6 -4 8c0 4 4 7 11 7h132c14 0 18 -4 27 -15l92 -117c3 -4 4 -7 4 -10z" />
    <glyph glyph-name="otilde" unicode="&#xf5;" horiz-adv-x="589" 
d="M545 251c0 -159 -88 -260 -250 -260s-251 101 -251 260v70c0 159 89 260 251 260s250 -101 250 -260v-70zM384 251v70c0 81 -31 122 -89 122s-90 -41 -90 -122v-70c0 -81 32 -123 90 -123s89 42 89 123zM493 746c0 -88 -47 -120 -122 -120c-20 0 -50 8 -71 22l-42 29
c-17 12 -30 18 -41 18c-13 0 -23 -6 -23 -27v-19c0 -11 -5 -17 -15 -17h-71c-10 0 -15 6 -15 17v19c0 86 48 119 123 119c20 0 49 -7 70 -21l43 -28c17 -11 29 -18 40 -18c15 0 23 6 23 27v19c0 11 6 16 16 16h70c10 0 15 -5 15 -16v-20z" />
    <glyph glyph-name="scaron" unicode="&#x161;" horiz-adv-x="503" 
d="M461 159c0 -94 -68 -168 -214 -168c-55 0 -131 8 -182 22c-12 3 -19 11 -19 23v81c0 10 7 19 19 19h4c54 -7 138 -14 170 -14c48 0 59 13 59 39c0 15 -9 26 -37 42l-130 75c-56 32 -89 83 -89 148c0 101 67 155 205 155c79 0 127 -10 178 -23c12 -3 19 -11 19 -23v-81
c0 -12 -7 -19 -17 -19h-3c-29 4 -115 13 -166 13c-39 0 -53 -6 -53 -29c0 -15 11 -23 31 -35l124 -71c83 -48 101 -100 101 -154zM451 772c0 -3 -1 -6 -4 -10l-89 -117c-9 -11 -13 -15 -27 -15h-160c-14 0 -18 3 -27 15l-88 117c-3 4 -4 7 -4 10c0 4 3 7 9 7h103
c13 0 16 -3 24 -12l63 -70l64 70c8 9 11 12 24 12h103c6 0 9 -3 9 -7z" />
    <glyph glyph-name="uacute" unicode="&#xfa;" horiz-adv-x="612" 
d="M552 20c0 -11 -9 -20 -20 -20h-112c-11 0 -20 9 -20 20v24c-55 -39 -99 -52 -163 -52c-145 0 -177 101 -177 227v333c0 11 10 21 21 21h121c11 0 20 -10 20 -21v-333c0 -70 13 -93 74 -93c29 0 60 14 94 32v394c0 11 9 21 20 21h121c11 0 21 -10 21 -21v-532zM489 772
c0 -2 -1 -5 -4 -8l-122 -122c-8 -8 -11 -12 -24 -12h-107c-6 0 -9 3 -9 7c0 3 1 6 4 10l93 117c9 11 13 15 27 15h131c7 0 11 -3 11 -7z" />
    <glyph glyph-name="ucircumflex" unicode="&#xfb;" horiz-adv-x="612" 
d="M552 20c0 -11 -9 -20 -20 -20h-112c-11 0 -20 9 -20 20v24c-55 -39 -99 -52 -163 -52c-145 0 -177 101 -177 227v333c0 11 10 21 21 21h121c11 0 20 -10 20 -21v-333c0 -70 13 -93 74 -93c29 0 60 14 94 32v394c0 11 9 21 20 21h121c11 0 21 -10 21 -21v-532zM504 637
c0 -4 -3 -7 -9 -7h-103c-13 0 -16 3 -24 12l-63 70l-64 -70c-8 -9 -11 -12 -24 -12h-103c-6 0 -9 3 -9 7c0 3 1 6 4 10l89 117c9 11 13 15 27 15h160c14 0 18 -3 27 -15l88 -117c3 -4 4 -7 4 -10z" />
    <glyph glyph-name="udieresis" unicode="&#xfc;" horiz-adv-x="612" 
d="M552 20c0 -11 -9 -20 -20 -20h-112c-11 0 -20 9 -20 20v24c-55 -39 -99 -52 -163 -52c-145 0 -177 101 -177 227v333c0 11 10 21 21 21h121c11 0 20 -10 20 -21v-333c0 -70 13 -93 74 -93c29 0 60 14 94 32v394c0 11 9 21 20 21h121c11 0 21 -10 21 -21v-532zM483 658
c0 -11 -11 -20 -22 -20h-94c-11 0 -21 9 -21 20v93c0 11 10 20 21 20h94c11 0 22 -9 22 -20v-93zM266 658c0 -11 -10 -20 -21 -20h-94c-11 0 -22 9 -22 20v93c0 11 11 20 22 20h94c11 0 21 -9 21 -20v-93z" />
    <glyph glyph-name="ugrave" unicode="&#xf9;" horiz-adv-x="612" 
d="M552 20c0 -11 -9 -20 -20 -20h-112c-11 0 -20 9 -20 20v24c-55 -39 -99 -52 -163 -52c-145 0 -177 101 -177 227v333c0 11 10 21 21 21h121c11 0 20 -10 20 -21v-333c0 -70 13 -93 74 -93c29 0 60 14 94 32v394c0 11 9 21 20 21h121c11 0 21 -10 21 -21v-532zM397 637
c0 -4 -3 -7 -9 -7h-107c-13 0 -16 4 -24 12l-122 122c-3 3 -4 6 -4 8c0 4 4 7 11 7h132c14 0 18 -4 27 -15l92 -117c3 -4 4 -7 4 -10z" />
    <glyph glyph-name="yacute" unicode="&#xfd;" horiz-adv-x="592" 
d="M570 555c0 -2 -1 -3 -1 -5l-168 -589c-31 -108 -72 -163 -219 -163c-37 0 -96 8 -121 16c-11 4 -21 7 -21 18v81c0 11 9 19 20 19h2c33 -2 92 -8 125 -8c36 0 54 12 66 52l9 31h-15c-37 0 -68 6 -93 93l-132 450c-1 3 -1 5 -1 7c0 10 6 16 20 16h133c10 0 17 -9 19 -19
l90 -376c3 -14 6 -19 12 -19h1h4h4l93 395c2 10 10 19 21 19h133c10 0 19 -8 19 -18zM489 772c0 -2 -1 -5 -4 -8l-122 -122c-8 -8 -11 -12 -24 -12h-107c-6 0 -9 3 -9 7c0 3 1 6 4 10l93 117c9 11 13 15 27 15h131c7 0 11 -3 11 -7z" />
    <glyph glyph-name="ydieresis" unicode="&#xff;" horiz-adv-x="592" 
d="M570 555c0 -2 -1 -3 -1 -5l-168 -589c-31 -108 -72 -163 -219 -163c-37 0 -96 8 -121 16c-11 4 -21 7 -21 18v81c0 11 9 19 20 19h2c33 -2 92 -8 125 -8c36 0 54 12 66 52l9 31h-15c-37 0 -68 6 -93 93l-132 450c-1 3 -1 5 -1 7c0 10 6 16 20 16h133c10 0 17 -9 19 -19
l90 -376c3 -14 6 -19 12 -19h1h4h4l93 395c2 10 10 19 21 19h133c10 0 19 -8 19 -18zM476 658c0 -11 -11 -20 -22 -20h-94c-11 0 -21 9 -21 20v93c0 11 10 20 21 20h94c11 0 22 -9 22 -20v-93zM259 658c0 -11 -10 -20 -21 -20h-94c-11 0 -22 9 -22 20v93c0 11 11 20 22 20
h94c11 0 21 -9 21 -20v-93z" />
    <glyph glyph-name="zcaron" unicode="&#x17e;" horiz-adv-x="515" 
d="M472 20c0 -11 -9 -20 -20 -20h-375c-18 0 -34 15 -34 33v64c0 14 4 24 14 38l217 296c2 3 3 5 3 7c0 3 -3 5 -7 5h-201c-10 0 -17 6 -17 16v94c0 11 9 20 20 20h365c18 0 33 -16 33 -34v-74c0 -10 -2 -22 -11 -35l-207 -283c-2 -3 -3 -5 -3 -7s3 -4 7 -4h198
c10 0 18 -6 18 -16v-100zM468 772c0 -3 -1 -6 -4 -10l-89 -117c-9 -11 -13 -15 -27 -15h-160c-14 0 -18 3 -27 15l-88 117c-3 4 -4 7 -4 10c0 4 3 7 9 7h103c13 0 16 -3 24 -12l63 -70l64 70c8 9 11 12 24 12h103c6 0 9 -3 9 -7z" />
    <glyph glyph-name="oneeighth" unicode="&#x215b;" horiz-adv-x="814" 
d="M40 706l88 40c4 2 8 3 14 3h49c13 0 15 -8 15 -17v-380c0 -13 -5 -17 -15 -17h-71c-9 0 -17 4 -17 17v290l-53 -23c-14 -5 -20 -1 -20 12v62c0 5 3 10 10 13zM636 735c0 -4 -1 -8 -4 -12l-416 -702c-8 -14 -12 -21 -23 -21h-103c-7 0 -11 4 -11 11c0 3 1 6 3 10l416 702
c9 15 14 20 25 20h103c7 0 10 -3 10 -8zM784 121c0 -83 -60 -126 -149 -126h-6c-88 0 -148 43 -148 126v7c0 34 16 66 41 86c-26 21 -39 47 -39 82v6c0 79 57 117 146 117h6c89 0 148 -38 148 -117v-6c0 -33 -14 -61 -41 -82c25 -20 42 -52 42 -86v-7zM683 124v5
c0 22 -11 46 -42 46h-17c-31 0 -43 -24 -43 -46v-5c0 -29 17 -49 48 -49h6c32 0 48 20 48 49zM636 339h-7c-35 0 -48 -18 -48 -46c0 -25 14 -41 43 -41h17c29 0 43 16 43 41c0 28 -13 46 -48 46z" />
    <glyph glyph-name="threeeighths" unicode="&#x215c;" horiz-adv-x="887" 
d="M709 735c0 -4 -1 -8 -4 -12l-416 -702c-8 -14 -12 -21 -23 -21h-103c-7 0 -11 4 -11 11c0 3 1 6 3 10l416 702c9 15 14 20 25 20h103c7 0 10 -3 10 -8zM857 121c0 -83 -60 -126 -149 -126h-6c-88 0 -148 43 -148 126v7c0 34 16 66 41 86c-26 21 -39 47 -39 82v6
c0 79 57 117 146 117h6c89 0 148 -38 148 -117v-6c0 -33 -14 -61 -41 -82c25 -20 42 -52 42 -86v-7zM756 124v5c0 22 -11 46 -42 46h-17c-31 0 -43 -24 -43 -46v-5c0 -29 17 -49 48 -49h6c32 0 48 20 48 49zM709 339h-7c-35 0 -48 -18 -48 -46c0 -25 14 -41 43 -41h17
c29 0 43 16 43 41c0 28 -13 46 -48 46zM306 456c0 -88 -59 -126 -147 -126c-43 0 -85 7 -114 15c-8 3 -15 7 -15 17v43c0 10 4 16 17 16c38 -3 85 -5 108 -5c35 0 47 13 47 40v10c0 20 -6 40 -37 40h-95c-10 0 -16 8 -16 17v46c0 10 6 16 16 16h93c30 0 39 20 39 41v8
c0 20 -9 34 -47 34c-23 0 -62 -1 -97 -6c-13 -2 -26 -3 -26 15v43c0 10 7 14 15 17c28 8 68 17 112 17c92 0 147 -33 147 -117v-8c0 -30 -17 -64 -43 -83c28 -17 43 -47 43 -80v-10z" />
    <glyph glyph-name="fiveeighths" unicode="&#x215d;" horiz-adv-x="887" 
d="M709 735c0 -4 -1 -8 -4 -12l-416 -702c-8 -14 -12 -21 -23 -21h-103c-7 0 -11 4 -11 11c0 3 1 6 3 10l416 702c9 15 14 20 25 20h103c7 0 10 -3 10 -8zM857 121c0 -83 -60 -126 -149 -126h-6c-88 0 -148 43 -148 126v7c0 34 16 66 41 86c-26 21 -39 47 -39 82v6
c0 79 57 117 146 117h6c89 0 148 -38 148 -117v-6c0 -33 -14 -61 -41 -82c25 -20 42 -52 42 -86v-7zM756 124v5c0 22 -11 46 -42 46h-17c-31 0 -43 -24 -43 -46v-5c0 -29 17 -49 48 -49h6c32 0 48 20 48 49zM709 339h-7c-35 0 -48 -18 -48 -46c0 -25 14 -41 43 -41h17
c29 0 43 16 43 41c0 28 -13 46 -48 46zM306 469c0 -90 -53 -139 -152 -139c-35 0 -77 6 -109 16c-7 2 -15 6 -15 18v43c0 10 8 15 18 15c34 -3 78 -6 96 -6c48 0 57 19 57 53v4c0 32 -15 44 -70 44h-85c-7 0 -13 7 -13 14l17 201c0 9 8 17 17 17h210c9 0 17 -8 17 -17v-54
c0 -10 -8 -16 -17 -16h-141c-2 -19 -5 -42 -7 -63h10c98 0 167 -27 167 -126v-4z" />
    <glyph glyph-name="seveneighths" unicode="&#x215e;" horiz-adv-x="815" 
d="M637 735c0 -4 -1 -8 -4 -12l-416 -702c-8 -14 -12 -21 -23 -21h-103c-7 0 -11 4 -11 11c0 3 1 6 3 10l416 702c9 15 14 20 25 20h103c7 0 10 -3 10 -8zM785 121c0 -83 -60 -126 -149 -126h-6c-88 0 -148 43 -148 126v7c0 34 16 66 41 86c-26 21 -39 47 -39 82v6
c0 79 57 117 146 117h6c89 0 148 -38 148 -117v-6c0 -33 -14 -61 -41 -82c25 -20 42 -52 42 -86v-7zM684 124v5c0 22 -11 46 -42 46h-17c-31 0 -43 -24 -43 -46v-5c0 -29 17 -49 48 -49h6c32 0 48 20 48 49zM637 339h-7c-35 0 -48 -18 -48 -46c0 -25 14 -41 43 -41h17
c29 0 43 16 43 41c0 28 -13 46 -48 46zM300 663l-146 -314c-5 -10 -9 -14 -17 -14h-75c-14 0 -19 10 -14 20l146 307h-146c-9 0 -18 6 -18 16v54c0 9 9 17 18 17h234c13 0 25 -12 25 -24v-31c0 -16 -2 -19 -7 -31z" />
    <glyph glyph-name="onethird" unicode="&#x2153;" horiz-adv-x="803" 
d="M40 706l88 40c4 2 8 3 14 3h49c13 0 15 -8 15 -17v-380c0 -13 -5 -17 -15 -17h-71c-9 0 -17 4 -17 17v290l-53 -23c-14 -5 -20 -1 -20 12v62c0 5 3 10 10 13zM636 735c0 -4 -1 -8 -4 -12l-416 -702c-8 -14 -12 -21 -23 -21h-103c-7 0 -11 4 -11 11c0 3 1 6 3 10l416 702
c9 15 14 20 25 20h103c7 0 10 -3 10 -8zM773 121c0 -88 -59 -126 -147 -126c-43 0 -85 7 -114 15c-8 3 -15 7 -15 17v43c0 10 4 16 17 16c38 -3 85 -5 108 -5c35 0 47 13 47 40v10c0 20 -6 40 -37 40h-95c-10 0 -16 8 -16 17v46c0 10 6 16 16 16h93c30 0 39 20 39 41v8
c0 20 -9 34 -47 34c-23 0 -62 -1 -97 -6c-13 -2 -26 -3 -26 15v43c0 10 7 14 15 17c28 8 68 17 112 17c92 0 147 -33 147 -117v-8c0 -30 -17 -64 -43 -83c28 -17 43 -47 43 -80v-10z" />
    <glyph glyph-name="twothirds" unicode="&#x2154;" horiz-adv-x="889" 
d="M722 735c0 -4 -1 -8 -4 -12l-416 -702c-8 -14 -12 -21 -23 -21h-103c-7 0 -11 4 -11 11c0 3 1 6 3 10l416 702c9 15 14 20 25 20h103c7 0 10 -3 10 -8zM859 121c0 -88 -59 -126 -147 -126c-43 0 -85 7 -114 15c-8 3 -15 7 -15 17v43c0 10 4 16 17 16c38 -3 85 -5 108 -5
c35 0 47 13 47 40v10c0 20 -6 40 -37 40h-95c-10 0 -16 8 -16 17v46c0 10 6 16 16 16h93c30 0 39 20 39 41v8c0 20 -9 34 -47 34c-23 0 -62 -1 -97 -6c-13 -2 -26 -3 -26 15v43c0 10 7 14 15 17c28 8 68 17 112 17c92 0 147 -33 147 -117v-8c0 -30 -17 -64 -43 -83
c28 -17 43 -47 43 -80v-10zM106 549l50 36c43 31 52 34 52 57c0 19 -11 26 -51 26c-32 0 -72 -3 -106 -7c-10 0 -17 8 -17 17v42c0 9 7 14 14 17c31 9 77 17 117 17c103 0 145 -37 145 -109c0 -47 -24 -78 -66 -107l-45 -31c-47 -32 -74 -51 -76 -84h165c9 0 17 -5 17 -15
v-56c0 -9 -8 -17 -17 -17h-241c-9 0 -17 8 -17 17v55c0 62 33 111 76 142z" />
    <glyph glyph-name="zero.oldstyle" unicode="&#xf730;" 
d="M592 298c0 -210 -100 -307 -270 -307s-269 97 -269 307v6c0 210 99 308 269 308s270 -98 270 -308v-6zM421 298v6c0 138 -43 166 -99 166s-98 -28 -98 -166v-6c0 -138 42 -165 98 -165s99 27 99 165z" />
    <glyph glyph-name="one.oldstyle" unicode="&#xf731;" horiz-adv-x="439" 
d="M342 20c0 -11 -8 -20 -19 -20h-131c-11 0 -20 9 -20 20v405l-112 -46c-5 -2 -9 -3 -12 -3c-7 0 -11 5 -11 13v114c0 7 3 11 10 14l163 75c7 3 13 4 23 4h90c11 0 19 -8 19 -19v-557z" />
    <glyph glyph-name="two.oldstyle" unicode="&#xf732;" 
d="M570 434c0 -82 -43 -142 -160 -190c-105 -44 -155 -67 -155 -98v-4h286c11 0 20 -8 20 -19v-103c0 -11 -9 -20 -20 -20h-445c-11 0 -20 9 -20 20v70c0 154 80 206 189 252c113 49 141 57 141 92c0 33 -25 43 -106 43c-61 0 -136 -7 -197 -13h-2c-11 0 -18 9 -18 20v78
c0 10 9 16 19 19c56 17 139 31 213 31c184 0 255 -53 255 -178z" />
    <glyph glyph-name="three.oldstyle" unicode="&#xf733;" 
d="M566 72c0 -153 -106 -221 -261 -221c-78 0 -155 12 -207 28c-10 3 -19 9 -19 19v80c0 12 4 20 20 18c70 -6 145 -9 199 -9c71 0 99 30 99 85v18c0 45 -16 86 -81 86h-176c-11 0 -19 9 -19 20v85c0 11 8 19 19 19h172c65 0 85 43 85 87v14c0 45 -21 75 -99 75
c-70 0 -121 -7 -197 -12c-14 -1 -20 5 -20 18v80c0 10 10 16 20 19c52 16 126 31 204 31c163 0 261 -55 261 -205v-14c0 -58 -36 -123 -89 -153c55 -29 89 -85 89 -150v-18z" />
    <glyph glyph-name="four.oldstyle" unicode="&#xf734;" 
d="M606 40c0 -11 -9 -20 -20 -20h-66v-147c0 -11 -8 -20 -19 -20h-133c-11 0 -19 9 -19 20v147h-289c-11 0 -20 9 -20 20v97c0 11 4 21 11 31l316 414c7 9 14 14 26 14h107c16 0 20 -9 20 -20v-424h66c11 0 20 -9 20 -20v-92zM354 152v220c0 4 -2 6 -4 6c-1 0 -2 -1 -3 -2
l-157 -214c-2 -2 -2 -4 -2 -6c0 -3 2 -4 6 -4h160z" />
    <glyph glyph-name="five.oldstyle" unicode="&#xf735;" 
d="M566 89c0 -158 -95 -245 -270 -245c-64 0 -139 11 -197 29c-10 3 -20 8 -20 22v79c0 11 8 18 18 18h2c63 -7 143 -12 180 -12c95 0 115 40 115 109v8c0 67 -31 92 -142 92h-155c-8 0 -14 7 -14 14v1l31 373c1 10 10 19 20 19h389c11 0 20 -8 20 -19v-100
c0 -11 -9 -19 -20 -19h-272l-12 -138h29c173 0 298 -49 298 -223v-8z" />
    <glyph glyph-name="six.oldstyle" unicode="&#xf736;" 
d="M589 245c0 -152 -92 -254 -264 -254c-161 0 -268 95 -268 294v153c0 226 108 314 278 314c90 0 156 -10 197 -20c16 -4 22 -10 22 -22v-87c0 -14 -7 -21 -18 -21h-5c-48 8 -123 14 -182 14c-88 0 -125 -35 -125 -146v-7c26 5 76 12 118 12c135 0 247 -57 247 -223v-7z
M422 245v7c0 82 -48 104 -107 104c-26 0 -68 -6 -91 -10v-61c0 -136 43 -164 101 -164c55 0 97 26 97 124z" />
    <glyph glyph-name="seven.oldstyle" unicode="&#xf737;" horiz-adv-x="588" 
d="M534 491c0 -13 -7 -27 -16 -46l-263 -572c-6 -13 -13 -19 -25 -19h-137c-13 0 -18 5 -18 12c0 4 1 7 3 11l272 571c1 2 1 3 1 5c0 3 -3 6 -7 6h-277c-11 0 -21 8 -21 19v100c0 11 10 19 21 19h433c18 0 34 -15 34 -33v-73z" />
    <glyph glyph-name="eight.oldstyle" unicode="&#xf738;" 
d="M593 213c0 -145 -108 -222 -265 -222h-11c-157 0 -265 77 -265 222v13c0 66 34 123 85 160c-54 37 -81 86 -81 150v11c0 140 103 205 261 205h11c158 0 262 -65 262 -205v-11c0 -64 -28 -113 -82 -150c51 -37 85 -94 85 -160v-13zM429 531v5c0 53 -28 91 -101 91h-11
c-73 0 -101 -38 -101 -91v-5c0 -51 29 -87 91 -87h31c62 0 91 36 91 87zM428 218v10c0 46 -24 96 -90 96h-31c-66 0 -90 -50 -90 -96v-10c0 -58 34 -101 100 -101h11c66 0 100 43 100 101z" />
    <glyph glyph-name="nine.oldstyle" unicode="&#xf739;" 
d="M589 166c0 -226 -108 -314 -278 -314c-90 0 -156 10 -197 20c-16 4 -22 10 -22 22v87c0 20 7 23 23 21c48 -5 123 -14 182 -14c88 0 125 35 125 146v7c-26 -5 -76 -12 -118 -12c-135 0 -247 57 -247 223v7c0 152 92 254 264 254c161 0 268 -95 268 -294v-153zM422 258v61
c0 136 -43 164 -101 164c-55 0 -97 -26 -97 -124v-7c0 -82 48 -104 107 -104c26 0 68 6 91 10z" />
    <glyph glyph-name="uni2014.alt" unicode="&#xe009;" horiz-adv-x="599" 
d="M549 251c0 -11 -9 -19 -20 -19h-460c-11 0 -19 8 -19 19v79c0 11 8 20 19 20h460c11 0 20 -9 20 -20v-79z" />
    <glyph glyph-name="a.superior" unicode="&#xf6e9;" horiz-adv-x="318" 
d="M282 355c0 -8 -7 -15 -15 -15h-61c-10 0 -14 7 -14 15v1c-20 -13 -44 -21 -73 -21c-49 0 -97 24 -97 98v5c0 66 42 96 138 96h26v15c0 28 -14 33 -37 33c-35 0 -73 -2 -93 -4c-8 0 -14 4 -14 14v45c0 8 5 13 13 15c21 5 58 12 95 12c81 0 132 -32 132 -115v-194zM188 420
v53h-28c-35 0 -44 -11 -44 -35v-5c0 -18 12 -24 28 -24c15 0 33 6 44 11z" />
    <glyph glyph-name="b.superior" unicode="&#xf6ea;" horiz-adv-x="338" 
d="M313 478c0 -91 -49 -143 -140 -143c-42 0 -86 7 -117 14c-17 4 -19 9 -19 20v381c0 8 7 15 15 15h66c8 0 14 -7 14 -15v-89c15 2 31 3 41 3c95 0 140 -56 140 -143v-43zM218 478v43c0 36 -9 62 -45 62c-12 0 -28 0 -41 -2v-163c11 -2 25 -3 41 -3c36 0 45 27 45 63z" />
    <glyph glyph-name="d.superior" unicode="&#xf6eb;" horiz-adv-x="338" 
d="M301 369c0 -11 -2 -16 -19 -20c-31 -7 -74 -14 -117 -14c-91 0 -140 52 -140 143v43c0 87 45 143 140 143c10 0 26 -1 41 -3v89c0 8 6 15 14 15h67c7 0 14 -7 14 -15v-381zM206 418v163c-13 2 -30 2 -41 2c-36 0 -45 -26 -45 -62v-43c0 -36 9 -63 45 -63c16 0 31 1 41 3z
" />
    <glyph glyph-name="e.superior" unicode="&#xf6ec;" horiz-adv-x="333" 
d="M306 485c0 -10 -7 -16 -15 -16h-169c0 -29 12 -53 51 -53c35 0 83 3 107 5c8 0 14 -4 14 -13v-41c0 -10 -4 -17 -14 -19c-35 -9 -66 -13 -113 -13c-68 0 -140 36 -140 143v39c0 89 51 147 141 147c92 0 138 -63 138 -147v-32zM122 531h90c-1 34 -12 54 -45 54
s-44 -20 -45 -54z" />
    <glyph glyph-name="i.superior" unicode="&#xf6ed;" horiz-adv-x="172" 
d="M133 355c0 -8 -6 -15 -14 -15h-67c-8 0 -14 7 -14 15v290c0 7 6 14 14 14h67c8 0 14 -7 14 -14v-290zM136 702c0 -8 -6 -15 -14 -15h-72c-8 0 -14 7 -14 15v50c0 8 6 15 14 15h72c8 0 14 -7 14 -15v-50z" />
    <glyph glyph-name="l.superior" unicode="&#xf6ee;" horiz-adv-x="167" 
d="M131 356c0 -8 -5 -16 -13 -16h-67c-8 0 -15 8 -15 16v394c0 8 7 15 15 15h67c8 0 13 -7 13 -15v-394z" />
    <glyph glyph-name="m.superior" unicode="&#xf6ef;" horiz-adv-x="493" 
d="M456 356c0 -8 -7 -16 -15 -16h-66c-8 0 -15 8 -15 16v185c0 31 -7 41 -29 41c-9 0 -22 -2 -38 -9c1 -10 1 -22 1 -32v-185c0 -8 -6 -16 -14 -16h-67c-8 0 -14 8 -14 16v185c0 31 -6 41 -28 41c-9 0 -22 -5 -38 -14v-212c0 -8 -7 -16 -15 -16h-65c-8 0 -16 8 -16 16v289
c0 7 7 14 15 14h63c7 0 14 -7 14 -14v-5c23 14 46 24 76 24c29 0 52 -10 67 -25c31 17 52 25 87 25c74 0 97 -50 97 -123v-185z" />
    <glyph glyph-name="n.superior" unicode="&#x207f;" horiz-adv-x="349" 
d="M312 356c0 -8 -7 -16 -15 -16h-66c-10 0 -14 8 -14 16v181c0 34 -7 46 -37 46c-14 0 -29 -7 -48 -17v-210c0 -8 -6 -16 -14 -16h-66c-8 0 -15 8 -15 16v289c0 7 6 14 14 14h62c8 0 15 -7 15 -14v-6c28 19 51 25 84 25c82 0 100 -57 100 -127v-181z" />
    <glyph glyph-name="o.superior" unicode="&#xf6f0;" horiz-adv-x="332" 
d="M306 480c0 -88 -49 -145 -140 -145s-140 57 -140 145v39c0 88 49 145 140 145s140 -57 140 -145v-39zM210 480v39c0 40 -15 62 -44 62s-44 -22 -44 -62v-39c0 -40 15 -63 44 -63s44 23 44 63z" />
    <glyph glyph-name="r.superior" unicode="&#xf6f1;" horiz-adv-x="225" 
d="M215 597c0 -7 -2 -14 -13 -14h-4c-25 0 -47 -8 -66 -18v-209c0 -8 -7 -16 -15 -16h-65c-8 0 -16 8 -16 16v289c0 7 7 14 15 14h64c10 0 15 -7 15 -14v-8c19 16 47 27 70 27c12 0 15 -7 15 -15v-52z" />
    <glyph glyph-name="s.superior" unicode="&#xf6f2;" horiz-adv-x="285" 
d="M146 451l-71 41c-32 19 -51 48 -51 83c0 59 38 89 116 89c44 0 70 -6 98 -13c8 -2 13 -5 13 -16v-44c0 -13 -3 -17 -15 -15c-16 2 -62 7 -90 7c-19 0 -25 -2 -25 -12c0 -5 2 -8 15 -15l67 -39c46 -27 58 -56 58 -87c0 -52 -39 -95 -121 -95c-31 0 -72 4 -100 12
c-12 5 -14 7 -14 17v43c0 13 6 15 18 15c30 -4 75 -8 91 -8c24 0 29 6 29 18c0 7 -5 11 -18 19z" />
    <glyph glyph-name="t.superior" unicode="&#xf6f3;" horiz-adv-x="236" 
d="M220 354c0 -7 -5 -13 -14 -15c-8 -2 -27 -4 -44 -4c-63 0 -95 17 -95 97v154c-13 2 -29 5 -41 7c-8 1 -14 6 -14 15v37c0 7 7 14 15 14h40v41c0 9 5 14 13 15l69 12c8 0 14 -6 14 -14v-54h41c8 0 15 -7 15 -14v-44c0 -8 -7 -15 -15 -15h-41v-154c0 -19 2 -22 14 -22h27
c9 0 16 -6 16 -14v-42z" />
    <glyph glyph-name="one.superior" unicode="&#xb9;" horiz-adv-x="241" 
d="M26 706l88 40c4 2 8 3 14 3h49c13 0 15 -8 15 -17v-380c0 -13 -5 -17 -15 -17h-71c-9 0 -17 4 -17 17v290l-53 -23c-14 -5 -20 -1 -20 12v62c0 5 3 10 10 13z" />
    <glyph glyph-name="two.superior" unicode="&#xb2;" horiz-adv-x="355" 
d="M114 549l50 36c43 31 52 34 52 57c0 19 -11 26 -51 26c-32 0 -72 -3 -106 -7c-10 0 -17 8 -17 17v42c0 9 7 14 14 17c31 9 77 17 117 17c103 0 145 -37 145 -109c0 -47 -24 -78 -66 -107l-45 -31c-47 -32 -74 -51 -76 -84h165c9 0 17 -5 17 -15v-56c0 -9 -8 -17 -17 -17
h-241c-9 0 -17 8 -17 17v55c0 62 33 111 76 142z" />
    <glyph glyph-name="three.superior" unicode="&#xb3;" horiz-adv-x="355" 
d="M315 456c0 -88 -59 -126 -147 -126c-43 0 -85 7 -114 15c-8 3 -15 7 -15 17v43c0 10 4 16 17 16c38 -3 85 -5 108 -5c35 0 47 13 47 40v10c0 20 -6 40 -37 40h-95c-10 0 -16 8 -16 17v46c0 10 6 16 16 16h93c30 0 39 20 39 41v8c0 20 -9 34 -47 34c-23 0 -62 -1 -97 -6
c-13 -2 -26 -3 -26 15v43c0 10 7 14 15 17c28 8 68 17 112 17c92 0 147 -33 147 -117v-8c0 -30 -17 -64 -43 -83c28 -17 43 -47 43 -80v-10z" />
    <glyph glyph-name="commaaccent" unicode="&#xf6c3;" horiz-adv-x="443" 
d="M280 -38c17 0 18 -9 13 -19l-69 -118c-10 -16 -13 -20 -25 -20h-75c-8 0 -15 5 -11 20l30 118c3 12 9 19 20 19h117z" />
    <glyph glyph-name="Abreve" unicode="&#x102;" horiz-adv-x="669" 
d="M650 16c0 -10 -7 -16 -17 -16h-140c-10 0 -18 8 -20 18l-36 164h-205l-36 -164c-2 -10 -10 -18 -20 -18h-140c-10 0 -17 6 -17 16c0 1 1 3 1 5l149 620c23 96 97 111 166 111s142 -15 165 -111l149 -620c0 -2 1 -4 1 -5zM409 319l-61 276c-2 10 -4 15 -13 15
s-12 -5 -14 -15l-61 -276h149zM518 936c0 -1 -1 -2 -1 -4c-19 -80 -77 -145 -185 -145s-166 65 -185 145c0 2 -1 3 -1 4c0 5 4 7 10 7h87c8 0 11 -4 13 -12c11 -42 39 -57 76 -57s65 15 76 57c2 8 3 12 13 12h87c6 0 10 -2 10 -7z" />
    <glyph glyph-name="Amacron" unicode="&#x100;" horiz-adv-x="669" 
d="M650 16c0 -10 -7 -16 -17 -16h-140c-10 0 -18 8 -20 18l-36 164h-205l-36 -164c-2 -10 -10 -18 -20 -18h-140c-10 0 -17 6 -17 16c0 1 1 3 1 5l149 620c23 96 97 111 166 111s142 -15 165 -111l149 -620c0 -2 1 -4 1 -5zM409 319l-61 276c-2 10 -4 15 -13 15
s-12 -5 -14 -15l-61 -276h149zM514 836c0 -11 -9 -19 -20 -19h-324c-11 0 -20 8 -20 19v72c0 11 9 19 20 19h324c11 0 20 -8 20 -19v-72z" />
    <glyph glyph-name="Aogonek" unicode="&#x104;" horiz-adv-x="669" 
d="M437 182h-205l-36 -164c-2 -10 -10 -18 -20 -18h-140c-10 0 -17 6 -17 16c0 1 1 3 1 5l149 620c23 96 97 111 166 111s142 -15 165 -111l149 -620c1 -4 1 -7 1 -9c0 -6 -4 -8 -10 -11l-84 -38c-15 -7 -26 -17 -26 -30c0 -20 12 -27 41 -27c25 0 56 9 67 9
c9 0 10 -2 10 -12v-76c0 -7 -1 -10 -11 -15c-14 -6 -63 -20 -118 -20c-68 0 -135 23 -135 97c0 47 19 76 71 106l20 12zM409 319l-61 276c-2 10 -4 15 -13 15s-12 -5 -14 -15l-61 -276h149z" />
    <glyph glyph-name="AEacute" unicode="&#x1fc;" horiz-adv-x="923" 
d="M867 25c0 -13 -6 -19 -20 -21c-35 -5 -61 -13 -169 -13c-123 0 -232 30 -242 191h-204l-36 -164c-2 -10 -10 -18 -20 -18h-140c-10 0 -17 6 -17 16c0 1 1 3 1 5l149 620c23 96 97 102 166 102h512c14 0 20 -7 20 -20v-97c0 -11 -9 -20 -20 -20h-242v-159h234
c11 0 20 -9 20 -20v-95c0 -11 -9 -20 -20 -20h-234v-106c0 -52 17 -68 64 -68h178c11 0 20 -9 20 -20v-93zM435 319v291h-100c-9 0 -12 -5 -14 -15l-61 -276h175zM695 937c0 -2 -1 -5 -4 -8l-122 -122c-8 -8 -11 -12 -24 -12h-107c-6 0 -9 3 -9 7c0 3 1 6 4 10l93 117
c9 11 13 15 27 15h131c7 0 11 -3 11 -7z" />
    <glyph glyph-name="Cacute" unicode="&#x106;" horiz-adv-x="561" 
d="M520 31c0 -14 -8 -19 -22 -23c-21 -7 -79 -17 -149 -17c-152 0 -296 80 -296 318v126c0 238 144 317 296 317c70 0 128 -10 149 -17c14 -4 22 -8 22 -22v-97c0 -12 -6 -20 -19 -20h-3c-38 3 -93 8 -148 8c-69 0 -124 -36 -124 -169v-126c0 -133 55 -169 124 -169
c55 0 110 5 148 8h3c13 0 19 -8 19 -20v-97zM482 936c0 -2 -1 -5 -4 -8l-122 -122c-8 -8 -11 -12 -24 -12h-107c-6 0 -9 3 -9 7c0 3 1 6 4 10l93 117c9 11 13 15 27 15h131c7 0 11 -3 11 -7z" />
    <glyph glyph-name="Ccaron" unicode="&#x10c;" horiz-adv-x="561" 
d="M520 31c0 -14 -8 -19 -22 -23c-21 -7 -79 -17 -149 -17c-152 0 -296 80 -296 318v126c0 238 144 317 296 317c70 0 128 -10 149 -17c14 -4 22 -8 22 -22v-97c0 -12 -6 -20 -19 -20h-3c-38 3 -93 8 -148 8c-69 0 -124 -36 -124 -169v-126c0 -133 55 -169 124 -169
c55 0 110 5 148 8h3c13 0 19 -8 19 -20v-97zM514 936c0 -3 -1 -6 -4 -10l-89 -117c-9 -11 -13 -15 -27 -15h-160c-14 0 -18 3 -27 15l-88 117c-3 4 -4 7 -4 10c0 4 3 7 9 7h103c13 0 16 -3 24 -12l63 -70l64 70c8 9 11 12 24 12h103c6 0 9 -3 9 -7z" />
    <glyph glyph-name="Ccircumflex" unicode="&#x108;" horiz-adv-x="561" 
d="M520 31c0 -14 -8 -19 -22 -23c-21 -7 -79 -17 -149 -17c-152 0 -296 80 -296 318v126c0 238 144 317 296 317c70 0 128 -10 149 -17c14 -4 22 -8 22 -22v-97c0 -12 -6 -20 -19 -20h-3c-38 3 -93 8 -148 8c-69 0 -124 -36 -124 -169v-126c0 -133 55 -169 124 -169
c55 0 110 5 148 8h3c13 0 19 -8 19 -20v-97zM498 802c0 -4 -3 -7 -9 -7h-103c-13 0 -16 3 -24 12l-63 70l-64 -70c-8 -9 -11 -12 -24 -12h-103c-6 0 -9 3 -9 7c0 3 1 6 4 10l89 117c9 11 13 15 27 15h160c14 0 18 -3 27 -15l88 -117c3 -4 4 -7 4 -10z" />
    <glyph glyph-name="Cdotaccent" unicode="&#x10a;" horiz-adv-x="561" 
d="M520 31c0 -14 -8 -19 -22 -23c-21 -7 -79 -17 -149 -17c-152 0 -296 80 -296 318v126c0 238 144 317 296 317c70 0 128 -10 149 -17c14 -4 22 -8 22 -22v-97c0 -12 -6 -20 -19 -20h-3c-38 3 -93 8 -148 8c-69 0 -124 -36 -124 -169v-126c0 -133 55 -169 124 -169
c55 0 110 5 148 8h3c13 0 19 -8 19 -20v-97zM402 821c0 -11 -9 -20 -20 -20h-130c-11 0 -20 9 -20 20v93c0 11 9 20 20 20h130c11 0 20 -9 20 -20v-93z" />
    <glyph glyph-name="Dcaron" unicode="&#x10e;" horiz-adv-x="682" 
d="M631 307c0 -211 -120 -316 -319 -316c-83 0 -172 8 -213 15c-19 3 -29 12 -29 35v661c0 23 10 32 29 35c41 7 130 15 213 15c199 0 319 -105 319 -316v-129zM460 307v129c0 135 -58 171 -148 171c-25 0 -57 -1 -71 -2v-467c14 -1 46 -2 71 -2c90 0 148 36 148 171z
M541 936c0 -3 -1 -6 -4 -10l-89 -117c-9 -11 -13 -15 -27 -15h-160c-14 0 -18 3 -27 15l-88 117c-3 4 -4 7 -4 10c0 4 3 7 9 7h103c13 0 16 -3 24 -12l63 -70l64 70c8 9 11 12 24 12h103c6 0 9 -3 9 -7z" />
    <glyph glyph-name="Dcroat" unicode="&#x110;" horiz-adv-x="682" 
d="M631 321c0 -236 -130 -330 -319 -330c-99 0 -166 7 -217 16c-19 3 -29 12 -29 35v270h-55c-11 0 -19 8 -19 19v97c0 11 8 19 19 19h55v254c0 23 10 32 29 35c52 9 118 16 217 16c189 0 319 -93 319 -330v-101zM457 321v101c0 142 -52 182 -145 182c-19 0 -59 -1 -74 -2
v-155h61c11 0 19 -8 19 -19v-97c0 -11 -8 -19 -19 -19h-61v-172c15 -1 55 -1 74 -1c93 0 145 41 145 182z" />
    <glyph glyph-name="Ebreve" unicode="&#x114;" horiz-adv-x="580" 
d="M524 25c0 -13 -6 -19 -20 -21c-35 -5 -86 -13 -194 -13c-129 0 -243 33 -243 215v332c0 182 115 214 244 214c108 0 158 -8 193 -13c14 -2 20 -7 20 -20v-93c0 -11 -9 -20 -20 -20h-203c-47 0 -64 -16 -64 -68v-91h259c11 0 20 -9 20 -20v-95c0 -11 -9 -20 -20 -20h-259
v-106c0 -52 17 -68 64 -68h203c11 0 20 -9 20 -20v-93zM502 945c0 -1 -1 -2 -1 -4c-19 -80 -77 -145 -185 -145s-166 65 -185 145c0 2 -1 3 -1 4c0 5 4 7 10 7h87c8 0 11 -4 13 -12c11 -42 39 -57 76 -57s65 15 76 57c2 8 3 12 13 12h87c6 0 10 -2 10 -7z" />
    <glyph glyph-name="Ecaron" unicode="&#x11a;" horiz-adv-x="580" 
d="M524 25c0 -13 -6 -19 -20 -21c-35 -5 -86 -13 -194 -13c-129 0 -243 33 -243 215v332c0 182 115 214 244 214c108 0 158 -8 193 -13c14 -2 20 -7 20 -20v-93c0 -11 -9 -20 -20 -20h-203c-47 0 -64 -16 -64 -68v-91h259c11 0 20 -9 20 -20v-95c0 -11 -9 -20 -20 -20h-259
v-106c0 -52 17 -68 64 -68h203c11 0 20 -9 20 -20v-93zM490 936c0 -3 -1 -6 -4 -10l-89 -117c-9 -11 -13 -15 -27 -15h-160c-14 0 -18 3 -27 15l-88 117c-3 4 -4 7 -4 10c0 4 3 7 9 7h103c13 0 16 -3 24 -12l63 -70l64 70c8 9 11 12 24 12h103c6 0 9 -3 9 -7z" />
    <glyph glyph-name="Edotaccent" unicode="&#x116;" horiz-adv-x="580" 
d="M524 25c0 -13 -6 -19 -20 -21c-35 -5 -86 -13 -194 -13c-129 0 -243 33 -243 215v332c0 182 115 214 244 214c108 0 158 -8 193 -13c14 -2 20 -7 20 -20v-93c0 -11 -9 -20 -20 -20h-203c-47 0 -64 -16 -64 -68v-91h259c11 0 20 -9 20 -20v-95c0 -11 -9 -20 -20 -20h-259
v-106c0 -52 17 -68 64 -68h203c11 0 20 -9 20 -20v-93zM388 822c0 -11 -9 -20 -20 -20h-130c-11 0 -20 9 -20 20v93c0 11 9 20 20 20h130c11 0 20 -9 20 -20v-93z" />
    <glyph glyph-name="Emacron" unicode="&#x112;" horiz-adv-x="580" 
d="M524 25c0 -13 -6 -19 -20 -21c-35 -5 -86 -13 -194 -13c-129 0 -243 33 -243 215v332c0 182 115 214 244 214c108 0 158 -8 193 -13c14 -2 20 -7 20 -20v-93c0 -11 -9 -20 -20 -20h-203c-47 0 -64 -16 -64 -68v-91h259c11 0 20 -9 20 -20v-95c0 -11 -9 -20 -20 -20h-259
v-106c0 -52 17 -68 64 -68h203c11 0 20 -9 20 -20v-93zM486 836c0 -11 -9 -19 -20 -19h-324c-11 0 -20 8 -20 19v72c0 11 9 19 20 19h324c11 0 20 -8 20 -19v-72z" />
    <glyph glyph-name="Eng" unicode="&#x14a;" horiz-adv-x="729" 
d="M659 -6c0 -136 -78 -173 -179 -173c-23 0 -37 1 -64 4c-9 1 -15 8 -15 17v102c0 7 4 14 11 14h50c23 0 26 11 26 36v15c-6 5 -12 12 -18 22l-228 394c-4 6 -6 8 -9 8s-5 -2 -5 -8v-405c0 -11 -9 -20 -20 -20h-118c-11 0 -20 9 -20 20v685c0 21 17 38 38 38h101
c20 0 30 -10 42 -31l237 -412c4 -6 5 -8 8 -8c2 0 5 2 5 9v423c0 11 9 19 20 19h118c11 0 20 -8 20 -19v-730z" />
    <glyph glyph-name="Eogonek" unicode="&#x118;" horiz-adv-x="580" 
d="M524 25c0 -13 -6 -19 -20 -21c-8 -1 -17 -3 -27 -4l-45 -30c-14 -9 -26 -17 -26 -30c0 -20 12 -27 41 -27c25 0 56 9 67 9c9 0 10 -2 10 -12v-76c0 -7 -1 -10 -11 -15c-14 -6 -63 -20 -118 -20c-68 0 -135 23 -135 97c0 41 14 69 53 95h-3c-129 0 -243 33 -243 215v332
c0 182 115 214 244 214c108 0 158 -8 193 -13c14 -2 20 -7 20 -20v-93c0 -11 -9 -20 -20 -20h-203c-47 0 -64 -16 -64 -68v-91h259c11 0 20 -9 20 -20v-95c0 -11 -9 -20 -20 -20h-259v-106c0 -52 17 -68 64 -68h203c11 0 20 -9 20 -20v-93z" />
    <glyph glyph-name="Gbreve" unicode="&#x11e;" 
d="M580 608c0 -11 -6 -13 -15 -13h-3c-48 2 -123 8 -208 8c-81 0 -131 -39 -131 -170v-125c0 -138 63 -170 112 -170c28 0 53 1 77 3v230c0 11 8 20 19 20h128c11 0 20 -9 20 -20v-336c0 -14 -5 -20 -20 -23c-54 -11 -124 -21 -224 -21c-114 0 -285 65 -285 318v124
c0 255 159 319 304 319c100 0 172 -15 209 -23c10 -2 17 -6 17 -15v-106zM509 936c0 -1 -1 -2 -1 -4c-19 -80 -77 -145 -185 -145s-166 65 -185 145c0 2 -1 3 -1 4c0 5 4 7 10 7h87c8 0 11 -4 13 -12c11 -42 39 -57 76 -57s65 15 76 57c2 8 3 12 13 12h87c6 0 10 -2 10 -7z
" />
    <glyph glyph-name="Gcircumflex" unicode="&#x11c;" 
d="M580 608c0 -11 -6 -13 -15 -13h-3c-48 2 -123 8 -208 8c-81 0 -131 -39 -131 -170v-125c0 -138 63 -170 112 -170c28 0 53 1 77 3v230c0 11 8 20 19 20h128c11 0 20 -9 20 -20v-336c0 -14 -5 -20 -20 -23c-54 -11 -124 -21 -224 -21c-114 0 -285 65 -285 318v124
c0 255 159 319 304 319c100 0 172 -15 209 -23c10 -2 17 -6 17 -15v-106zM534 802c0 -4 -3 -7 -9 -7h-103c-13 0 -16 3 -24 12l-63 70l-64 -70c-8 -9 -11 -12 -24 -12h-103c-6 0 -9 3 -9 7c0 3 1 6 4 10l89 117c9 11 13 15 27 15h160c14 0 18 -3 27 -15l88 -117
c3 -4 4 -7 4 -10z" />
    <glyph glyph-name="Gcommaaccent" unicode="&#x122;" 
d="M580 608c0 -11 -6 -13 -15 -13h-3c-48 2 -123 8 -208 8c-81 0 -131 -39 -131 -170v-125c0 -138 63 -170 112 -170c28 0 53 1 77 3v230c0 11 8 20 19 20h128c11 0 20 -9 20 -20v-336c0 -14 -5 -20 -20 -23c-54 -11 -124 -21 -224 -21c-114 0 -285 65 -285 318v124
c0 255 159 319 304 319c100 0 172 -15 209 -23c10 -2 17 -6 17 -15v-106zM381 -38c17 0 18 -9 13 -19l-69 -118c-10 -16 -13 -20 -25 -20h-75c-8 0 -15 5 -11 20l30 118c3 12 9 19 20 19h117z" />
    <glyph glyph-name="Gdotaccent" unicode="&#x120;" 
d="M580 608c0 -11 -6 -13 -15 -13h-3c-48 2 -123 8 -208 8c-81 0 -131 -39 -131 -170v-125c0 -138 63 -170 112 -170c28 0 53 1 77 3v230c0 11 8 20 19 20h128c11 0 20 -9 20 -20v-336c0 -14 -5 -20 -20 -23c-54 -11 -124 -21 -224 -21c-114 0 -285 65 -285 318v124
c0 255 159 319 304 319c100 0 172 -15 209 -23c10 -2 17 -6 17 -15v-106zM428 821c0 -11 -9 -20 -20 -20h-130c-11 0 -20 9 -20 20v93c0 11 9 20 20 20h130c11 0 20 -9 20 -20v-93z" />
    <glyph glyph-name="Hbar" unicode="&#x126;" horiz-adv-x="729" 
d="M659 20c0 -11 -9 -20 -20 -20h-131c-11 0 -20 9 -20 20v289h-247v-289c0 -11 -9 -20 -20 -20h-131c-11 0 -20 9 -20 20v511h-50c-11 0 -20 9 -20 20v95c0 11 9 20 20 20h50v58c0 11 9 19 20 19h131c11 0 20 -8 20 -19v-58h247v58c0 11 9 19 20 19h131c11 0 20 -8 20 -19
v-58h50c11 0 20 -9 20 -20v-95c0 -11 -9 -20 -20 -20h-50v-511zM241 458h247v73h-247v-73z" />
    <glyph glyph-name="Hcircumflex" unicode="&#x124;" horiz-adv-x="729" 
d="M659 20c0 -11 -9 -20 -20 -20h-131c-11 0 -20 9 -20 20v289h-247v-289c0 -11 -9 -20 -20 -20h-131c-11 0 -20 9 -20 20v704c0 11 9 19 20 19h131c11 0 20 -8 20 -19v-266h247v266c0 11 9 19 20 19h131c11 0 20 -8 20 -19v-704zM562 802c0 -4 -3 -7 -9 -7h-103
c-13 0 -16 3 -24 12l-63 70l-64 -70c-8 -9 -11 -12 -24 -12h-103c-6 0 -9 3 -9 7c0 3 1 6 4 10l89 117c9 11 13 15 27 15h160c14 0 18 -3 27 -15l88 -117c3 -4 4 -7 4 -10z" />
    <glyph glyph-name="Ibreve" unicode="&#x12c;" horiz-adv-x="311" 
d="M241 20c0 -11 -8 -20 -19 -20h-134c-11 0 -18 9 -18 20v704c0 11 7 19 18 19h134c11 0 19 -8 19 -19v-704zM338 943c0 -1 -1 -2 -1 -4c-19 -80 -77 -145 -185 -145s-166 65 -185 145c0 2 -1 3 -1 4c0 5 4 7 10 7h87c8 0 11 -4 13 -12c11 -42 39 -57 76 -57s65 15 76 57
c2 8 3 12 13 12h87c6 0 10 -2 10 -7z" />
    <glyph glyph-name="IJ" unicode="&#x132;" horiz-adv-x="622" 
d="M241 20c0 -11 -8 -20 -19 -20h-134c-11 0 -18 9 -18 20v704c0 11 7 19 18 19h134c11 0 19 -8 19 -19v-704zM552 -6c0 -136 -78 -173 -179 -173c-23 0 -37 1 -64 4c-9 1 -15 8 -15 17v102c0 7 4 14 11 14h50c23 0 26 11 26 36v730c0 11 9 19 20 19h131c11 0 20 -8 20 -19
v-730z" />
    <glyph glyph-name="Imacron" unicode="&#x12a;" horiz-adv-x="311" 
d="M241 20c0 -11 -8 -20 -19 -20h-134c-11 0 -18 9 -18 20v704c0 11 7 19 18 19h134c11 0 19 -8 19 -19v-704zM337 836c0 -11 -9 -19 -20 -19h-324c-11 0 -20 8 -20 19v72c0 11 9 19 20 19h324c11 0 20 -8 20 -19v-72z" />
    <glyph glyph-name="Iogonek" unicode="&#x12e;" horiz-adv-x="311" 
d="M241 20c0 -7 -1 -13 -9 -18l-45 -32c-17 -13 -26 -20 -26 -35c0 -18 12 -22 41 -22c25 0 56 9 67 9c9 0 10 -2 10 -12v-76c0 -7 -1 -10 -11 -15c-14 -6 -63 -20 -118 -20c-68 0 -135 23 -135 97c0 40 14 75 55 102v726c0 11 7 19 18 19h134c11 0 19 -8 19 -19v-704z" />
    <glyph glyph-name="Itilde" unicode="&#x128;" horiz-adv-x="311" 
d="M241 20c0 -11 -8 -20 -19 -20h-134c-11 0 -18 9 -18 20v704c0 11 7 19 18 19h134c11 0 19 -8 19 -19v-704zM355 909c0 -88 -47 -120 -122 -120c-20 0 -50 8 -71 22l-42 29c-17 12 -30 18 -41 18c-13 0 -23 -6 -23 -27v-19c0 -11 -5 -17 -15 -17h-71c-10 0 -15 6 -15 17
v19c0 86 48 119 123 119c20 0 49 -7 70 -21l43 -28c17 -11 29 -18 40 -18c15 0 23 6 23 27v19c0 11 6 16 16 16h70c10 0 15 -5 15 -16v-20z" />
    <glyph glyph-name="Jcircumflex" unicode="&#x134;" horiz-adv-x="311" 
d="M241 -6c0 -136 -78 -173 -179 -173c-23 0 -37 1 -64 4c-9 1 -15 8 -15 17v102c0 7 4 14 11 14h50c23 0 26 11 26 36v730c0 11 9 19 20 19h131c11 0 20 -8 20 -19v-730zM354 802c0 -4 -3 -7 -9 -7h-103c-13 0 -16 3 -24 12l-63 70l-64 -70c-8 -9 -11 -12 -24 -12h-103
c-6 0 -9 3 -9 7c0 3 1 6 4 10l89 117c9 11 13 15 27 15h160c14 0 18 -3 27 -15l88 -117c3 -4 4 -7 4 -10z" />
    <glyph glyph-name="Kcommaaccent" unicode="&#x136;" horiz-adv-x="678" 
d="M652 732c0 -4 -2 -9 -5 -14l-238 -338l239 -359c3 -4 4 -8 4 -11c0 -6 -5 -10 -14 -10h-172c-12 0 -17 6 -22 14l-203 330v-324c0 -11 -9 -20 -20 -20h-131c-11 0 -20 9 -20 20v704c0 11 9 19 20 19h131c11 0 20 -8 20 -19v-318l220 325c5 8 11 12 22 12h153
c11 0 16 -5 16 -11zM392 -38c17 0 18 -9 13 -19l-69 -118c-10 -16 -13 -20 -25 -20h-75c-8 0 -15 5 -11 20l30 118c3 12 9 19 20 19h117z" />
    <glyph glyph-name="Lacute" unicode="&#x139;" horiz-adv-x="519" 
d="M497 25c0 -13 -6 -18 -20 -21c-33 -7 -110 -13 -163 -13c-129 0 -244 33 -244 215v517c0 11 9 20 20 20h131c11 0 20 -9 20 -20v-517c0 -52 17 -68 64 -68h172c11 0 20 -9 20 -20v-93zM427 936c0 -2 -1 -5 -4 -8l-122 -122c-8 -8 -11 -12 -24 -12h-107c-6 0 -9 3 -9 7
c0 3 1 6 4 10l93 117c9 11 13 15 27 15h131c7 0 11 -3 11 -7z" />
    <glyph glyph-name="Lcaron" unicode="&#x13d;" horiz-adv-x="519" 
d="M497 25c0 -13 -6 -18 -20 -21c-33 -7 -110 -13 -163 -13c-129 0 -244 33 -244 215v517c0 11 9 20 20 20h131c11 0 20 -9 20 -20v-517c0 -52 17 -68 64 -68h172c11 0 20 -9 20 -20v-93zM491 756c0 -2 -1 -5 -2 -8l-75 -219c-5 -13 -9 -19 -19 -19h-101c-7 0 -9 4 -9 10
c0 2 0 6 1 9l54 219c3 14 10 19 20 19h119c7 0 12 -4 12 -11z" />
    <glyph glyph-name="Lcommaaccent" unicode="&#x13b;" horiz-adv-x="519" 
d="M497 25c0 -13 -6 -18 -20 -21c-33 -7 -110 -13 -163 -13c-129 0 -244 33 -244 215v517c0 11 9 20 20 20h131c11 0 20 -9 20 -20v-517c0 -52 17 -68 64 -68h172c11 0 20 -9 20 -20v-93zM318 -38c17 0 18 -9 13 -19l-69 -118c-10 -16 -13 -20 -25 -20h-75
c-8 0 -15 5 -11 20l30 118c3 12 9 19 20 19h117z" />
    <glyph glyph-name="Ldot" unicode="&#x13f;" horiz-adv-x="519" 
d="M497 25c0 -13 -6 -18 -20 -21c-33 -7 -110 -13 -163 -13c-129 0 -244 33 -244 215v517c0 11 9 20 20 20h131c11 0 20 -9 20 -20v-517c0 -52 17 -68 64 -68h172c11 0 20 -9 20 -20v-93zM479 362c0 -11 -9 -20 -20 -20h-130c-11 0 -20 9 -20 20v93c0 11 9 20 20 20h130
c11 0 20 -9 20 -20v-93z" />
    <glyph glyph-name="Nacute" unicode="&#x143;" horiz-adv-x="729" 
d="M659 38c0 -21 -18 -38 -39 -38h-98c-21 0 -36 4 -52 31l-228 394c-4 6 -6 8 -9 8s-5 -2 -5 -8v-405c0 -11 -9 -20 -20 -20h-118c-11 0 -20 9 -20 20v685c0 21 17 38 38 38h101c20 0 30 -10 42 -31l237 -412c4 -6 5 -8 8 -8c2 0 5 2 5 9v423c0 11 9 19 20 19h118
c11 0 20 -8 20 -19v-686zM533 936c0 -2 -1 -5 -4 -8l-122 -122c-8 -8 -11 -12 -24 -12h-107c-6 0 -9 3 -9 7c0 3 1 6 4 10l93 117c9 11 13 15 27 15h131c7 0 11 -3 11 -7z" />
    <glyph glyph-name="Ncaron" unicode="&#x147;" horiz-adv-x="729" 
d="M659 38c0 -21 -18 -38 -39 -38h-98c-21 0 -36 4 -52 31l-228 394c-4 6 -6 8 -9 8s-5 -2 -5 -8v-405c0 -11 -9 -20 -20 -20h-118c-11 0 -20 9 -20 20v685c0 21 17 38 38 38h101c20 0 30 -10 42 -31l237 -412c4 -6 5 -8 8 -8c2 0 5 2 5 9v423c0 11 9 19 20 19h118
c11 0 20 -8 20 -19v-686zM564 936c0 -3 -1 -6 -4 -10l-89 -117c-9 -11 -13 -15 -27 -15h-160c-14 0 -18 3 -27 15l-88 117c-3 4 -4 7 -4 10c0 4 3 7 9 7h103c13 0 16 -3 24 -12l63 -70l64 70c8 9 11 12 24 12h103c6 0 9 -3 9 -7z" />
    <glyph glyph-name="Ncommaaccent" unicode="&#x145;" horiz-adv-x="729" 
d="M659 38c0 -21 -18 -38 -39 -38h-98c-21 0 -36 4 -52 31l-228 394c-4 6 -6 8 -9 8s-5 -2 -5 -8v-405c0 -11 -9 -20 -20 -20h-118c-11 0 -20 9 -20 20v685c0 21 17 38 38 38h101c20 0 30 -10 42 -31l237 -412c4 -6 5 -8 8 -8c2 0 5 2 5 9v423c0 11 9 19 20 19h118
c11 0 20 -8 20 -19v-686zM423 -38c17 0 18 -9 13 -19l-69 -118c-10 -16 -13 -20 -25 -20h-75c-8 0 -15 5 -11 20l30 118c3 12 9 19 20 19h117z" />
    <glyph glyph-name="Obreve" unicode="&#x14e;" horiz-adv-x="698" 
d="M645 312c0 -232 -131 -321 -296 -321s-296 89 -296 321v119c0 232 131 321 296 321s296 -89 296 -321v-119zM473 312v119c0 120 -40 171 -124 171s-123 -51 -123 -171v-119c0 -120 39 -171 123 -171s124 51 124 171zM535 944c0 -1 -1 -2 -1 -4
c-19 -80 -77 -145 -185 -145s-166 65 -185 145c0 2 -1 3 -1 4c0 5 4 7 10 7h87c8 0 11 -4 13 -12c11 -42 39 -57 76 -57s65 15 76 57c2 8 3 12 13 12h87c6 0 10 -2 10 -7z" />
    <glyph glyph-name="Ohungarumlaut" unicode="&#x150;" horiz-adv-x="698" 
d="M645 312c0 -232 -131 -321 -296 -321s-296 89 -296 321v119c0 232 131 321 296 321s296 -89 296 -321v-119zM473 312v119c0 120 -40 171 -124 171s-123 -51 -123 -171v-119c0 -120 39 -171 123 -171s124 51 124 171zM634 936c0 -2 -1 -5 -4 -8l-122 -122
c-8 -8 -12 -12 -25 -12h-107c-6 0 -9 3 -9 7c0 3 1 6 4 10l93 117c9 11 13 15 27 15h132c7 0 11 -3 11 -7zM401 936c0 -2 -1 -5 -4 -8l-122 -122c-8 -8 -12 -12 -25 -12h-107c-6 0 -9 3 -9 7c0 3 1 6 4 10l93 117c9 11 13 15 27 15h132c7 0 11 -3 11 -7z" />
    <glyph glyph-name="Omacron" unicode="&#x14c;" horiz-adv-x="698" 
d="M645 312c0 -232 -131 -321 -296 -321s-296 89 -296 321v119c0 232 131 321 296 321s296 -89 296 -321v-119zM473 312v119c0 120 -40 171 -124 171s-123 -51 -123 -171v-119c0 -120 39 -171 123 -171s124 51 124 171zM531 836c0 -11 -9 -19 -20 -19h-324
c-11 0 -20 8 -20 19v72c0 11 9 19 20 19h324c11 0 20 -8 20 -19v-72z" />
    <glyph glyph-name="Oslashacute" unicode="&#x1fe;" horiz-adv-x="698" 
d="M677 739c0 -3 -1 -5 -3 -8l-75 -103c29 -49 46 -114 46 -197v-119c0 -232 -131 -321 -296 -321c-66 0 -125 15 -174 46l-19 -27c-6 -8 -16 -19 -26 -19h-97c-7 0 -11 5 -11 11c0 3 1 5 3 8l75 104c-29 49 -47 114 -47 198v119c0 232 131 321 296 321
c66 0 127 -14 176 -46l18 25c6 8 16 19 26 19h97c7 0 11 -5 11 -11zM431 575c-20 18 -48 27 -82 27c-84 0 -123 -51 -123 -171v-119c0 -7 1 -14 1 -21zM473 444v7l-204 -284c20 -18 46 -26 80 -26c84 0 124 51 124 171v119v13zM522 937c0 -2 -1 -5 -4 -8l-122 -122
c-8 -8 -11 -12 -24 -12h-107c-6 0 -9 3 -9 7c0 3 1 6 4 10l93 117c9 11 13 15 27 15h131c7 0 11 -3 11 -7z" />
    <glyph glyph-name="Racute" unicode="&#x154;" horiz-adv-x="680" 
d="M644 12c0 -7 -4 -12 -15 -12h-153c-11 0 -15 10 -20 20l-134 253l-11 -1c-21 0 -52 2 -71 2v-254c0 -11 -9 -20 -20 -20h-130c-11 0 -20 9 -20 20v671c0 34 14 43 45 48c46 7 131 13 203 13c170 0 301 -57 301 -234v-13c0 -106 -56 -171 -129 -200l151 -282
c2 -4 3 -8 3 -11zM449 505v13c0 61 -47 89 -131 89c-14 0 -66 -2 -78 -3v-192c11 -1 60 -2 71 -2c105 0 138 27 138 95zM508 936c0 -2 -1 -5 -4 -8l-122 -122c-8 -8 -11 -12 -24 -12h-107c-6 0 -9 3 -9 7c0 3 1 6 4 10l93 117c9 11 13 15 27 15h131c7 0 11 -3 11 -7z" />
    <glyph glyph-name="Rcaron" unicode="&#x158;" horiz-adv-x="680" 
d="M644 12c0 -7 -4 -12 -15 -12h-153c-11 0 -15 10 -20 20l-134 253l-11 -1c-21 0 -52 2 -71 2v-254c0 -11 -9 -20 -20 -20h-130c-11 0 -20 9 -20 20v671c0 34 14 43 45 48c46 7 131 13 203 13c170 0 301 -57 301 -234v-13c0 -106 -56 -171 -129 -200l151 -282
c2 -4 3 -8 3 -11zM449 505v13c0 61 -47 89 -131 89c-14 0 -66 -2 -78 -3v-192c11 -1 60 -2 71 -2c105 0 138 27 138 95zM540 936c0 -3 -1 -6 -4 -10l-89 -117c-9 -11 -13 -15 -27 -15h-160c-14 0 -18 3 -27 15l-88 117c-3 4 -4 7 -4 10c0 4 3 7 9 7h103c13 0 16 -3 24 -12
l63 -70l64 70c8 9 11 12 24 12h103c6 0 9 -3 9 -7z" />
    <glyph glyph-name="Rcommaaccent" unicode="&#x156;" horiz-adv-x="680" 
d="M644 12c0 -7 -4 -12 -15 -12h-153c-11 0 -15 10 -20 20l-134 253l-11 -1c-21 0 -52 2 -71 2v-254c0 -11 -9 -20 -20 -20h-130c-11 0 -20 9 -20 20v671c0 34 14 43 45 48c46 7 131 13 203 13c170 0 301 -57 301 -234v-13c0 -106 -56 -171 -129 -200l151 -282
c2 -4 3 -8 3 -11zM449 505v13c0 61 -47 89 -131 89c-14 0 -66 -2 -78 -3v-192c11 -1 60 -2 71 -2c105 0 138 27 138 95zM399 -38c17 0 18 -9 13 -19l-69 -118c-10 -16 -13 -20 -25 -20h-75c-8 0 -15 5 -11 20l30 118c3 12 9 19 20 19h117z" />
    <glyph glyph-name="Sacute" unicode="&#x15a;" horiz-adv-x="588" 
d="M546 210c0 -106 -70 -219 -273 -219c-79 0 -138 9 -189 22c-10 3 -20 9 -20 20v98c0 14 8 19 18 19h3c41 -4 151 -12 190 -12c69 0 89 22 89 70c0 29 -14 45 -66 76l-138 82c-93 55 -118 118 -118 191c0 110 62 195 256 195c73 0 174 -12 212 -22c8 -2 15 -7 15 -18v-101
c0 -9 -4 -17 -17 -17h-2c-28 2 -144 11 -212 11c-57 0 -78 -17 -78 -53c0 -28 13 -41 67 -70l128 -69c104 -56 135 -122 135 -203zM462 936c0 -2 -1 -5 -4 -8l-122 -122c-8 -8 -11 -12 -24 -12h-107c-6 0 -9 3 -9 7c0 3 1 6 4 10l93 117c9 11 13 15 27 15h131
c7 0 11 -3 11 -7z" />
    <glyph glyph-name="uni015E" unicode="&#x15e;" horiz-adv-x="588" 
d="M546 210c0 -106 -70 -219 -273 -219c-79 0 -138 9 -189 22c-10 3 -20 9 -20 20v98c0 14 8 19 18 19h3c41 -4 151 -12 190 -12c69 0 89 22 89 70c0 29 -14 45 -66 76l-138 82c-93 55 -118 118 -118 191c0 110 62 195 256 195c73 0 174 -12 212 -22c8 -2 15 -7 15 -18v-101
c0 -9 -4 -17 -17 -17h-2c-28 2 -144 11 -212 11c-57 0 -78 -17 -78 -53c0 -28 13 -41 67 -70l128 -69c104 -56 135 -122 135 -203zM395 -45c0 -2 -1 -5 -4 -8l-127 -130c-8 -8 -11 -12 -24 -12h-107c-6 0 -9 3 -9 7c0 3 1 6 4 10l97 125c9 11 13 15 27 15h132
c7 0 11 -3 11 -7z" />
    <glyph glyph-name="Scircumflex" unicode="&#x15c;" horiz-adv-x="588" 
d="M546 210c0 -106 -70 -219 -273 -219c-79 0 -138 9 -189 22c-10 3 -20 9 -20 20v98c0 14 8 19 18 19h3c41 -4 151 -12 190 -12c69 0 89 22 89 70c0 29 -14 45 -66 76l-138 82c-93 55 -118 118 -118 191c0 110 62 195 256 195c73 0 174 -12 212 -22c8 -2 15 -7 15 -18v-101
c0 -9 -4 -17 -17 -17h-2c-28 2 -144 11 -212 11c-57 0 -78 -17 -78 -53c0 -28 13 -41 67 -70l128 -69c104 -56 135 -122 135 -203zM486 802c0 -4 -3 -7 -9 -7h-103c-13 0 -16 3 -24 12l-63 70l-64 -70c-8 -9 -11 -12 -24 -12h-103c-6 0 -9 3 -9 7c0 3 1 6 4 10l89 117
c9 11 13 15 27 15h160c14 0 18 -3 27 -15l88 -117c3 -4 4 -7 4 -10z" />
    <glyph glyph-name="uni0218" unicode="&#x218;" horiz-adv-x="588" 
d="M546 210c0 -106 -70 -219 -273 -219c-79 0 -138 9 -189 22c-10 3 -20 9 -20 20v98c0 14 8 19 18 19h3c41 -4 151 -12 190 -12c69 0 89 22 89 70c0 29 -14 45 -66 76l-138 82c-93 55 -118 118 -118 191c0 110 62 195 256 195c73 0 174 -12 212 -22c8 -2 15 -7 15 -18v-101
c0 -9 -4 -17 -17 -17h-2c-28 2 -144 11 -212 11c-57 0 -78 -17 -78 -53c0 -28 13 -41 67 -70l128 -69c104 -56 135 -122 135 -203zM342 -38c17 0 18 -9 13 -19l-69 -118c-10 -16 -13 -20 -25 -20h-75c-8 0 -15 5 -11 20l30 118c3 12 9 19 20 19h117z" />
    <glyph glyph-name="Tbar" unicode="&#x166;" horiz-adv-x="587" 
d="M541 332h-162v-312c0 -11 -9 -20 -20 -20h-131c-11 0 -20 9 -20 20v312h-163c-11 0 -20 8 -20 19v103c0 11 9 19 20 19h163v129h-163c-11 0 -20 8 -20 19v103c0 11 9 19 20 19h496c11 0 21 -8 21 -19v-103c0 -11 -10 -19 -21 -19h-162v-129h162c11 0 21 -8 21 -19v-103
c0 -11 -10 -19 -21 -19z" />
    <glyph glyph-name="Tcaron" unicode="&#x164;" horiz-adv-x="587" 
d="M562 621c0 -11 -10 -19 -21 -19h-162v-582c0 -11 -9 -20 -20 -20h-131c-11 0 -20 9 -20 20v582h-163c-11 0 -20 8 -20 19v103c0 11 9 19 20 19h496c11 0 21 -8 21 -19v-103zM493 936c0 -3 -1 -6 -4 -10l-89 -117c-9 -11 -13 -15 -27 -15h-160c-14 0 -18 3 -27 15l-88 117
c-3 4 -4 7 -4 10c0 4 3 7 9 7h103c13 0 16 -3 24 -12l63 -70l64 70c8 9 11 12 24 12h103c6 0 9 -3 9 -7z" />
    <glyph glyph-name="Tcommaaccent" unicode="&#x162;" horiz-adv-x="587" 
d="M562 621c0 -11 -10 -19 -21 -19h-162v-582c0 -11 -9 -20 -20 -20h-131c-11 0 -20 9 -20 20v582h-163c-11 0 -20 8 -20 19v103c0 11 9 19 20 19h496c11 0 21 -8 21 -19v-103zM334 -38c17 0 18 -9 13 -19l-69 -118c-10 -16 -13 -20 -25 -20h-75c-8 0 -15 5 -11 20l30 118
c3 12 9 19 20 19h117z" />
    <glyph glyph-name="Ubreve" unicode="&#x16c;" horiz-adv-x="711" 
d="M644 279c0 -228 -130 -288 -289 -288s-288 60 -288 288v445c0 11 9 19 20 19h131c11 0 20 -8 20 -19v-445c0 -102 27 -145 117 -145s118 43 118 145v445c0 11 9 19 20 19h130c11 0 21 -8 21 -19v-445zM543 943c0 -1 -1 -2 -1 -4c-19 -80 -77 -145 -185 -145
s-166 65 -185 145c0 2 -1 3 -1 4c0 5 4 7 10 7h87c8 0 11 -4 13 -12c11 -42 39 -57 76 -57s65 15 76 57c2 8 3 12 13 12h87c6 0 10 -2 10 -7z" />
    <glyph glyph-name="Uhungarumlaut" unicode="&#x170;" horiz-adv-x="711" 
d="M644 279c0 -228 -130 -288 -289 -288s-288 60 -288 288v445c0 11 9 19 20 19h131c11 0 20 -8 20 -19v-445c0 -102 27 -145 117 -145s118 43 118 145v445c0 11 9 19 20 19h130c11 0 21 -8 21 -19v-445zM641 936c0 -2 -1 -5 -4 -8l-122 -122c-8 -8 -12 -12 -25 -12h-107
c-6 0 -9 3 -9 7c0 3 1 6 4 10l93 117c9 11 13 15 27 15h132c7 0 11 -3 11 -7zM408 936c0 -2 -1 -5 -4 -8l-122 -122c-8 -8 -12 -12 -25 -12h-107c-6 0 -9 3 -9 7c0 3 1 6 4 10l93 117c9 11 13 15 27 15h132c7 0 11 -3 11 -7z" />
    <glyph glyph-name="Umacron" unicode="&#x16a;" horiz-adv-x="711" 
d="M644 279c0 -228 -130 -288 -289 -288s-288 60 -288 288v445c0 11 9 19 20 19h131c11 0 20 -8 20 -19v-445c0 -102 27 -145 117 -145s118 43 118 145v445c0 11 9 19 20 19h130c11 0 21 -8 21 -19v-445zM538 836c0 -11 -9 -19 -20 -19h-324c-11 0 -20 8 -20 19v72
c0 11 9 19 20 19h324c11 0 20 -8 20 -19v-72z" />
    <glyph glyph-name="Uogonek" unicode="&#x172;" horiz-adv-x="711" 
d="M644 279c0 -124 -29 -193 -117 -252l-84 -57c-14 -9 -26 -17 -26 -30c0 -20 12 -27 41 -27c25 0 56 9 67 9c9 0 10 -2 10 -12v-76c0 -7 -1 -10 -11 -15c-14 -6 -63 -20 -118 -20c-68 0 -135 23 -135 97c0 42 14 70 54 96c-145 8 -258 73 -258 287v445c0 11 9 19 20 19
h131c11 0 20 -8 20 -19v-445c0 -102 27 -145 117 -145s118 43 118 145v445c0 11 9 19 20 19h130c11 0 21 -8 21 -19v-445z" />
    <glyph glyph-name="Uring" unicode="&#x16e;" horiz-adv-x="711" 
d="M644 279c0 -228 -130 -288 -289 -288s-288 60 -288 288v445c0 11 9 19 20 19h131c11 0 20 -8 20 -19v-445c0 -102 27 -145 117 -145s118 43 118 145v445c0 11 9 19 20 19h130c11 0 21 -8 21 -19v-445zM473 881c0 -65 -52 -117 -117 -117s-117 52 -117 117s52 117 117 117
s117 -52 117 -117zM400 881c0 24 -20 44 -44 44s-44 -20 -44 -44s20 -44 44 -44s44 20 44 44z" />
    <glyph glyph-name="Utilde" unicode="&#x168;" horiz-adv-x="711" 
d="M644 279c0 -228 -130 -288 -289 -288s-288 60 -288 288v445c0 11 9 19 20 19h131c11 0 20 -8 20 -19v-445c0 -102 27 -145 117 -145s118 43 118 145v445c0 11 9 19 20 19h130c11 0 21 -8 21 -19v-445zM559 909c0 -88 -47 -120 -122 -120c-20 0 -50 8 -71 22l-42 29
c-17 12 -30 18 -41 18c-13 0 -23 -6 -23 -27v-19c0 -11 -5 -17 -15 -17h-71c-10 0 -15 6 -15 17v19c0 86 48 119 123 119c20 0 49 -7 70 -21l43 -28c17 -11 29 -18 40 -18c15 0 23 6 23 27v19c0 11 6 16 16 16h70c10 0 15 -5 15 -16v-20z" />
    <glyph glyph-name="Wacute" unicode="&#x1e82;" horiz-adv-x="889" 
d="M872 730v-2l-93 -655c-8 -58 -39 -76 -92 -76h-57c-44 0 -79 17 -92 68l-79 299c-2 8 -4 8 -9 8s-6 0 -8 -8l-79 -299c-13 -51 -48 -68 -92 -68h-57c-53 0 -84 18 -92 76l-93 655v2c0 10 8 13 16 13h136c8 0 15 -8 16 -19l57 -536c1 -9 2 -13 6 -13c3 0 5 4 7 13l72 275
c10 38 35 48 62 48h99c27 0 52 -10 62 -48l72 -275c2 -9 4 -13 7 -13c4 0 5 4 6 13l57 536c1 11 8 19 16 19h136c8 0 16 -3 16 -13zM642 937c0 -2 -1 -5 -4 -8l-122 -122c-8 -8 -11 -12 -24 -12h-107c-6 0 -9 3 -9 7c0 3 1 6 4 10l93 117c9 11 13 15 27 15h131
c7 0 11 -3 11 -7z" />
    <glyph glyph-name="Wcircumflex" unicode="&#x174;" horiz-adv-x="889" 
d="M872 730v-2l-93 -655c-8 -58 -39 -76 -92 -76h-57c-44 0 -79 17 -92 68l-79 299c-2 8 -4 8 -9 8s-6 0 -8 -8l-79 -299c-13 -51 -48 -68 -92 -68h-57c-53 0 -84 18 -92 76l-93 655v2c0 10 8 13 16 13h136c8 0 15 -8 16 -19l57 -536c1 -9 2 -13 6 -13c3 0 5 4 7 13l72 275
c10 38 35 48 62 48h99c27 0 52 -10 62 -48l72 -275c2 -9 4 -13 7 -13c4 0 5 4 6 13l57 536c1 11 8 19 16 19h136c8 0 16 -3 16 -13zM649 802c0 -4 -3 -7 -9 -7h-103c-13 0 -16 3 -24 12l-63 70l-64 -70c-8 -9 -11 -12 -24 -12h-103c-6 0 -9 3 -9 7c0 3 1 6 4 10l89 117
c9 11 13 15 27 15h160c14 0 18 -3 27 -15l88 -117c3 -4 4 -7 4 -10z" />
    <glyph glyph-name="Wdieresis" unicode="&#x1e84;" horiz-adv-x="889" 
d="M872 730v-2l-93 -655c-8 -58 -39 -76 -92 -76h-57c-44 0 -79 17 -92 68l-79 299c-2 8 -4 8 -9 8s-6 0 -8 -8l-79 -299c-13 -51 -48 -68 -92 -68h-57c-53 0 -84 18 -92 76l-93 655v2c0 10 8 13 16 13h136c8 0 15 -8 16 -19l57 -536c1 -9 2 -13 6 -13c3 0 5 4 7 13l72 275
c10 38 35 48 62 48h99c27 0 52 -10 62 -48l72 -275c2 -9 4 -13 7 -13c4 0 5 4 6 13l57 536c1 11 8 19 16 19h136c8 0 16 -3 16 -13zM627 821c0 -11 -11 -20 -22 -20h-94c-11 0 -21 9 -21 20v93c0 11 10 20 21 20h94c11 0 22 -9 22 -20v-93zM410 821c0 -11 -10 -20 -21 -20
h-94c-11 0 -22 9 -22 20v93c0 11 11 20 22 20h94c11 0 21 -9 21 -20v-93z" />
    <glyph glyph-name="Wgrave" unicode="&#x1e80;" horiz-adv-x="889" 
d="M872 730v-2l-93 -655c-8 -58 -39 -76 -92 -76h-57c-44 0 -79 17 -92 68l-79 299c-2 8 -4 8 -9 8s-6 0 -8 -8l-79 -299c-13 -51 -48 -68 -92 -68h-57c-53 0 -84 18 -92 76l-93 655v2c0 10 8 13 16 13h136c8 0 15 -8 16 -19l57 -536c1 -9 2 -13 6 -13c3 0 5 4 7 13l72 275
c10 38 35 48 62 48h99c27 0 52 -10 62 -48l72 -275c2 -9 4 -13 7 -13c4 0 5 4 6 13l57 536c1 11 8 19 16 19h136c8 0 16 -3 16 -13zM538 802c0 -4 -3 -7 -9 -7h-107c-13 0 -16 4 -24 12l-122 122c-3 3 -4 6 -4 8c0 4 4 7 11 7h132c14 0 18 -4 27 -15l92 -117
c3 -4 4 -7 4 -10z" />
    <glyph glyph-name="Ycircumflex" unicode="&#x176;" horiz-adv-x="647" 
d="M626 728c0 -2 0 -5 -1 -7l-151 -346c-20 -46 -41 -67 -65 -77v-278c0 -11 -9 -20 -20 -20h-131c-11 0 -20 9 -20 20v278c-24 10 -46 31 -66 77l-151 346c-1 2 -1 5 -1 7c0 8 6 15 16 15h144c10 0 17 -8 20 -17l108 -282c5 -13 8 -15 15 -15s10 2 15 15l108 282
c3 9 10 17 20 17h144c10 0 16 -7 16 -15zM525 802c0 -4 -3 -7 -9 -7h-103c-13 0 -16 3 -24 12l-63 70l-64 -70c-8 -9 -11 -12 -24 -12h-103c-6 0 -9 3 -9 7c0 3 1 6 4 10l89 117c9 11 13 15 27 15h160c14 0 18 -3 27 -15l88 -117c3 -4 4 -7 4 -10z" />
    <glyph glyph-name="Ygrave" unicode="&#x1ef2;" horiz-adv-x="647" 
d="M626 728c0 -2 0 -5 -1 -7l-151 -346c-20 -46 -41 -67 -65 -77v-278c0 -11 -9 -20 -20 -20h-131c-11 0 -20 9 -20 20v278c-24 10 -46 31 -66 77l-151 346c-1 2 -1 5 -1 7c0 8 6 15 16 15h144c10 0 17 -8 20 -17l108 -282c5 -13 8 -15 15 -15s10 2 15 15l108 282
c3 9 10 17 20 17h144c10 0 16 -7 16 -15zM408 802c0 -4 -3 -7 -9 -7h-107c-13 0 -16 4 -24 12l-122 122c-3 3 -4 6 -4 8c0 4 4 7 11 7h132c14 0 18 -4 27 -15l92 -117c3 -4 4 -7 4 -10z" />
    <glyph glyph-name="Zacute" unicode="&#x179;" horiz-adv-x="615" 
d="M565 20c0 -11 -9 -20 -20 -20h-454c-23 0 -41 9 -41 31v80c0 14 3 26 15 44l279 422c3 4 4 7 4 10c0 5 -4 8 -11 8h-249c-11 0 -20 8 -20 19v110c0 11 9 19 20 19h431c21 0 40 -9 40 -28c0 0 1 -10 1 -24c0 -27 -1 -67 -1 -67c0 -9 -3 -18 -8 -26l-282 -432
c-3 -4 -5 -8 -5 -11c0 -4 4 -7 11 -7h270c11 0 20 -7 20 -18v-110zM490 936c0 -2 -1 -5 -4 -8l-122 -122c-8 -8 -11 -12 -24 -12h-107c-6 0 -9 3 -9 7c0 3 1 6 4 10l93 117c9 11 13 15 27 15h131c7 0 11 -3 11 -7z" />
    <glyph glyph-name="Zdotaccent" unicode="&#x17b;" horiz-adv-x="615" 
d="M565 20c0 -11 -9 -20 -20 -20h-454c-23 0 -41 9 -41 31v80c0 14 3 26 15 44l279 422c3 4 4 7 4 10c0 5 -4 8 -11 8h-249c-11 0 -20 8 -20 19v110c0 11 9 19 20 19h431c21 0 40 -9 40 -28c0 0 1 -10 1 -24c0 -27 -1 -67 -1 -67c0 -9 -3 -18 -8 -26l-282 -432
c-3 -4 -5 -8 -5 -11c0 -4 4 -7 11 -7h270c11 0 20 -7 20 -18v-110zM392 822c0 -11 -9 -20 -20 -20h-130c-11 0 -20 9 -20 20v93c0 11 9 20 20 20h130c11 0 20 -9 20 -20v-93z" />
    <glyph glyph-name="Idotaccent" unicode="&#x130;" horiz-adv-x="311" 
d="M241 20c0 -11 -8 -20 -19 -20h-134c-11 0 -18 9 -18 20v704c0 11 7 19 18 19h134c11 0 19 -8 19 -19v-704zM239 822c0 -11 -9 -20 -20 -20h-130c-11 0 -20 9 -20 20v93c0 11 9 20 20 20h130c11 0 20 -9 20 -20v-93z" />
    <glyph glyph-name="abreve" unicode="&#x103;" horiz-adv-x="562" 
d="M502 20c0 -11 -9 -20 -20 -20h-112c-11 0 -20 9 -20 20v16c-39 -28 -79 -45 -139 -45c-87 0 -171 42 -171 172v9c0 117 75 169 246 169h54v36c0 57 -28 69 -75 69c-64 0 -135 -4 -166 -7h-5c-10 0 -18 5 -18 18v81c0 11 7 19 19 22c37 9 107 21 173 21
c144 0 234 -58 234 -204v-357zM343 135v110h-57c-70 0 -88 -24 -88 -73v-9c0 -42 21 -50 63 -50c30 0 58 10 82 22zM467 772c0 -1 -1 -2 -1 -4c-19 -80 -77 -145 -185 -145s-166 65 -185 145c0 2 -1 3 -1 4c0 5 4 7 10 7h87c8 0 11 -4 13 -12c11 -42 39 -57 76 -57
s65 15 76 57c2 8 3 12 13 12h87c6 0 10 -2 10 -7z" />
    <glyph glyph-name="amacron" unicode="&#x101;" horiz-adv-x="562" 
d="M502 20c0 -11 -9 -20 -20 -20h-112c-11 0 -20 9 -20 20v16c-39 -28 -79 -45 -139 -45c-87 0 -171 42 -171 172v9c0 117 75 169 246 169h54v36c0 57 -28 69 -75 69c-64 0 -135 -4 -166 -7h-5c-10 0 -18 5 -18 18v81c0 11 7 19 19 22c37 9 107 21 173 21
c144 0 234 -58 234 -204v-357zM343 135v110h-57c-70 0 -88 -24 -88 -73v-9c0 -42 21 -50 63 -50c30 0 58 10 82 22zM463 672c0 -11 -9 -19 -20 -19h-324c-11 0 -20 8 -20 19v72c0 11 9 19 20 19h324c11 0 20 -8 20 -19v-72z" />
    <glyph glyph-name="aogonek" unicode="&#x105;" horiz-adv-x="562" 
d="M491 2l-48 -32c-19 -12 -26 -21 -26 -36c0 -17 13 -21 28 -21c16 0 33 5 45 5c9 0 12 -2 12 -12v-75c0 -10 -5 -13 -11 -16c-16 -8 -48 -16 -89 -16c-68 0 -131 23 -131 97c0 47 20 74 71 106l8 5v29c-39 -28 -79 -45 -139 -45c-87 0 -171 42 -171 172v9
c0 117 75 169 246 169h54v36c0 57 -28 69 -75 69c-64 0 -135 -4 -166 -7h-5c-10 0 -18 5 -18 18v81c0 11 7 19 19 22c37 9 107 21 173 21c144 0 234 -58 234 -204v-357c0 -9 -2 -12 -11 -18zM343 135v110h-57c-70 0 -88 -24 -88 -73v-9c0 -42 21 -50 63 -50
c30 0 58 10 82 22z" />
    <glyph glyph-name="aeacute" unicode="&#x1fd;" horiz-adv-x="881" 
d="M835 265c0 -11 -10 -21 -21 -21h-310v-41c0 -57 43 -77 116 -77c38 0 135 4 173 8h5c10 0 16 -4 16 -16v-72c0 -15 -4 -21 -19 -26c-56 -19 -133 -29 -198 -29c-57 0 -106 16 -141 46c-53 -29 -125 -46 -195 -46c-113 0 -219 49 -219 181v11c0 117 98 158 259 158h42v9
c0 74 -21 96 -78 96c-62 0 -136 -4 -163 -7h-3c-10 0 -17 7 -17 18v79c0 11 8 21 20 24c34 9 103 21 163 21c74 0 131 -21 170 -60c40 38 89 60 158 60c169 0 242 -104 242 -252v-64zM680 332v18c0 65 -25 106 -88 106c-61 0 -88 -41 -88 -106v-18h176zM348 119v134h-47
c-70 0 -105 -18 -105 -70v-11c0 -49 38 -66 79 -66c26 0 53 4 73 13zM638 772c0 -2 -1 -5 -4 -8l-122 -122c-8 -8 -11 -12 -24 -12h-107c-6 0 -9 3 -9 7c0 3 1 6 4 10l93 117c9 11 13 15 27 15h131c7 0 11 -3 11 -7z" />
    <glyph glyph-name="cacute" unicode="&#x107;" horiz-adv-x="474" 
d="M432 29c0 -15 -6 -19 -21 -23c-28 -7 -73 -15 -133 -15c-141 0 -233 90 -233 253v84c0 163 92 253 233 253c60 0 105 -8 133 -15c15 -4 21 -8 21 -23v-89c0 -10 -9 -17 -19 -17h-2c-37 4 -65 7 -122 7c-45 0 -82 -27 -82 -116v-84c0 -89 37 -116 82 -116c57 0 85 3 122 7
h2c10 0 19 -7 19 -17v-89zM427 772c0 -2 -1 -5 -4 -8l-122 -122c-8 -8 -11 -12 -24 -12h-107c-6 0 -9 3 -9 7c0 3 1 6 4 10l93 117c9 11 13 15 27 15h131c7 0 11 -3 11 -7z" />
    <glyph glyph-name="ccaron" unicode="&#x10d;" horiz-adv-x="474" 
d="M432 29c0 -15 -6 -19 -21 -23c-28 -7 -73 -15 -133 -15c-141 0 -233 90 -233 253v84c0 163 92 253 233 253c60 0 105 -8 133 -15c15 -4 21 -8 21 -23v-89c0 -10 -9 -17 -19 -17h-2c-37 4 -65 7 -122 7c-45 0 -82 -27 -82 -116v-84c0 -89 37 -116 82 -116c57 0 85 3 122 7
h2c10 0 19 -7 19 -17v-89zM459 772c0 -3 -1 -6 -4 -10l-89 -117c-9 -11 -13 -15 -27 -15h-160c-14 0 -18 3 -27 15l-88 117c-3 4 -4 7 -4 10c0 4 3 7 9 7h103c13 0 16 -3 24 -12l63 -70l64 70c8 9 11 12 24 12h103c6 0 9 -3 9 -7z" />
    <glyph glyph-name="ccircumflex" unicode="&#x109;" horiz-adv-x="474" 
d="M432 29c0 -15 -6 -19 -21 -23c-28 -7 -73 -15 -133 -15c-141 0 -233 90 -233 253v84c0 163 92 253 233 253c60 0 105 -8 133 -15c15 -4 21 -8 21 -23v-89c0 -10 -9 -17 -19 -17h-2c-37 4 -65 7 -122 7c-45 0 -82 -27 -82 -116v-84c0 -89 37 -116 82 -116c57 0 85 3 122 7
h2c10 0 19 -7 19 -17v-89zM445 637c0 -4 -3 -7 -9 -7h-103c-13 0 -16 3 -24 12l-63 70l-64 -70c-8 -9 -11 -12 -24 -12h-103c-6 0 -9 3 -9 7c0 3 1 6 4 10l89 117c9 11 13 15 27 15h160c14 0 18 -3 27 -15l88 -117c3 -4 4 -7 4 -10z" />
    <glyph glyph-name="cdotaccent" unicode="&#x10b;" horiz-adv-x="474" 
d="M432 29c0 -15 -6 -19 -21 -23c-28 -7 -73 -15 -133 -15c-141 0 -233 90 -233 253v84c0 163 92 253 233 253c60 0 105 -8 133 -15c15 -4 21 -8 21 -23v-89c0 -10 -9 -17 -19 -17h-2c-37 4 -65 7 -122 7c-45 0 -82 -27 -82 -116v-84c0 -89 37 -116 82 -116c57 0 85 3 122 7
h2c10 0 19 -7 19 -17v-89zM349 658c0 -11 -9 -20 -20 -20h-130c-11 0 -20 9 -20 20v93c0 11 9 20 20 20h130c11 0 20 -9 20 -20v-93z" />
    <glyph glyph-name="dcaron" unicode="&#x10f;" horiz-adv-x="756" 
d="M781 756c0 -2 -1 -5 -2 -8l-75 -219c-5 -13 -9 -19 -19 -19h-101c-7 0 -9 4 -9 10c0 2 0 6 1 9l54 219c3 14 10 19 20 19h119c7 0 12 -4 12 -11zM537 46c0 -16 -4 -23 -31 -29c-57 -14 -136 -26 -213 -26c-162 0 -251 94 -251 256v78c0 157 82 256 251 256
c20 0 53 -3 82 -7v173c0 11 9 20 20 20h121c11 0 21 -9 21 -20v-701zM375 130v312c-24 3 -58 5 -82 5c-71 0 -89 -52 -89 -122v-78c0 -71 18 -123 89 -123c33 0 63 3 82 6z" />
    <glyph glyph-name="dcroat" unicode="&#x111;" horiz-adv-x="597" 
d="M240 713h135v34c0 11 9 20 20 20h121c11 0 21 -9 21 -20v-34h41c11 0 19 -8 19 -19v-37c0 -11 -8 -19 -19 -19h-41v-592c0 -16 -4 -23 -31 -29c-57 -14 -136 -26 -213 -26c-162 0 -251 94 -251 256v78c0 157 82 256 251 256c20 0 53 -3 82 -7v64h-135c-11 0 -19 8 -19 19
v37c0 11 8 19 19 19zM375 130v312c-24 3 -58 5 -82 5c-71 0 -89 -52 -89 -122v-78c0 -71 18 -123 89 -123c33 0 63 3 82 6z" />
    <glyph glyph-name="ebreve" unicode="&#x115;" horiz-adv-x="590" 
d="M545 260c0 -15 -8 -24 -21 -24h-319v-2c0 -57 24 -109 103 -109c63 0 152 5 192 9h3c11 0 19 -5 19 -16v-76c0 -16 -4 -23 -21 -27c-64 -16 -118 -24 -205 -24c-121 0 -251 64 -251 257v70c0 161 94 263 253 263c164 0 247 -112 247 -263v-58zM387 336v4
c0 74 -34 111 -90 111c-55 0 -92 -38 -92 -111v-4h182zM483 772c0 -1 -1 -2 -1 -4c-19 -80 -77 -145 -185 -145s-166 65 -185 145c0 2 -1 3 -1 4c0 5 4 7 10 7h87c8 0 11 -4 13 -12c11 -42 39 -57 76 -57s65 15 76 57c2 8 3 12 13 12h87c6 0 10 -2 10 -7z" />
    <glyph glyph-name="ecaron" unicode="&#x11b;" horiz-adv-x="590" 
d="M545 260c0 -15 -8 -24 -21 -24h-319v-2c0 -57 24 -109 103 -109c63 0 152 5 192 9h3c11 0 19 -5 19 -16v-76c0 -16 -4 -23 -21 -27c-64 -16 -118 -24 -205 -24c-121 0 -251 64 -251 257v70c0 161 94 263 253 263c164 0 247 -112 247 -263v-58zM387 336v4
c0 74 -34 111 -90 111c-55 0 -92 -38 -92 -111v-4h182zM495 772c0 -3 -1 -6 -4 -10l-89 -117c-9 -11 -13 -15 -27 -15h-160c-14 0 -18 3 -27 15l-88 117c-3 4 -4 7 -4 10c0 4 3 7 9 7h103c13 0 16 -3 24 -12l63 -70l64 70c8 9 11 12 24 12h103c6 0 9 -3 9 -7z" />
    <glyph glyph-name="edotaccent" unicode="&#x117;" horiz-adv-x="590" 
d="M545 260c0 -15 -8 -24 -21 -24h-319v-2c0 -57 24 -109 103 -109c63 0 152 5 192 9h3c11 0 19 -5 19 -16v-76c0 -16 -4 -23 -21 -27c-64 -16 -118 -24 -205 -24c-121 0 -251 64 -251 257v70c0 161 94 263 253 263c164 0 247 -112 247 -263v-58zM387 336v4
c0 74 -34 111 -90 111c-55 0 -92 -38 -92 -111v-4h182zM379 658c0 -11 -9 -20 -20 -20h-130c-11 0 -20 9 -20 20v93c0 11 9 20 20 20h130c11 0 20 -9 20 -20v-93z" />
    <glyph glyph-name="emacron" unicode="&#x113;" horiz-adv-x="590" 
d="M545 260c0 -15 -8 -24 -21 -24h-319v-2c0 -57 24 -109 103 -109c63 0 152 5 192 9h3c11 0 19 -5 19 -16v-76c0 -16 -4 -23 -21 -27c-64 -16 -118 -24 -205 -24c-121 0 -251 64 -251 257v70c0 161 94 263 253 263c164 0 247 -112 247 -263v-58zM387 336v4
c0 74 -34 111 -90 111c-55 0 -92 -38 -92 -111v-4h182zM477 672c0 -11 -9 -19 -20 -19h-324c-11 0 -20 8 -20 19v72c0 11 9 19 20 19h324c11 0 20 -8 20 -19v-72z" />
    <glyph glyph-name="eng" unicode="&#x14b;" horiz-adv-x="612" 
d="M552 -32c0 -133 -61 -171 -158 -171c-26 0 -51 2 -80 7c-13 2 -20 9 -20 20v79c0 11 8 18 21 18h44c28 0 31 13 31 47v386c0 70 -13 93 -74 93c-29 0 -60 -14 -94 -32v-394c0 -11 -9 -21 -20 -21h-121c-11 0 -21 10 -21 21v532c0 11 9 20 20 20h112c11 0 20 -9 20 -20
v-24c55 39 99 52 163 52c145 0 177 -101 177 -227v-386z" />
    <glyph glyph-name="eogonek" unicode="&#x119;" horiz-adv-x="590" 
d="M522 -166c0 -7 -1 -10 -11 -15c-14 -6 -63 -20 -118 -20c-68 0 -135 23 -135 97c0 41 18 69 57 95h-19c-121 0 -251 64 -251 257v70c0 161 94 263 253 263c164 0 247 -112 247 -263v-58c0 -15 -8 -24 -21 -24h-319v-2c0 -57 24 -109 103 -109c63 0 152 5 192 9h3
c11 0 19 -5 19 -16v-76c0 -11 -2 -18 -9 -22l-83 -50c-14 -9 -26 -17 -26 -30c0 -20 12 -27 34 -27c32 0 63 9 74 9c9 0 10 -2 10 -12v-76zM387 336v4c0 74 -34 111 -90 111c-55 0 -92 -38 -92 -111v-4h182z" />
    <glyph glyph-name="gbreve" unicode="&#x11f;" horiz-adv-x="599" 
d="M577 490c0 -14 -6 -18 -18 -22l-31 -10c12 -18 22 -50 22 -74v-8c0 -130 -91 -187 -247 -187c-47 0 -84 7 -104 15c-11 -7 -14 -14 -14 -23c0 -16 6 -23 30 -28l113 -25c174 -38 234 -65 234 -161v-8c0 -110 -86 -163 -262 -163c-166 0 -254 58 -254 163v8
c0 41 17 79 60 112c-36 20 -51 60 -51 93c0 37 19 65 44 85c-32 28 -46 79 -46 119v8c0 113 75 189 250 189h249c14 0 25 -12 25 -26v-57zM392 376v8c0 41 -18 72 -89 72s-91 -31 -91 -72v-8c0 -34 15 -70 91 -70c70 0 89 27 89 70zM397 -41v8c0 19 -13 32 -103 52l-74 16
c-12 -17 -20 -33 -20 -68v-8c0 -34 23 -51 100 -51c82 0 97 21 97 51zM486 772c0 -1 -1 -2 -1 -4c-19 -80 -77 -145 -185 -145s-166 65 -185 145c0 2 -1 3 -1 4c0 5 4 7 10 7h87c8 0 11 -4 13 -12c11 -42 39 -57 76 -57s65 15 76 57c2 8 3 12 13 12h87c6 0 10 -2 10 -7z" />
    <glyph glyph-name="gcircumflex" unicode="&#x11d;" horiz-adv-x="599" 
d="M577 490c0 -14 -6 -18 -18 -22l-31 -10c12 -18 22 -50 22 -74v-8c0 -130 -91 -187 -247 -187c-47 0 -84 7 -104 15c-11 -7 -14 -14 -14 -23c0 -16 6 -23 30 -28l113 -25c174 -38 234 -65 234 -161v-8c0 -110 -86 -163 -262 -163c-166 0 -254 58 -254 163v8
c0 41 17 79 60 112c-36 20 -51 60 -51 93c0 37 19 65 44 85c-32 28 -46 79 -46 119v8c0 113 75 189 250 189h249c14 0 25 -12 25 -26v-57zM392 376v8c0 41 -18 72 -89 72s-91 -31 -91 -72v-8c0 -34 15 -70 91 -70c70 0 89 27 89 70zM397 -41v8c0 19 -13 32 -103 52l-74 16
c-12 -17 -20 -33 -20 -68v-8c0 -34 23 -51 100 -51c82 0 97 21 97 51zM501 637c0 -4 -3 -7 -9 -7h-103c-13 0 -16 3 -24 12l-63 70l-64 -70c-8 -9 -11 -12 -24 -12h-103c-6 0 -9 3 -9 7c0 3 1 6 4 10l89 117c9 11 13 15 27 15h160c14 0 18 -3 27 -15l88 -117
c3 -4 4 -7 4 -10z" />
    <glyph glyph-name="gcommaaccent" unicode="&#x123;" horiz-adv-x="599" 
d="M577 490c0 -14 -6 -18 -18 -22l-31 -10c12 -18 22 -50 22 -74v-8c0 -130 -91 -187 -247 -187c-47 0 -84 7 -104 15c-11 -7 -14 -14 -14 -23c0 -16 6 -23 30 -28l113 -25c174 -38 234 -65 234 -161v-8c0 -110 -86 -163 -262 -163c-166 0 -254 58 -254 163v8
c0 41 17 79 60 112c-36 20 -51 60 -51 93c0 37 19 65 44 85c-32 28 -46 79 -46 119v8c0 113 75 189 250 189h249c14 0 25 -12 25 -26v-57zM392 376v8c0 41 -18 72 -89 72s-91 -31 -91 -72v-8c0 -34 15 -70 91 -70c70 0 89 27 89 70zM397 -41v8c0 19 -13 32 -103 52l-74 16
c-12 -17 -20 -33 -20 -68v-8c0 -34 23 -51 100 -51c82 0 97 21 97 51zM218 642c0 2 1 5 2 7l65 108c10 16 13 20 25 20h75c8 0 12 -5 12 -12c0 -2 0 -5 -1 -8l-26 -108c-3 -12 -9 -19 -20 -19h-117c-9 0 -15 5 -15 12z" />
    <glyph glyph-name="gdotaccent" unicode="&#x121;" horiz-adv-x="599" 
d="M577 490c0 -14 -6 -18 -18 -22l-31 -10c12 -18 22 -50 22 -74v-8c0 -130 -91 -187 -247 -187c-47 0 -84 7 -104 15c-11 -7 -14 -14 -14 -23c0 -16 6 -23 30 -28l113 -25c174 -38 234 -65 234 -161v-8c0 -110 -86 -163 -262 -163c-166 0 -254 58 -254 163v8
c0 41 17 79 60 112c-36 20 -51 60 -51 93c0 37 19 65 44 85c-32 28 -46 79 -46 119v8c0 113 75 189 250 189h249c14 0 25 -12 25 -26v-57zM392 376v8c0 41 -18 72 -89 72s-91 -31 -91 -72v-8c0 -34 15 -70 91 -70c70 0 89 27 89 70zM397 -41v8c0 19 -13 32 -103 52l-74 16
c-12 -17 -20 -33 -20 -68v-8c0 -34 23 -51 100 -51c82 0 97 21 97 51zM386 658c0 -11 -9 -20 -20 -20h-130c-11 0 -20 9 -20 20v93c0 11 9 20 20 20h130c11 0 20 -9 20 -20v-93z" />
    <glyph glyph-name="hbar" unicode="&#x127;" horiz-adv-x="612" 
d="M357 638h-135v-102c51 33 93 45 153 45c145 0 177 -101 177 -227v-333c0 -11 -10 -21 -21 -21h-121c-11 0 -20 10 -20 21v333c0 70 -13 93 -74 93c-29 0 -60 -14 -94 -32v-394c0 -11 -9 -21 -20 -21h-121c-11 0 -21 10 -21 21v617h-41c-11 0 -19 8 -19 19v37
c0 11 8 19 19 19h41v34c0 11 9 20 20 20h122c11 0 20 -9 20 -20v-34h135c11 0 19 -8 19 -19v-37c0 -11 -8 -19 -19 -19z" />
    <glyph glyph-name="hcircumflex" unicode="&#x125;" horiz-adv-x="612" 
d="M552 21c0 -11 -10 -21 -21 -21h-121c-11 0 -20 10 -20 21v333c0 70 -13 93 -74 93c-29 0 -60 -14 -94 -32v-394c0 -11 -9 -21 -20 -21h-121c-11 0 -21 10 -21 21v726c0 11 9 20 20 20h122c11 0 20 -9 20 -20v-211c51 33 93 45 153 45c145 0 177 -101 177 -227v-333z
M518 802c0 -4 -3 -7 -9 -7h-103c-13 0 -16 3 -24 12l-63 70l-64 -70c-8 -9 -11 -12 -24 -12h-103c-6 0 -9 3 -9 7c0 3 1 6 4 10l89 117c9 11 13 15 27 15h160c14 0 18 -3 27 -15l88 -117c3 -4 4 -7 4 -10z" />
    <glyph glyph-name="ibreve" unicode="&#x12d;" horiz-adv-x="290" 
d="M226 21c0 -11 -10 -21 -21 -21h-120c-11 0 -21 10 -21 21v531c0 11 10 21 21 21h120c11 0 21 -10 21 -21v-531zM330 772c0 -1 -1 -2 -1 -4c-19 -80 -77 -145 -185 -145s-166 65 -185 145c0 2 -1 3 -1 4c0 5 4 7 10 7h87c8 0 11 -4 13 -12c11 -42 39 -57 76 -57
s65 15 76 57c2 8 3 12 13 12h87c6 0 10 -2 10 -7z" />
    <glyph glyph-name="ij" unicode="&#x133;" horiz-adv-x="580" 
d="M230 658c0 -11 -9 -20 -20 -20h-130c-11 0 -20 9 -20 20v93c0 11 9 20 20 20h130c11 0 20 -9 20 -20v-93zM226 20c0 -11 -9 -20 -20 -20h-122c-11 0 -20 9 -20 20v533c0 11 9 20 20 20h122c11 0 20 -9 20 -20v-533zM520 658c0 -11 -10 -20 -21 -20h-129
c-11 0 -20 9 -20 20v93c0 11 9 20 20 20h129c11 0 21 -9 21 -20v-93zM516 -32c0 -133 -61 -171 -158 -171c-26 0 -51 2 -80 7c-13 2 -20 9 -20 20v79c0 11 8 18 21 18h44c28 0 31 13 31 47v584c0 11 8 21 19 21h124c11 0 19 -10 19 -21v-584z" />
    <glyph glyph-name="imacron" unicode="&#x12b;" horiz-adv-x="290" 
d="M226 21c0 -11 -10 -21 -21 -21h-120c-11 0 -21 10 -21 21v531c0 11 10 21 21 21h120c11 0 21 -10 21 -21v-531zM327 672c0 -11 -9 -19 -20 -19h-324c-11 0 -20 8 -20 19v72c0 11 9 19 20 19h324c11 0 20 -8 20 -19v-72z" />
    <glyph glyph-name="iogonek" unicode="&#x12f;" horiz-adv-x="290" 
d="M226 20c0 -7 -1 -12 -9 -18l-39 -28c-15 -11 -21 -20 -21 -33c0 -19 14 -28 38 -28c27 0 58 9 69 9c9 0 10 -2 10 -12v-76c0 -7 -1 -10 -11 -15c-14 -6 -63 -20 -118 -20c-68 0 -135 23 -135 97c0 40 13 75 54 102v554c0 11 10 21 21 21h120c11 0 21 -10 21 -21v-532z
M230 658c0 -11 -9 -20 -20 -20h-130c-11 0 -20 9 -20 20v93c0 11 9 20 20 20h130c11 0 20 -9 20 -20v-93z" />
    <glyph glyph-name="itilde" unicode="&#x129;" horiz-adv-x="290" 
d="M226 21c0 -11 -10 -21 -21 -21h-120c-11 0 -21 10 -21 21v531c0 11 10 21 21 21h120c11 0 21 -10 21 -21v-531zM342 746c0 -88 -47 -120 -122 -120c-20 0 -50 8 -71 22l-42 29c-17 12 -30 18 -41 18c-13 0 -23 -6 -23 -27v-19c0 -11 -5 -17 -15 -17h-71
c-10 0 -15 6 -15 17v19c0 86 48 119 123 119c20 0 49 -7 70 -21l43 -28c17 -11 29 -18 40 -18c15 0 23 6 23 27v19c0 11 6 16 16 16h70c10 0 15 -5 15 -16v-20z" />
    <glyph glyph-name="jcircumflex" unicode="&#x135;" horiz-adv-x="290" 
d="M226 -32c0 -133 -61 -171 -158 -171c-26 0 -51 2 -80 7c-13 2 -20 9 -20 20v79c0 11 8 18 21 18h44c28 0 31 13 31 47v584c0 11 8 21 19 21h124c11 0 19 -10 19 -21v-584zM342 637c0 -4 -3 -7 -9 -7h-103c-13 0 -16 3 -24 12l-63 70l-64 -70c-8 -9 -11 -12 -24 -12h-103
c-6 0 -9 3 -9 7c0 3 1 6 4 10l89 117c9 11 13 15 27 15h160c14 0 18 -3 27 -15l88 -117c3 -4 4 -7 4 -10z" />
    <glyph glyph-name="kcommaaccent" unicode="&#x137;" horiz-adv-x="588" 
d="M558 562c0 -3 -1 -6 -4 -10l-186 -253l185 -278c2 -2 2 -5 2 -8c0 -7 -5 -13 -13 -13h-151c-11 0 -17 2 -25 14l-144 235v-228c0 -11 -9 -21 -20 -21h-121c-11 0 -21 10 -21 21v726c0 11 10 20 21 20h121c11 0 20 -9 20 -20v-418l152 229c8 12 18 15 26 15h143
c9 0 15 -5 15 -11zM342 -38c17 0 18 -9 13 -19l-69 -118c-10 -16 -13 -20 -25 -20h-75c-8 0 -15 5 -11 20l30 118c3 12 9 19 20 19h117z" />
    <glyph glyph-name="lacute" unicode="&#x13a;" horiz-adv-x="282" 
d="M222 21c0 -11 -8 -21 -19 -21h-122c-11 0 -21 10 -21 21v726c0 11 10 20 21 20h122c11 0 19 -9 19 -20v-726zM309 951c0 -2 -1 -5 -4 -8l-122 -122c-8 -8 -11 -12 -24 -12h-107c-6 0 -9 3 -9 7c0 3 1 6 4 10l93 117c9 11 13 15 27 15h131c7 0 11 -3 11 -7z" />
    <glyph glyph-name="lcaron" unicode="&#x13e;" horiz-adv-x="445" 
d="M222 21c0 -11 -8 -21 -19 -21h-122c-11 0 -21 10 -21 21v726c0 11 10 20 21 20h122c11 0 19 -9 19 -20v-726zM470 756c0 -2 -1 -5 -2 -8l-75 -219c-5 -13 -9 -19 -19 -19h-101c-7 0 -9 4 -9 10c0 2 0 6 1 9l54 219c3 14 10 19 20 19h119c7 0 12 -4 12 -11z" />
    <glyph glyph-name="lcommaaccent" unicode="&#x13c;" horiz-adv-x="282" 
d="M222 21c0 -11 -8 -21 -19 -21h-122c-11 0 -21 10 -21 21v726c0 11 10 20 21 20h122c11 0 19 -9 19 -20v-726zM199 -38c17 0 18 -9 13 -19l-69 -118c-10 -16 -13 -20 -25 -20h-75c-8 0 -15 5 -11 20l30 118c3 12 9 19 20 19h117z" />
    <glyph glyph-name="ldot" unicode="&#x140;" horiz-adv-x="467" 
d="M222 21c0 -11 -8 -21 -19 -21h-122c-11 0 -21 10 -21 21v726c0 11 10 20 21 20h122c11 0 19 -9 19 -20v-726zM437 362c0 -11 -9 -20 -20 -20h-130c-11 0 -20 9 -20 20v93c0 11 9 20 20 20h130c11 0 20 -9 20 -20v-93z" />
    <glyph glyph-name="nacute" unicode="&#x144;" horiz-adv-x="612" 
d="M552 21c0 -11 -10 -21 -21 -21h-121c-11 0 -20 10 -20 21v333c0 70 -13 93 -74 93c-29 0 -60 -14 -94 -32v-394c0 -11 -9 -21 -20 -21h-121c-11 0 -21 10 -21 21v532c0 11 9 20 20 20h112c11 0 20 -9 20 -20v-24c55 39 99 52 163 52c145 0 177 -101 177 -227v-333z
M474 772c0 -2 -1 -5 -4 -8l-122 -122c-8 -8 -11 -12 -24 -12h-107c-6 0 -9 3 -9 7c0 3 1 6 4 10l93 117c9 11 13 15 27 15h131c7 0 11 -3 11 -7z" />
    <glyph glyph-name="ncaron" unicode="&#x148;" horiz-adv-x="612" 
d="M552 21c0 -11 -10 -21 -21 -21h-121c-11 0 -20 10 -20 21v333c0 70 -13 93 -74 93c-29 0 -60 -14 -94 -32v-394c0 -11 -9 -21 -20 -21h-121c-11 0 -21 10 -21 21v532c0 11 9 20 20 20h112c11 0 20 -9 20 -20v-24c55 39 99 52 163 52c145 0 177 -101 177 -227v-333z
M506 772c0 -3 -1 -6 -4 -10l-89 -117c-9 -11 -13 -15 -27 -15h-160c-14 0 -18 3 -27 15l-88 117c-3 4 -4 7 -4 10c0 4 3 7 9 7h103c13 0 16 -3 24 -12l63 -70l64 70c8 9 11 12 24 12h103c6 0 9 -3 9 -7z" />
    <glyph glyph-name="ncommaaccent" unicode="&#x146;" horiz-adv-x="612" 
d="M552 21c0 -11 -10 -21 -21 -21h-121c-11 0 -20 10 -20 21v333c0 70 -13 93 -74 93c-29 0 -60 -14 -94 -32v-394c0 -11 -9 -21 -20 -21h-121c-11 0 -21 10 -21 21v532c0 11 9 20 20 20h112c11 0 20 -9 20 -20v-24c55 39 99 52 163 52c145 0 177 -101 177 -227v-333z
M351 -38c17 0 18 -9 13 -19l-69 -118c-10 -16 -13 -20 -25 -20h-75c-8 0 -15 5 -11 20l30 118c3 12 9 19 20 19h117z" />
    <glyph glyph-name="obreve" unicode="&#x14f;" horiz-adv-x="589" 
d="M545 251c0 -159 -88 -260 -250 -260s-251 101 -251 260v70c0 159 89 260 251 260s250 -101 250 -260v-70zM384 251v70c0 81 -31 122 -89 122s-90 -41 -90 -122v-70c0 -81 32 -123 90 -123s89 42 89 123zM483 772c0 -1 -1 -2 -1 -4c-19 -80 -77 -145 -185 -145
s-166 65 -185 145c0 2 -1 3 -1 4c0 5 4 7 10 7h87c8 0 11 -4 13 -12c11 -42 39 -57 76 -57s65 15 76 57c2 8 3 12 13 12h87c6 0 10 -2 10 -7z" />
    <glyph glyph-name="ohungarumlaut" unicode="&#x151;" horiz-adv-x="589" 
d="M545 251c0 -159 -88 -260 -250 -260s-251 101 -251 260v70c0 159 89 260 251 260s250 -101 250 -260v-70zM384 251v70c0 81 -31 122 -89 122s-90 -41 -90 -122v-70c0 -81 32 -123 90 -123s89 42 89 123zM580 772c0 -2 -1 -5 -4 -8l-122 -122c-8 -8 -12 -12 -25 -12h-107
c-6 0 -9 3 -9 7c0 3 1 6 4 10l93 117c9 11 13 15 27 15h132c7 0 11 -3 11 -7zM347 772c0 -2 -1 -5 -4 -8l-122 -122c-8 -8 -12 -12 -25 -12h-107c-6 0 -9 3 -9 7c0 3 1 6 4 10l93 117c9 11 13 15 27 15h132c7 0 11 -3 11 -7z" />
    <glyph glyph-name="omacron" unicode="&#x14d;" horiz-adv-x="589" 
d="M545 251c0 -159 -88 -260 -250 -260s-251 101 -251 260v70c0 159 89 260 251 260s250 -101 250 -260v-70zM384 251v70c0 81 -31 122 -89 122s-90 -41 -90 -122v-70c0 -81 32 -123 90 -123s89 42 89 123zM477 672c0 -11 -9 -19 -20 -19h-324c-11 0 -20 8 -20 19v72
c0 11 9 19 20 19h324c11 0 20 -8 20 -19v-72z" />
    <glyph glyph-name="oslashacute" unicode="&#x1ff;" horiz-adv-x="589" 
d="M559 598c0 -3 -1 -8 -4 -11l-65 -87c36 -44 55 -106 55 -179v-70c0 -159 -88 -260 -250 -260c-61 0 -111 14 -150 40l-42 -56c-7 -9 -10 -10 -16 -10h-50c-6 0 -8 3 -8 8c0 3 1 7 4 11l66 89c-36 44 -55 105 -55 178v70c0 159 89 260 251 260c60 0 111 -14 150 -40l40 55
c7 9 10 10 16 10h50c6 0 8 -3 8 -8zM355 420c-15 15 -35 23 -60 23c-58 0 -90 -41 -90 -122v-70c0 -11 1 -22 2 -32zM384 251v70c0 11 -1 22 -2 32l-148 -201c15 -16 35 -24 61 -24c58 0 89 42 89 123zM480 772c0 -2 -1 -5 -4 -8l-122 -122c-8 -8 -11 -12 -24 -12h-107
c-6 0 -9 3 -9 7c0 3 1 6 4 10l93 117c9 11 13 15 27 15h131c7 0 11 -3 11 -7z" />
    <glyph glyph-name="racute" unicode="&#x155;" horiz-adv-x="396" 
d="M374 466c0 -9 -6 -19 -15 -19h-8c-49 0 -92 -15 -129 -35v-391c0 -11 -9 -21 -20 -21h-121c-11 0 -21 10 -21 21v532c0 11 9 20 20 20h119c11 0 20 -9 20 -20v-20c37 31 87 48 135 48c11 0 20 -9 20 -20v-95zM366 772c0 -2 -1 -5 -4 -8l-122 -122c-8 -8 -11 -12 -24 -12
h-107c-6 0 -9 3 -9 7c0 3 1 6 4 10l93 117c9 11 13 15 27 15h131c7 0 11 -3 11 -7z" />
    <glyph glyph-name="rcaron" unicode="&#x159;" horiz-adv-x="396" 
d="M374 466c0 -9 -6 -19 -15 -19h-8c-49 0 -92 -15 -129 -35v-391c0 -11 -9 -21 -20 -21h-121c-11 0 -21 10 -21 21v532c0 11 9 20 20 20h119c11 0 20 -9 20 -20v-20c37 31 87 48 135 48c11 0 20 -9 20 -20v-95zM397 772c0 -3 -1 -6 -4 -10l-89 -117c-9 -11 -13 -15 -27 -15
h-160c-14 0 -18 3 -27 15l-88 117c-3 4 -4 7 -4 10c0 4 3 7 9 7h103c13 0 16 -3 24 -12l63 -70l64 70c8 9 11 12 24 12h103c6 0 9 -3 9 -7z" />
    <glyph glyph-name="rcommaaccent" unicode="&#x157;" horiz-adv-x="396" 
d="M374 466c0 -9 -6 -19 -15 -19h-8c-49 0 -92 -15 -129 -35v-391c0 -11 -9 -21 -20 -21h-121c-11 0 -21 10 -21 21v532c0 11 9 20 20 20h119c11 0 20 -9 20 -20v-20c37 31 87 48 135 48c11 0 20 -9 20 -20v-95zM256 -38c17 0 18 -9 13 -19l-69 -118
c-10 -16 -13 -20 -25 -20h-75c-8 0 -15 5 -11 20l30 118c3 12 9 19 20 19h117z" />
    <glyph glyph-name="sacute" unicode="&#x15b;" horiz-adv-x="503" 
d="M461 159c0 -94 -68 -168 -214 -168c-55 0 -131 8 -182 22c-12 3 -19 11 -19 23v81c0 10 7 19 19 19h4c54 -7 138 -14 170 -14c48 0 59 13 59 39c0 15 -9 26 -37 42l-130 75c-56 32 -89 83 -89 148c0 101 67 155 205 155c79 0 127 -10 178 -23c12 -3 19 -11 19 -23v-81
c0 -12 -7 -19 -17 -19h-3c-29 4 -115 13 -166 13c-39 0 -53 -6 -53 -29c0 -15 11 -23 31 -35l124 -71c83 -48 101 -100 101 -154zM419 772c0 -2 -1 -5 -4 -8l-122 -122c-8 -8 -11 -12 -24 -12h-107c-6 0 -9 3 -9 7c0 3 1 6 4 10l93 117c9 11 13 15 27 15h131
c7 0 11 -3 11 -7z" />
    <glyph glyph-name="uni015F" unicode="&#x15f;" horiz-adv-x="503" 
d="M461 159c0 -94 -68 -168 -214 -168c-55 0 -131 8 -182 22c-12 3 -19 11 -19 23v81c0 10 7 19 19 19h4c54 -7 138 -14 170 -14c48 0 59 13 59 39c0 15 -9 26 -37 42l-130 75c-56 32 -89 83 -89 148c0 101 67 155 205 155c79 0 127 -10 178 -23c12 -3 19 -11 19 -23v-81
c0 -12 -7 -19 -17 -19h-3c-29 4 -115 13 -166 13c-39 0 -53 -6 -53 -29c0 -15 11 -23 31 -35l124 -71c83 -48 101 -100 101 -154zM345 -45c0 -2 -1 -5 -4 -8l-127 -130c-8 -8 -11 -12 -24 -12h-107c-6 0 -9 3 -9 7c0 3 1 6 4 10l97 125c9 11 13 15 27 15h132
c7 0 11 -3 11 -7z" />
    <glyph glyph-name="scircumflex" unicode="&#x15d;" horiz-adv-x="503" 
d="M461 159c0 -94 -68 -168 -214 -168c-55 0 -131 8 -182 22c-12 3 -19 11 -19 23v81c0 10 7 19 19 19h4c54 -7 138 -14 170 -14c48 0 59 13 59 39c0 15 -9 26 -37 42l-130 75c-56 32 -89 83 -89 148c0 101 67 155 205 155c79 0 127 -10 178 -23c12 -3 19 -11 19 -23v-81
c0 -12 -7 -19 -17 -19h-3c-29 4 -115 13 -166 13c-39 0 -53 -6 -53 -29c0 -15 11 -23 31 -35l124 -71c83 -48 101 -100 101 -154zM440 637c0 -4 -3 -7 -9 -7h-103c-13 0 -16 3 -24 12l-63 70l-64 -70c-8 -9 -11 -12 -24 -12h-103c-6 0 -9 3 -9 7c0 3 1 6 4 10l89 117
c9 11 13 15 27 15h160c14 0 18 -3 27 -15l88 -117c3 -4 4 -7 4 -10z" />
    <glyph glyph-name="uni0219" unicode="&#x219;" horiz-adv-x="503" 
d="M461 159c0 -94 -68 -168 -214 -168c-55 0 -131 8 -182 22c-12 3 -19 11 -19 23v81c0 10 7 19 19 19h4c54 -7 138 -14 170 -14c48 0 59 13 59 39c0 15 -9 26 -37 42l-130 75c-56 32 -89 83 -89 148c0 101 67 155 205 155c79 0 127 -10 178 -23c12 -3 19 -11 19 -23v-81
c0 -12 -7 -19 -17 -19h-3c-29 4 -115 13 -166 13c-39 0 -53 -6 -53 -29c0 -15 11 -23 31 -35l124 -71c83 -48 101 -100 101 -154zM308 -38c17 0 18 -9 13 -19l-69 -118c-10 -16 -13 -20 -25 -20h-75c-8 0 -15 5 -11 20l30 118c3 12 9 19 20 19h117z" />
    <glyph glyph-name="tbar" unicode="&#x167;" horiz-adv-x="421" 
d="M390 19c0 -10 -7 -18 -19 -20c-30 -5 -50 -8 -79 -8c-110 0 -168 29 -168 171v90l-80 13c-11 2 -21 10 -21 21v66c0 11 10 21 21 21h80v79l-80 13c-11 2 -21 10 -21 21v66c0 11 10 21 21 21h80v82c0 11 9 18 20 20l122 21c14 2 21 -6 21 -17v-106h82c11 0 20 -9 20 -20
v-81c0 -11 -9 -20 -20 -20h-82v-79h82c11 0 20 -9 20 -20v-81c0 -11 -9 -20 -20 -20h-82v-91c0 -40 3 -47 33 -47h49c13 0 21 -6 21 -17v-78z" />
    <glyph glyph-name="tcaron" unicode="&#x165;" horiz-adv-x="612" 
d="M390 19c0 -10 -7 -18 -19 -20c-30 -5 -50 -8 -79 -8c-110 0 -168 29 -168 171v290l-80 13c-11 2 -21 10 -21 21v66c0 11 10 21 21 21h80v82c0 11 9 18 20 20l122 21h3c10 0 18 -7 18 -17v-106h82c11 0 20 -9 20 -20v-81c0 -11 -9 -20 -20 -20h-82v-291
c0 -40 3 -47 33 -47h49c13 0 21 -6 21 -17v-78zM637 756c0 -2 -1 -5 -2 -8l-75 -219c-5 -13 -9 -19 -19 -19h-101c-7 0 -9 4 -9 10c0 2 0 6 1 9l54 219c3 14 10 19 20 19h119c7 0 12 -4 12 -11z" />
    <glyph glyph-name="tcommaaccent" unicode="&#x163;" horiz-adv-x="421" 
d="M390 19c0 -10 -7 -18 -19 -20c-30 -5 -50 -8 -79 -8c-110 0 -168 29 -168 171v290l-80 13c-11 2 -21 10 -21 21v66c0 11 10 21 21 21h80v82c0 11 9 18 20 20l122 21h3c10 0 18 -7 18 -17v-106h82c11 0 20 -9 20 -20v-81c0 -11 -9 -20 -20 -20h-82v-291
c0 -40 3 -47 33 -47h49c13 0 21 -6 21 -17v-78zM269 -38c17 0 18 -9 13 -19l-69 -118c-10 -16 -13 -20 -25 -20h-75c-8 0 -15 5 -11 20l30 118c3 12 9 19 20 19h117z" />
    <glyph glyph-name="ubreve" unicode="&#x16d;" horiz-adv-x="612" 
d="M552 20c0 -11 -9 -20 -20 -20h-112c-11 0 -20 9 -20 20v24c-55 -39 -99 -52 -163 -52c-145 0 -177 101 -177 227v333c0 11 10 21 21 21h121c11 0 20 -10 20 -21v-333c0 -70 13 -93 74 -93c29 0 60 14 94 32v394c0 11 9 21 20 21h121c11 0 21 -10 21 -21v-532zM490 772
c0 -1 -1 -2 -1 -4c-19 -80 -77 -145 -185 -145s-166 65 -185 145c0 2 -1 3 -1 4c0 5 4 7 10 7h87c8 0 11 -4 13 -12c11 -42 39 -57 76 -57s65 15 76 57c2 8 3 12 13 12h87c6 0 10 -2 10 -7z" />
    <glyph glyph-name="uhungarumlaut" unicode="&#x171;" horiz-adv-x="612" 
d="M552 20c0 -11 -9 -20 -20 -20h-112c-11 0 -20 9 -20 20v24c-55 -39 -99 -52 -163 -52c-145 0 -177 101 -177 227v333c0 11 10 21 21 21h121c11 0 20 -10 20 -21v-333c0 -70 13 -93 74 -93c29 0 60 14 94 32v394c0 11 9 21 20 21h121c11 0 21 -10 21 -21v-532zM591 772
c0 -2 -1 -5 -4 -8l-122 -122c-8 -8 -12 -12 -25 -12h-107c-6 0 -9 3 -9 7c0 3 1 6 4 10l93 117c9 11 13 15 27 15h132c7 0 11 -3 11 -7zM358 772c0 -2 -1 -5 -4 -8l-122 -122c-8 -8 -12 -12 -25 -12h-107c-6 0 -9 3 -9 7c0 3 1 6 4 10l93 117c9 11 13 15 27 15h132
c7 0 11 -3 11 -7z" />
    <glyph glyph-name="umacron" unicode="&#x16b;" horiz-adv-x="612" 
d="M552 20c0 -11 -9 -20 -20 -20h-112c-11 0 -20 9 -20 20v24c-55 -39 -99 -52 -163 -52c-145 0 -177 101 -177 227v333c0 11 10 21 21 21h121c11 0 20 -10 20 -21v-333c0 -70 13 -93 74 -93c29 0 60 14 94 32v394c0 11 9 21 20 21h121c11 0 21 -10 21 -21v-532zM488 672
c0 -11 -9 -19 -20 -19h-324c-11 0 -20 8 -20 19v72c0 11 9 19 20 19h324c11 0 20 -8 20 -19v-72z" />
    <glyph glyph-name="uogonek" unicode="&#x173;" horiz-adv-x="612" 
d="M400 7v37c-55 -39 -99 -52 -163 -52c-145 0 -177 101 -177 227v333c0 11 10 21 21 21h121c11 0 20 -10 20 -21v-333c0 -70 13 -93 74 -93c29 0 60 14 94 32v394c0 11 9 21 20 21h121c11 0 21 -10 21 -21v-532c0 -9 -2 -12 -11 -18l-48 -32c-19 -12 -26 -21 -26 -36
c0 -17 13 -21 28 -21c16 0 33 5 45 5c9 0 12 -2 12 -12v-75c0 -10 -5 -13 -11 -16c-16 -8 -48 -16 -89 -16c-68 0 -131 23 -131 97c0 47 20 74 71 106z" />
    <glyph glyph-name="uring" unicode="&#x16f;" horiz-adv-x="612" 
d="M552 20c0 -11 -9 -20 -20 -20h-112c-11 0 -20 9 -20 20v24c-55 -39 -99 -52 -163 -52c-145 0 -177 101 -177 227v333c0 11 10 21 21 21h121c11 0 20 -10 20 -21v-333c0 -70 13 -93 74 -93c29 0 60 14 94 32v394c0 11 9 21 20 21h121c11 0 21 -10 21 -21v-532zM423 711
c0 -65 -52 -117 -117 -117s-117 52 -117 117s52 117 117 117s117 -52 117 -117zM350 711c0 24 -20 44 -44 44s-44 -20 -44 -44s20 -44 44 -44s44 20 44 44z" />
    <glyph glyph-name="utilde" unicode="&#x169;" horiz-adv-x="612" 
d="M552 20c0 -11 -9 -20 -20 -20h-112c-11 0 -20 9 -20 20v24c-55 -39 -99 -52 -163 -52c-145 0 -177 101 -177 227v333c0 11 10 21 21 21h121c11 0 20 -10 20 -21v-333c0 -70 13 -93 74 -93c29 0 60 14 94 32v394c0 11 9 21 20 21h121c11 0 21 -10 21 -21v-532zM504 746
c0 -88 -47 -120 -122 -120c-20 0 -50 8 -71 22l-42 29c-17 12 -30 18 -41 18c-13 0 -23 -6 -23 -27v-19c0 -11 -5 -17 -15 -17h-71c-10 0 -15 6 -15 17v19c0 86 48 119 123 119c20 0 49 -7 70 -21l43 -28c17 -11 29 -18 40 -18c15 0 23 6 23 27v19c0 11 6 16 16 16h70
c10 0 15 -5 15 -16v-20z" />
    <glyph glyph-name="wacute" unicode="&#x1e83;" horiz-adv-x="845" 
d="M816 556v-4l-89 -482c-11 -57 -46 -70 -88 -70h-61c-48 0 -74 26 -84 64l-67 261c-1 5 -2 5 -5 5s-4 0 -5 -5l-67 -261c-10 -38 -36 -64 -84 -64h-61c-42 0 -77 13 -88 70l-89 482v4c0 9 6 17 15 17h121c12 0 19 -2 21 -17l59 -380c1 -8 4 -13 6 -13c3 0 6 4 8 13l67 264
c9 35 24 45 56 45h82c32 0 47 -10 56 -45l67 -264c2 -9 5 -13 8 -13c2 0 5 5 6 13l59 380c2 15 9 17 21 17h121c9 0 15 -8 15 -17zM607 772c0 -2 -1 -5 -4 -8l-122 -122c-8 -8 -11 -12 -24 -12h-107c-6 0 -9 3 -9 7c0 3 1 6 4 10l93 117c9 11 13 15 27 15h131
c7 0 11 -3 11 -7z" />
    <glyph glyph-name="wcircumflex" unicode="&#x175;" horiz-adv-x="845" 
d="M816 556v-4l-89 -482c-11 -57 -46 -70 -88 -70h-61c-48 0 -74 26 -84 64l-67 261c-1 5 -2 5 -5 5s-4 0 -5 -5l-67 -261c-10 -38 -36 -64 -84 -64h-61c-42 0 -77 13 -88 70l-89 482v4c0 9 6 17 15 17h121c12 0 19 -2 21 -17l59 -380c1 -8 4 -13 6 -13c3 0 6 4 8 13l67 264
c9 35 24 45 56 45h82c32 0 47 -10 56 -45l67 -264c2 -9 5 -13 8 -13c2 0 5 5 6 13l59 380c2 15 9 17 21 17h121c9 0 15 -8 15 -17zM623 637c0 -4 -3 -7 -9 -7h-103c-13 0 -16 3 -24 12l-63 70l-64 -70c-8 -9 -11 -12 -24 -12h-103c-6 0 -9 3 -9 7c0 3 1 6 4 10l89 117
c9 11 13 15 27 15h160c14 0 18 -3 27 -15l88 -117c3 -4 4 -7 4 -10z" />
    <glyph glyph-name="wdieresis" unicode="&#x1e85;" horiz-adv-x="845" 
d="M816 556v-4l-89 -482c-11 -57 -46 -70 -88 -70h-61c-48 0 -74 26 -84 64l-67 261c-1 5 -2 5 -5 5s-4 0 -5 -5l-67 -261c-10 -38 -36 -64 -84 -64h-61c-42 0 -77 13 -88 70l-89 482v4c0 9 6 17 15 17h121c12 0 19 -2 21 -17l59 -380c1 -8 4 -13 6 -13c3 0 6 4 8 13l67 264
c9 35 24 45 56 45h82c32 0 47 -10 56 -45l67 -264c2 -9 5 -13 8 -13c2 0 5 5 6 13l59 380c2 15 9 17 21 17h121c9 0 15 -8 15 -17zM599 658c0 -11 -11 -20 -22 -20h-94c-11 0 -21 9 -21 20v93c0 11 10 20 21 20h94c11 0 22 -9 22 -20v-93zM382 658c0 -11 -10 -20 -21 -20
h-94c-11 0 -22 9 -22 20v93c0 11 11 20 22 20h94c11 0 21 -9 21 -20v-93z" />
    <glyph glyph-name="wgrave" unicode="&#x1e81;" horiz-adv-x="845" 
d="M816 556v-4l-89 -482c-11 -57 -46 -70 -88 -70h-61c-48 0 -74 26 -84 64l-67 261c-1 5 -2 5 -5 5s-4 0 -5 -5l-67 -261c-10 -38 -36 -64 -84 -64h-61c-42 0 -77 13 -88 70l-89 482v4c0 9 6 17 15 17h121c12 0 19 -2 21 -17l59 -380c1 -8 4 -13 6 -13c3 0 6 4 8 13l67 264
c9 35 24 45 56 45h82c32 0 47 -10 56 -45l67 -264c2 -9 5 -13 8 -13c2 0 5 5 6 13l59 380c2 15 9 17 21 17h121c9 0 15 -8 15 -17zM504 637c0 -4 -3 -7 -9 -7h-107c-13 0 -16 4 -24 12l-122 122c-3 3 -4 6 -4 8c0 4 4 7 11 7h132c14 0 18 -4 27 -15l92 -117c3 -4 4 -7 4 -10
z" />
    <glyph glyph-name="ycircumflex" unicode="&#x177;" horiz-adv-x="592" 
d="M570 555c0 -2 -1 -3 -1 -5l-168 -589c-31 -108 -72 -163 -219 -163c-37 0 -96 8 -121 16c-11 4 -21 7 -21 18v81c0 11 9 19 20 19h2c33 -2 92 -8 125 -8c36 0 54 12 66 52l9 31h-15c-37 0 -68 6 -93 93l-132 450c-1 3 -1 5 -1 7c0 10 6 16 20 16h133c10 0 17 -9 19 -19
l90 -376c3 -14 6 -19 12 -19h1h4h4l93 395c2 10 10 19 21 19h133c10 0 19 -8 19 -18zM496 637c0 -4 -3 -7 -9 -7h-103c-13 0 -16 3 -24 12l-63 70l-64 -70c-8 -9 -11 -12 -24 -12h-103c-6 0 -9 3 -9 7c0 3 1 6 4 10l89 117c9 11 13 15 27 15h160c14 0 18 -3 27 -15l88 -117
c3 -4 4 -7 4 -10z" />
    <glyph glyph-name="ygrave" unicode="&#x1ef3;" horiz-adv-x="592" 
d="M570 555c0 -2 -1 -3 -1 -5l-168 -589c-31 -108 -72 -163 -219 -163c-37 0 -96 8 -121 16c-11 4 -21 7 -21 18v81c0 11 9 19 20 19h2c33 -2 92 -8 125 -8c36 0 54 12 66 52l9 31h-15c-37 0 -68 6 -93 93l-132 450c-1 3 -1 5 -1 7c0 10 6 16 20 16h133c10 0 17 -9 19 -19
l90 -376c3 -14 6 -19 12 -19h1h4h4l93 395c2 10 10 19 21 19h133c10 0 19 -8 19 -18zM380 637c0 -4 -3 -7 -9 -7h-107c-13 0 -16 4 -24 12l-122 122c-3 3 -4 6 -4 8c0 4 4 7 11 7h132c14 0 18 -4 27 -15l92 -117c3 -4 4 -7 4 -10z" />
    <glyph glyph-name="zacute" unicode="&#x17a;" horiz-adv-x="515" 
d="M472 20c0 -11 -9 -20 -20 -20h-375c-18 0 -34 15 -34 33v64c0 14 4 24 14 38l217 296c2 3 3 5 3 7c0 3 -3 5 -7 5h-201c-10 0 -17 6 -17 16v94c0 11 9 20 20 20h365c18 0 33 -16 33 -34v-74c0 -10 -2 -22 -11 -35l-207 -283c-2 -3 -3 -5 -3 -7s3 -4 7 -4h198
c10 0 18 -6 18 -16v-100zM446 772c0 -2 -1 -5 -4 -8l-122 -122c-8 -8 -11 -12 -24 -12h-107c-6 0 -9 3 -9 7c0 3 1 6 4 10l93 117c9 11 13 15 27 15h131c7 0 11 -3 11 -7z" />
    <glyph glyph-name="zdotaccent" unicode="&#x17c;" horiz-adv-x="515" 
d="M472 20c0 -11 -9 -20 -20 -20h-375c-18 0 -34 15 -34 33v64c0 14 4 24 14 38l217 296c2 3 3 5 3 7c0 3 -3 5 -7 5h-201c-10 0 -17 6 -17 16v94c0 11 9 20 20 20h365c18 0 33 -16 33 -34v-74c0 -10 -2 -22 -11 -35l-207 -283c-2 -3 -3 -5 -3 -7s3 -4 7 -4h198
c10 0 18 -6 18 -16v-100zM342 658c0 -11 -9 -20 -20 -20h-130c-11 0 -20 9 -20 20v93c0 11 9 20 20 20h130c11 0 20 -9 20 -20v-93z" />
    <glyph glyph-name="kgreenlandic" unicode="&#x138;" horiz-adv-x="588" 
d="M543 573c15 0 18 -11 11 -21l-186 -253l185 -278c7 -10 1 -21 -11 -21h-151c-11 0 -17 2 -25 14l-144 235v-228c0 -11 -9 -21 -20 -21h-121c-11 0 -21 10 -21 21v532c0 11 10 20 21 20h121c11 0 20 -9 20 -20v-224l152 229c8 12 18 15 26 15h143z" />
    <glyph glyph-name="napostrophe" unicode="&#x149;" horiz-adv-x="805" 
d="M230 756c0 -2 -1 -5 -2 -8l-75 -219c-5 -13 -9 -19 -19 -19h-101c-7 0 -9 4 -9 10c0 2 0 6 1 9l54 219c3 14 10 19 20 19h119c7 0 12 -4 12 -11zM745 21c0 -11 -10 -21 -21 -21h-121c-11 0 -20 10 -20 21v333c0 70 -13 93 -74 93c-29 0 -60 -14 -94 -32v-394
c0 -11 -9 -21 -20 -21h-121c-11 0 -21 10 -21 21v532c0 11 9 20 20 20h112c11 0 20 -9 20 -20v-24c55 39 99 52 163 52c145 0 177 -101 177 -227v-333z" />
    <glyph glyph-name="Delta" unicode="&#x2206;" horiz-adv-x="669" 
d="M650 16c0 -10 -7 -16 -17 -16h-597c-10 0 -17 6 -17 16c0 1 1 3 1 5l149 620c23 96 97 111 166 111s142 -15 165 -111l149 -620c0 -2 1 -4 1 -5zM447 137l-99 458c-2 10 -4 15 -13 15s-12 -5 -14 -15l-99 -458h225z" />
    <glyph glyph-name="Omega" unicode="&#x2126;" horiz-adv-x="716" 
d="M358 755c185 0 308 -84 308 -294v-12c0 -114 -18 -219 -162 -267v-27h111c13 0 23 -4 23 -20v-114c0 -16 -10 -21 -23 -21h-191c-13 0 -21 8 -21 21v213c0 18 3 21 14 25c63 22 75 74 75 190v12c0 70 -23 141 -134 141s-134 -71 -134 -141v-12c0 -116 12 -168 75 -190
c11 -4 14 -7 14 -25v-213c0 -13 -8 -21 -21 -21h-191c-13 0 -23 5 -23 21v114c0 16 10 20 23 20h111v27c-144 48 -162 153 -162 267v12c0 210 123 294 308 294z" />
    <glyph glyph-name="uni03BC" unicode="&#x3bc;" horiz-adv-x="612" 
d="M552 49c0 -14 -7 -23 -31 -31c-45 -15 -118 -27 -211 -27c-33 0 -63 3 -89 9v-171c0 -11 -9 -20 -20 -20h-122c-11 0 -20 9 -20 20v722c0 11 10 22 21 22h121c11 0 21 -11 21 -22v-332c0 -69 26 -95 88 -95c32 0 60 2 80 7v420c0 11 9 22 20 22h121c11 0 21 -11 21 -22
v-502z" />
    <glyph glyph-name="pi" unicode="&#x3c0;" horiz-adv-x="672" 
d="M636 454h-69v-320c0 -25 8 -25 50 -25h24c7 0 10 -3 10 -11v-93c0 -11 -4 -11 -11 -13c-10 -2 -69 -4 -85 -4c-90 0 -120 39 -120 146v320h-198v-434c0 -9 -1 -20 -14 -20h-103c-12 0 -15 8 -15 20v434h-69c-11 0 -15 2 -15 15v79c0 13 4 16 15 16h600c11 0 15 -3 15 -16
v-79c0 -13 -4 -15 -15 -15z" />
    <glyph glyph-name="afii10017" unicode="&#x410;" horiz-adv-x="669" 
d="M650 16c0 -10 -7 -16 -17 -16h-140c-10 0 -18 8 -20 18l-36 164h-205l-36 -164c-2 -10 -10 -18 -20 -18h-140c-10 0 -17 6 -17 16c0 1 1 3 1 5l149 620c23 96 97 111 166 111s142 -15 165 -111l149 -620c0 -2 1 -4 1 -5zM409 319l-61 276c-2 10 -4 15 -13 15
s-12 -5 -14 -15l-61 -276h149z" />
    <glyph glyph-name="afii10018" unicode="&#x411;" horiz-adv-x="669" 
d="M70 68v655c0 11 9 20 20 20h418c11 0 21 -8 21 -19v-103c0 -11 -10 -19 -21 -19h-268v-146c23 1 46 2 68 2c173 0 315 -43 315 -228v-7c0 -185 -142 -232 -315 -232c-66 0 -144 5 -183 12c-40 7 -55 20 -55 65zM299 131c129 0 158 27 158 92v7c0 65 -29 88 -158 88
c-42 0 -44 -1 -59 -1v-185c16 0 16 -1 59 -1z" />
    <glyph glyph-name="afii10019" unicode="&#x412;" horiz-adv-x="669" 
d="M623 215c0 -176 -142 -224 -315 -224c-66 0 -144 5 -183 12c-40 7 -55 20 -55 65v608c0 45 14 59 53 65c34 5 115 11 179 11c189 0 316 -50 316 -209v-18c0 -65 -31 -121 -84 -147c53 -26 89 -79 89 -148v-15zM453 517v15c0 55 -35 80 -138 80c-16 0 -62 0 -76 -1v-173
h112c79 0 102 36 102 79zM457 219v11c0 48 -26 89 -106 89h-112v-187c16 0 68 -1 82 -1c103 0 136 32 136 88z" />
    <glyph glyph-name="afii10020" unicode="&#x413;" horiz-adv-x="581" 
d="M237 537v-517c0 -11 -9 -20 -20 -20h-130c-11 0 -20 9 -20 20v517c0 182 115 214 244 214c108 0 158 -8 193 -13c14 -2 20 -7 20 -20v-93c0 -11 -9 -20 -20 -20h-203c-47 0 -64 -16 -64 -68z" />
    <glyph glyph-name="afii10050" unicode="&#x490;" horiz-adv-x="581" 
d="M237 537v-517c0 -11 -9 -20 -20 -20h-130c-11 0 -20 9 -20 20v517c0 182 115 214 244 214c27 0 50 -1 71 -2v55c0 16 10 21 21 21h101c11 0 20 -5 20 -21v-179c0 -11 -9 -20 -20 -20h-203c-47 0 -64 -16 -64 -68z" />
    <glyph glyph-name="afii10021" unicode="&#x414;" horiz-adv-x="782" 
d="M25 -101v231c0 11 9 20 20 20h61l118 491c23 96 97 111 166 111s142 -15 165 -111l118 -491h64c11 0 20 -9 20 -20v-231c0 -11 -9 -20 -20 -20h-131c-11 0 -20 9 -20 20v101h-390v-101c0 -11 -9 -20 -20 -20h-131c-11 0 -20 9 -20 20zM376 595l-97 -445h220l-96 445
c-2 10 -4 15 -13 15s-12 -5 -14 -15z" />
    <glyph glyph-name="afii10022" unicode="&#x415;" horiz-adv-x="580" 
d="M524 25c0 -13 -6 -19 -20 -21c-35 -5 -86 -13 -194 -13c-129 0 -243 33 -243 215v332c0 182 115 214 244 214c108 0 158 -8 193 -13c14 -2 20 -7 20 -20v-93c0 -11 -9 -20 -20 -20h-203c-47 0 -64 -16 -64 -68v-91h259c11 0 20 -9 20 -20v-95c0 -11 -9 -20 -20 -20h-259
v-106c0 -52 17 -68 64 -68h203c11 0 20 -9 20 -20v-93z" />
    <glyph glyph-name="afii10024" unicode="&#x416;" horiz-adv-x="1045" 
d="M437 406v318c0 11 9 19 20 19h131c11 0 20 -8 20 -19v-318l220 325c5 8 11 12 22 12h153c11 0 16 -5 16 -11c0 -4 -2 -9 -5 -14l-238 -338l239 -359c3 -4 4 -8 4 -11c0 -6 -5 -10 -14 -10h-172c-12 0 -17 6 -22 14l-203 330v-324c0 -11 -9 -20 -20 -20h-131
c-11 0 -20 9 -20 20v324l-203 -330c-5 -8 -10 -14 -22 -14h-172c-9 0 -14 4 -14 10c0 3 1 7 4 11l239 359l-238 338c-3 5 -5 10 -5 14c0 6 5 11 16 11h153c11 0 17 -4 22 -12z" />
    <glyph glyph-name="afii10025" unicode="&#x417;" 
d="M566 212c0 -153 -106 -221 -261 -221c-78 0 -155 12 -207 28c-10 3 -19 9 -19 19v80c0 11 8 18 18 18h2c70 -6 145 -9 199 -9c71 0 99 30 99 85v18c0 45 -16 86 -81 86h-176c-11 0 -19 9 -19 20v85c0 11 8 19 19 19h172c65 0 85 43 85 87v14c0 45 -21 75 -99 75
c-70 0 -121 -5 -197 -12h-2c-10 0 -18 7 -18 18v80c0 10 10 16 20 19c52 16 126 31 204 31c163 0 261 -55 261 -205v-14c0 -58 -36 -123 -89 -153c55 -29 89 -85 89 -150v-18z" />
    <glyph glyph-name="afii10026" unicode="&#x418;" horiz-adv-x="729" 
d="M70 38v686c0 11 9 19 20 19h118c11 0 20 -8 20 -19v-423c0 -7 3 -9 5 -9c3 0 4 2 8 8l237 412c12 21 22 31 42 31h101c21 0 38 -17 38 -38v-685c0 -11 -9 -20 -20 -20h-118c-11 0 -20 9 -20 20v405c0 6 -2 8 -5 8s-5 -2 -9 -8l-228 -394c-16 -27 -31 -31 -52 -31h-98
c-21 0 -39 17 -39 38z" />
    <glyph glyph-name="afii10027" unicode="&#x419;" horiz-adv-x="729" 
d="M362 794c-108 0 -173 64 -185 145c-1 7 -1 11 9 11h87c8 0 11 -4 13 -12c11 -42 39 -57 76 -57s65 15 76 57c2 8 5 12 13 12h87c10 0 10 -4 9 -11c-12 -81 -77 -145 -185 -145zM70 38v686c0 11 9 19 20 19h118c11 0 20 -8 20 -19v-423c0 -7 3 -9 5 -9c3 0 4 2 8 8
l237 412c12 21 22 31 42 31h101c21 0 38 -17 38 -38v-685c0 -11 -9 -20 -20 -20h-118c-11 0 -20 9 -20 20v405c0 6 -2 8 -5 8s-5 -2 -9 -8l-228 -394c-16 -27 -31 -31 -52 -31h-98c-21 0 -39 17 -39 38z" />
    <glyph glyph-name="afii10028" unicode="&#x41a;" horiz-adv-x="678" 
d="M652 732c0 -4 -2 -9 -5 -14l-238 -338l239 -359c3 -4 4 -8 4 -11c0 -6 -5 -10 -14 -10h-172c-12 0 -17 6 -22 14l-203 330v-324c0 -11 -9 -20 -20 -20h-131c-11 0 -20 9 -20 20v704c0 11 9 19 20 19h131c11 0 20 -8 20 -19v-318l220 325c5 8 11 12 22 12h153
c11 0 16 -5 16 -11z" />
    <glyph glyph-name="afii10029" unicode="&#x41b;" horiz-adv-x="669" 
d="M473 18l-125 577c-2 10 -4 15 -13 15s-12 -5 -14 -15l-125 -577c-2 -10 -10 -18 -20 -18h-140c-10 0 -17 6 -17 16c0 1 1 3 1 5l149 620c23 96 97 111 166 111s142 -15 165 -111l149 -620c0 -2 1 -4 1 -5c0 -10 -7 -16 -17 -16h-140c-10 0 -18 8 -20 18z" />
    <glyph glyph-name="afii10030" unicode="&#x41c;" horiz-adv-x="816" 
d="M746 14c0 -11 -9 -14 -17 -14h-132c-9 0 -16 9 -16 20v417c0 7 -3 8 -5 8c-3 0 -5 -2 -8 -7l-90 -165c-7 -12 -17 -17 -30 -17h-80c-13 0 -23 5 -30 17l-90 165c-3 5 -5 7 -8 7c-2 0 -5 -1 -5 -8v-417c0 -11 -7 -20 -16 -20h-132c-8 0 -17 3 -17 14v695c0 21 15 34 36 34
h94c21 0 35 -10 44 -27l153 -285c4 -8 7 -13 11 -13s7 5 11 13l153 285c9 17 23 27 44 27h94c21 0 36 -14 36 -35v-694z" />
    <glyph glyph-name="afii10031" unicode="&#x41d;" horiz-adv-x="729" 
d="M659 20c0 -11 -9 -20 -20 -20h-131c-11 0 -20 9 -20 20v289h-247v-289c0 -11 -9 -20 -20 -20h-131c-11 0 -20 9 -20 20v704c0 11 9 19 20 19h131c11 0 20 -8 20 -19v-266h247v266c0 11 9 19 20 19h131c11 0 20 -8 20 -19v-704z" />
    <glyph glyph-name="afii10032" unicode="&#x41e;" horiz-adv-x="698" 
d="M645 312c0 -232 -131 -321 -296 -321s-296 89 -296 321v119c0 232 131 321 296 321s296 -89 296 -321v-119zM473 312v119c0 120 -40 171 -124 171s-123 -51 -123 -171v-119c0 -120 39 -171 123 -171s124 51 124 171z" />
    <glyph glyph-name="afii10033" unicode="&#x41f;" horiz-adv-x="729" 
d="M280 743h169c174 0 210 -87 210 -200v-523c0 -11 -9 -20 -20 -20h-131c-11 0 -20 9 -20 20v523c0 30 0 51 -44 51h-159c-44 0 -44 -21 -44 -51v-523c0 -11 -9 -20 -20 -20h-131c-11 0 -20 9 -20 20v523c0 113 36 200 210 200z" />
    <glyph glyph-name="afii10034" unicode="&#x420;" horiz-adv-x="651" 
d="M618 502c0 -187 -149 -242 -298 -242c-24 0 -56 2 -81 3v-243c0 -11 -9 -20 -20 -20h-129c-11 0 -20 8 -20 19v672c0 34 14 43 45 48c51 8 131 13 203 13c151 0 300 -53 300 -241v-9zM448 502v9c0 71 -44 99 -128 99c-14 0 -69 -2 -81 -3v-204c11 -1 70 -2 81 -2
c89 0 128 33 128 101z" />
    <glyph glyph-name="afii10035" unicode="&#x421;" horiz-adv-x="561" 
d="M520 31c0 -14 -8 -19 -22 -23c-21 -7 -79 -17 -149 -17c-152 0 -296 80 -296 318v126c0 238 144 317 296 317c70 0 128 -10 149 -17c14 -4 22 -8 22 -22v-97c0 -12 -6 -20 -19 -20h-3c-38 3 -93 8 -148 8c-69 0 -124 -36 -124 -169v-126c0 -133 55 -169 124 -169
c55 0 110 5 148 8h3c13 0 19 -8 19 -20v-97z" />
    <glyph glyph-name="afii10036" unicode="&#x422;" horiz-adv-x="587" 
d="M562 621c0 -11 -10 -19 -21 -19h-162v-582c0 -11 -9 -20 -20 -20h-131c-11 0 -20 9 -20 20v582h-163c-11 0 -20 8 -20 19v103c0 11 9 19 20 19h496c11 0 21 -8 21 -19v-103z" />
    <glyph glyph-name="afii10037" unicode="&#x423;" horiz-adv-x="589" 
d="M569 725c0 -2 -1 -3 -1 -5l-168 -565c-31 -108 -72 -163 -219 -163c-37 0 -96 8 -121 16c-11 4 -21 7 -21 18v81c0 11 9 19 20 19h2c33 -2 92 -8 125 -8c36 0 54 12 66 52l9 31h-15c-37 0 -66 7 -93 93l-132 426c-1 3 -1 5 -1 7c0 10 6 16 20 16h133c10 0 17 -9 19 -19
l90 -352c4 -14 6 -19 16 -19h5l93 371c2 10 10 19 21 19h133c10 0 19 -8 19 -18z" />
    <glyph glyph-name="afii10038" unicode="&#x424;" horiz-adv-x="993" 
d="M790 393v9c0 71 -44 99 -128 99c-14 0 -69 -2 -81 -3v-204c11 -1 70 -2 81 -2c89 0 128 33 128 101zM412 19v135c-25 -1 -57 -3 -81 -3c-149 0 -298 55 -298 242v9c0 188 149 241 300 241c26 0 53 -1 79 -2v92c0 11 9 19 20 19h129c11 0 20 -9 20 -20v-91c26 1 53 2 79 2
c151 0 300 -53 300 -241v-9c0 -187 -149 -242 -298 -242c-24 0 -56 2 -81 3v-134c0 -11 -9 -20 -20 -20h-129c-11 0 -20 8 -20 19zM412 294v204c-12 1 -67 3 -81 3c-84 0 -128 -28 -128 -99v-9c0 -68 39 -101 128 -101c11 0 70 1 81 2z" />
    <glyph glyph-name="afii10039" unicode="&#x425;" horiz-adv-x="703" 
d="M671 10c0 -6 -5 -10 -13 -10h-159c-13 0 -19 4 -26 15l-130 211l-117 -206c-7 -12 -14 -20 -25 -20h-148c-10 0 -15 6 -15 13c0 2 1 5 2 7l209 361l-211 343c-1 2 -2 4 -2 6c0 7 7 13 15 13h161c11 0 19 -10 25 -19l124 -202l112 202c5 9 14 19 25 19h148
c8 0 15 -6 15 -13c0 -2 -1 -4 -2 -6l-206 -353l215 -351c2 -4 3 -7 3 -10z" />
    <glyph glyph-name="afii10040" unicode="&#x426;" horiz-adv-x="767" 
d="M571 -102v102h-291c-174 0 -210 88 -210 201v522c0 11 9 20 20 20h131c11 0 20 -9 20 -20v-522c0 -30 0 -51 44 -51h159c44 0 44 21 44 51v522c0 11 9 20 20 20h131c11 0 20 -9 20 -20v-522c0 -18 -2 -35 -4 -51h67c11 0 20 -9 20 -20v-232c0 -11 -9 -20 -20 -20h-131
c-11 0 -20 9 -20 20z" />
    <glyph glyph-name="afii10041" unicode="&#x427;" horiz-adv-x="686" 
d="M445 20v257c-39 -23 -105 -45 -175 -45c-153 0 -200 101 -200 227v263c0 11 10 21 21 21h130c11 0 20 -10 20 -21v-263c0 -70 33 -86 86 -86c37 0 84 14 118 32v318c0 11 9 20 20 20h131c11 0 20 -9 20 -20v-703c0 -11 -9 -20 -20 -20h-131c-11 0 -20 9 -20 20z" />
    <glyph glyph-name="afii10042" unicode="&#x428;" horiz-adv-x="987" 
d="M579 724v-574h123c44 0 44 21 44 51v523c0 11 9 20 20 20h131c11 0 20 -9 20 -20v-524c0 -113 -36 -200 -210 -200h-427c-174 0 -210 87 -210 200v524c0 11 9 20 20 20h131c11 0 20 -9 20 -20v-523c0 -30 0 -51 44 -51h123v574c0 11 9 20 20 20h131c11 0 20 -9 20 -20z
" />
    <glyph glyph-name="afii10043" unicode="&#x429;" horiz-adv-x="1030" 
d="M834 -101v101h-554c-174 0 -210 87 -210 200v524c0 11 9 20 20 20h131c11 0 20 -9 20 -20v-523c0 -30 0 -51 44 -51h123v574c0 11 9 20 20 20h131c11 0 20 -9 20 -20v-574h123c44 0 44 21 44 51v523c0 11 9 20 20 20h131c11 0 20 -9 20 -20v-524c0 -18 -1 -34 -3 -50h71
c11 0 20 -9 20 -20v-231c0 -11 -9 -20 -20 -20h-131c-11 0 -20 9 -20 20z" />
    <glyph glyph-name="afii10044" unicode="&#x42a;" horiz-adv-x="708" 
d="M109 602h-89c-11 0 -20 8 -20 19v103c0 11 9 19 20 19h239c11 0 20 -9 20 -20v-267c23 1 46 2 68 2c173 0 315 -43 315 -228v-7c0 -185 -142 -232 -315 -232c-66 0 -144 5 -183 12c-40 7 -55 20 -55 65v534zM338 131c129 0 158 27 158 92v7c0 65 -29 88 -158 88
c-42 0 -44 -1 -59 -1v-185c16 0 16 -1 59 -1z" />
    <glyph glyph-name="afii10045" unicode="&#x42b;" horiz-adv-x="936" 
d="M70 68v655c0 11 9 20 20 20h130c11 0 20 -9 20 -20v-267c23 1 46 2 68 2c173 0 315 -43 315 -228v-7c0 -185 -142 -232 -315 -232c-66 0 -144 5 -183 12c-40 7 -55 20 -55 65zM299 131c129 0 158 27 158 92v7c0 65 -29 88 -158 88c-42 0 -44 -1 -59 -1v-185
c16 0 16 -1 59 -1zM866 20c0 -11 -8 -20 -19 -20h-134c-11 0 -18 9 -18 20v704c0 11 7 19 18 19h134c11 0 19 -8 19 -19v-704z" />
    <glyph glyph-name="afii10046" unicode="&#x42c;" horiz-adv-x="669" 
d="M70 68v655c0 11 9 20 20 20h130c11 0 20 -9 20 -20v-267c23 1 46 2 68 2c173 0 315 -43 315 -228v-7c0 -185 -142 -232 -315 -232c-66 0 -144 5 -183 12c-40 7 -55 20 -55 65zM299 131c129 0 158 27 158 92v7c0 65 -29 88 -158 88c-42 0 -44 -1 -59 -1v-185
c16 0 16 -1 59 -1z" />
    <glyph glyph-name="afii10047" unicode="&#x42d;" horiz-adv-x="635" 
d="M70 31v97c0 14 6 22 22 20c41 -4 88 -8 149 -8c118 0 161 40 167 172h-269c-11 0 -20 9 -20 20v95c0 11 9 20 20 20h267c-10 116 -61 157 -165 157c-64 0 -111 -5 -149 -8c-16 -2 -22 7 -22 20v97c0 14 8 18 22 22c21 7 79 17 149 17c218 0 341 -101 341 -357v-46
c0 -262 -123 -358 -341 -358c-69 0 -128 10 -149 17c-14 4 -22 9 -22 23z" />
    <glyph glyph-name="afii10048" unicode="&#x42e;" horiz-adv-x="996" 
d="M241 20c0 -11 -8 -20 -19 -20h-134c-11 0 -18 9 -18 20v704c0 11 7 19 18 19h134c11 0 19 -8 19 -19v-266h110c10 212 137 294 296 294c165 0 296 -89 296 -321v-119c0 -232 -131 -321 -296 -321s-295 88 -296 318h-110v-289zM771 312v119c0 120 -40 171 -124 171
s-123 -51 -123 -171v-119c0 -120 39 -171 123 -171s124 51 124 171z" />
    <glyph glyph-name="afii10049" unicode="&#x42f;" horiz-adv-x="680" 
d="M36 12c0 3 1 7 3 11l151 282c-73 29 -129 94 -129 200v13c0 177 131 234 301 234c72 0 157 -6 203 -13c31 -5 45 -14 45 -48v-671c0 -11 -9 -20 -20 -20h-130c-11 0 -20 9 -20 20v254c-19 0 -50 -2 -71 -2l-11 1l-134 -253c-5 -10 -9 -20 -20 -20h-153
c-11 0 -15 5 -15 12zM231 518v-13c0 -68 33 -95 138 -95c11 0 60 1 71 2v192c-12 1 -64 3 -78 3c-84 0 -131 -28 -131 -89z" />
    <glyph glyph-name="afii10023" unicode="&#x401;" horiz-adv-x="580" 
d="M524 25c0 -13 -6 -19 -20 -21c-35 -5 -86 -13 -194 -13c-129 0 -243 33 -243 215v332c0 182 115 214 244 214c108 0 158 -8 193 -13c14 -2 20 -7 20 -20v-93c0 -11 -9 -20 -20 -20h-203c-47 0 -64 -16 -64 -68v-91h259c11 0 20 -9 20 -20v-95c0 -11 -9 -20 -20 -20h-259
v-106c0 -52 17 -68 64 -68h203c11 0 20 -9 20 -20v-93zM470 821c0 -11 -11 -20 -22 -20h-94c-11 0 -21 9 -21 20v93c0 11 10 20 21 20h94c11 0 22 -9 22 -20v-93zM253 821c0 -11 -10 -20 -21 -20h-94c-11 0 -22 9 -22 20v93c0 11 11 20 22 20h94c11 0 21 -9 21 -20v-93z" />
    <glyph glyph-name="afii10051" unicode="&#x402;" horiz-adv-x="824" 
d="M754 160c0 -136 -78 -173 -179 -173c-23 0 -37 1 -64 4c-9 1 -15 8 -15 17v102c0 7 4 14 11 14h50c23 0 26 11 26 36v124c0 70 -33 86 -86 86c-37 0 -84 -14 -118 -32v-318c0 -11 -9 -20 -20 -20h-131c-11 0 -20 9 -20 20v582h-163c-11 0 -20 8 -20 19v103
c0 11 9 19 20 19h496c11 0 21 -8 21 -19v-103c0 -11 -10 -19 -21 -19h-162v-136c39 23 105 45 175 45c153 0 200 -101 200 -227v-124z" />
    <glyph glyph-name="afii10052" unicode="&#x403;" horiz-adv-x="581" 
d="M237 537v-517c0 -11 -9 -20 -20 -20h-130c-11 0 -20 9 -20 20v517c0 182 115 214 244 214c108 0 158 -8 193 -13c14 -2 20 -7 20 -20v-93c0 -11 -9 -20 -20 -20h-203c-47 0 -64 -16 -64 -68zM497 936c0 -2 -1 -5 -4 -8l-122 -122c-8 -8 -11 -12 -24 -12h-107
c-6 0 -9 3 -9 7c0 3 1 6 4 10l93 117c9 11 13 15 27 15h131c7 0 11 -3 11 -7z" />
    <glyph glyph-name="afii10053" unicode="&#x404;" horiz-adv-x="635" 
d="M565 31c0 -14 -8 -19 -22 -23c-21 -7 -80 -17 -149 -17c-218 0 -341 96 -341 358v46c0 256 123 357 341 357c70 0 128 -10 149 -17c14 -4 22 -8 22 -22v-97c0 -13 -6 -22 -22 -20c-38 3 -85 8 -149 8c-105 0 -155 -41 -166 -157h268c11 0 20 -9 20 -20v-95
c0 -11 -9 -20 -20 -20h-270c6 -132 49 -172 168 -172c61 0 108 4 149 8c16 2 22 -6 22 -20v-97z" />
    <glyph glyph-name="afii10054" unicode="&#x405;" horiz-adv-x="588" 
d="M546 210c0 -106 -70 -219 -273 -219c-79 0 -138 9 -189 22c-10 3 -20 9 -20 20v98c0 14 8 19 18 19h3c41 -4 151 -12 190 -12c69 0 89 22 89 70c0 29 -14 45 -66 76l-138 82c-93 55 -118 118 -118 191c0 110 62 195 256 195c73 0 174 -12 212 -22c8 -2 15 -7 15 -18v-101
c0 -9 -4 -17 -17 -17h-2c-28 2 -144 11 -212 11c-57 0 -78 -17 -78 -53c0 -28 13 -41 67 -70l128 -69c104 -56 135 -122 135 -203z" />
    <glyph glyph-name="afii10055" unicode="&#x406;" horiz-adv-x="311" 
d="M241 20c0 -11 -8 -20 -19 -20h-134c-11 0 -18 9 -18 20v704c0 11 7 19 18 19h134c11 0 19 -8 19 -19v-704z" />
    <glyph glyph-name="afii10056" unicode="&#x407;" horiz-adv-x="311" 
d="M241 20c0 -11 -8 -20 -19 -20h-134c-11 0 -18 9 -18 20v704c0 11 7 19 18 19h134c11 0 19 -8 19 -19v-704zM332 821c0 -11 -11 -20 -22 -20h-94c-11 0 -21 9 -21 20v93c0 11 10 20 21 20h94c11 0 22 -9 22 -20v-93zM115 821c0 -11 -10 -20 -21 -20h-94
c-11 0 -22 9 -22 20v93c0 11 11 20 22 20h94c11 0 21 -9 21 -20v-93z" />
    <glyph glyph-name="afii10057" unicode="&#x408;" horiz-adv-x="311" 
d="M241 -6c0 -136 -78 -173 -179 -173c-23 0 -37 1 -64 4c-9 1 -15 8 -15 17v102c0 7 4 14 11 14h50c23 0 26 11 26 36v730c0 11 9 19 20 19h131c11 0 20 -8 20 -19v-730z" />
    <glyph glyph-name="afii10058" unicode="&#x409;" horiz-adv-x="1038" 
d="M318 586l-122 -568c-2 -10 -10 -18 -20 -18h-140c-10 0 -17 6 -17 16c0 1 1 3 1 5l146 611c23 96 97 111 166 111h253c11 0 20 -9 20 -20v-267c23 1 46 2 68 2c173 0 315 -43 315 -228v-7c0 -185 -142 -232 -315 -232c-66 0 -144 5 -183 12c-40 7 -55 20 -55 65v533h-103
c-9 0 -12 -5 -14 -15zM664 131c129 0 158 27 158 92v7c0 65 -29 88 -158 88c-42 0 -44 -1 -59 -1v-185c16 0 16 -1 59 -1z" />
    <glyph glyph-name="afii10059" unicode="&#x40a;" horiz-adv-x="1091" 
d="M717 131c129 0 158 27 158 92v7c0 65 -29 88 -158 88c-42 0 -44 -1 -59 -1v-185c16 0 16 -1 59 -1zM488 68v241h-247v-289c0 -11 -9 -20 -20 -20h-131c-11 0 -20 9 -20 20v704c0 11 9 19 20 19h131c11 0 20 -8 20 -19v-266h247v266c0 11 9 19 20 19h130
c11 0 20 -8 20 -19v-268c23 1 46 2 68 2c173 0 315 -43 315 -228v-7c0 -185 -142 -232 -315 -232c-66 0 -144 5 -183 12c-40 7 -55 20 -55 65z" />
    <glyph glyph-name="afii10060" unicode="&#x40b;" horiz-adv-x="824" 
d="M562 621c0 -11 -10 -19 -21 -19h-162v-136c39 23 105 45 175 45c153 0 200 -101 200 -227v-263c0 -11 -10 -21 -21 -21h-130c-11 0 -20 10 -20 21v263c0 70 -33 86 -86 86c-37 0 -84 -14 -118 -32v-318c0 -11 -9 -20 -20 -20h-131c-11 0 -20 9 -20 20v582h-163
c-11 0 -20 8 -20 19v103c0 11 9 19 20 19h496c11 0 21 -8 21 -19v-103z" />
    <glyph glyph-name="afii10061" unicode="&#x40c;" horiz-adv-x="678" 
d="M652 732c0 -4 -2 -9 -5 -14l-238 -338l239 -359c3 -4 4 -8 4 -11c0 -6 -5 -10 -14 -10h-172c-12 0 -17 6 -22 14l-203 330v-324c0 -11 -9 -20 -20 -20h-131c-11 0 -20 9 -20 20v704c0 11 9 19 20 19h131c11 0 20 -8 20 -19v-318l220 325c5 8 11 12 22 12h153
c11 0 16 -5 16 -11zM534 936c0 -2 -1 -5 -4 -8l-122 -122c-8 -8 -11 -12 -24 -12h-107c-6 0 -9 3 -9 7c0 3 1 6 4 10l93 117c9 11 13 15 27 15h131c7 0 11 -3 11 -7z" />
    <glyph glyph-name="afii10062" unicode="&#x40e;" horiz-adv-x="589" 
d="M569 725c0 -2 -1 -3 -1 -5l-168 -565c-31 -108 -72 -163 -219 -163c-37 0 -96 8 -121 16c-11 4 -21 7 -21 18v81c0 11 9 19 20 19h2c33 -2 92 -8 125 -8c36 0 54 12 66 52l9 31h-15c-37 0 -66 7 -93 93l-132 426c-1 3 -1 5 -1 7c0 10 6 16 20 16h133c10 0 17 -9 19 -19
l90 -352c4 -14 6 -19 16 -19h5l93 371c2 10 10 19 21 19h133c10 0 19 -8 19 -18zM476 940c0 -1 -1 -2 -1 -4c-19 -80 -77 -145 -185 -145s-166 65 -185 145c0 2 -1 3 -1 4c0 5 4 7 10 7h87c8 0 11 -4 13 -12c11 -42 39 -57 76 -57s65 15 76 57c2 8 3 12 13 12h87
c6 0 10 -2 10 -7z" />
    <glyph glyph-name="afii10145" unicode="&#x40f;" horiz-adv-x="729" 
d="M70 201v523c0 11 9 20 20 20h131c11 0 20 -9 20 -20v-523c0 -30 0 -51 44 -51h159c44 0 44 21 44 51v523c0 11 9 20 20 20h131c11 0 20 -9 20 -20v-523c0 -113 -36 -200 -209 -200v-102c0 -11 -9 -20 -20 -20h-131c-11 0 -20 9 -20 20v102c-173 0 -209 87 -209 200z" />
    <glyph glyph-name="afii10065" unicode="&#x430;" horiz-adv-x="562" 
d="M502 20c0 -11 -9 -20 -20 -20h-112c-11 0 -20 9 -20 20v16c-39 -28 -79 -45 -139 -45c-87 0 -171 42 -171 172v9c0 117 75 169 246 169h54v36c0 57 -28 69 -75 69c-64 0 -135 -4 -166 -7h-5c-10 0 -18 5 -18 18v81c0 11 7 19 19 22c37 9 107 21 173 21
c144 0 234 -58 234 -204v-357zM343 135v110h-57c-70 0 -88 -24 -88 -73v-9c0 -42 21 -50 63 -50c30 0 58 10 82 22z" />
    <glyph glyph-name="afii10066" unicode="&#x431;" horiz-adv-x="589" 
d="M306 563c-33 -7 -64 -14 -83 -30c27 9 58 11 72 11c162 0 250 -101 250 -260v-33c0 -159 -88 -260 -250 -260s-251 101 -251 260v33c0 189 0 350 206 394l51 11c67 14 80 27 84 50c1 9 6 13 15 13h120c7 0 13 -3 12 -13c-6 -84 -44 -138 -159 -162zM384 251v33
c0 89 -31 122 -89 122s-90 -33 -90 -122v-33c0 -88 32 -123 90 -123s89 35 89 123z" />
    <glyph glyph-name="afii10067" unicode="&#x432;" horiz-adv-x="571" 
d="M527 172c0 -140 -119 -179 -264 -179c-54 0 -118 4 -177 14c-23 4 -26 15 -26 41v493c0 22 14 29 33 31c47 7 114 12 176 12c148 0 254 -35 254 -171v-10c0 -51 -20 -86 -65 -110c45 -15 69 -56 69 -114v-7zM370 175v8c0 35 -17 59 -73 59h-78v-124c7 0 16 -1 54 -1
c74 0 97 21 97 58zM367 400v8c0 39 -25 53 -99 53c-13 0 -38 0 -49 -1v-114h78c55 0 70 23 70 54z" />
    <glyph glyph-name="afii10068" unicode="&#x433;" horiz-adv-x="422" 
d="M386 438h-120c-44 0 -44 -21 -44 -51v-367c0 -11 -9 -20 -20 -20h-122c-11 0 -20 9 -20 20v367c0 99 36 186 205 186h121c15 0 21 -10 21 -21v-94c0 -11 -6 -20 -21 -20z" />
    <glyph glyph-name="afii10098" unicode="&#x491;" horiz-adv-x="422" 
d="M407 621v-163c0 -11 -6 -20 -21 -20h-120c-44 0 -44 -21 -44 -51v-367c0 -11 -9 -20 -20 -20h-122c-11 0 -20 9 -20 20v367c0 99 36 186 196 186h9v48c0 16 10 21 21 21h101c11 0 20 -5 20 -21z" />
    <glyph glyph-name="afii10069" unicode="&#x434;" horiz-adv-x="656" 
d="M481 -101v101h-306v-101c0 -11 -9 -20 -20 -20h-115c-11 0 -20 9 -20 20v217c0 11 9 20 20 20h51l92 356c19 76 87 92 145 92c60 0 123 -13 144 -92l93 -356h51c11 0 20 -9 20 -20v-217c0 -11 -9 -20 -20 -20h-115c-11 0 -20 9 -20 20zM323 438l-69 -302h147l-70 302
c-1 4 -2 6 -4 6s-3 -2 -4 -6z" />
    <glyph glyph-name="afii10070" unicode="&#x435;" horiz-adv-x="590" 
d="M545 260c0 -15 -8 -24 -21 -24h-319v-2c0 -57 24 -109 103 -109c63 0 152 5 192 9h3c11 0 19 -5 19 -16v-76c0 -16 -4 -23 -21 -27c-64 -16 -118 -24 -205 -24c-121 0 -251 64 -251 257v70c0 161 94 263 253 263c164 0 247 -112 247 -263v-58zM387 336v4
c0 74 -34 111 -90 111c-55 0 -92 -38 -92 -111v-4h182z" />
    <glyph glyph-name="afii10072" unicode="&#x436;" horiz-adv-x="894" 
d="M366 329v224c0 11 10 20 21 20h121c11 0 20 -9 20 -20v-224l152 229c8 12 18 15 26 15h143c9 0 15 -5 15 -11c0 -3 -1 -6 -4 -10l-186 -253l185 -278c2 -2 2 -5 2 -8c0 -7 -5 -13 -13 -13h-151c-11 0 -17 2 -25 14l-144 235v-228c0 -11 -9 -21 -20 -21h-121
c-11 0 -21 10 -21 21v228l-144 -235c-8 -12 -14 -14 -25 -14h-151c-8 0 -13 6 -13 13c0 3 0 6 2 8l185 278l-186 253c-3 4 -4 7 -4 10c0 6 6 11 15 11h143c8 0 18 -3 26 -15z" />
    <glyph glyph-name="afii10073" unicode="&#x437;" horiz-adv-x="534" 
d="M261 236h-147c-16 0 -21 10 -21 21v74c0 11 5 20 21 20h144c56 0 57 24 57 56v5c0 31 -9 47 -71 47c-39 0 -108 -2 -164 -7c-11 -1 -20 1 -20 16v75c0 8 4 14 16 17c50 13 117 24 180 24c138 0 218 -44 218 -164v-7c0 -34 -5 -86 -66 -118c45 -21 66 -66 66 -117v-9
c0 -122 -90 -176 -222 -176c-63 0 -126 11 -176 24c-12 3 -16 9 -16 17v75c0 15 9 17 20 16c56 -5 125 -7 164 -7c60 0 71 18 71 51v9c0 35 -6 58 -54 58z" />
    <glyph glyph-name="afii10074" unicode="&#x438;" horiz-adv-x="612" 
d="M189 0h-108c-11 0 -21 5 -21 21v531c0 15 9 21 20 21h108c11 0 21 -6 21 -21v-270c0 -5 1 -7 4 -7c2 0 4 1 7 6l167 268c10 16 18 24 34 24h111c11 0 20 -9 20 -20v-532c0 -11 -10 -21 -21 -21h-108c-11 0 -20 10 -20 21v257c0 4 -2 6 -4 6c-3 0 -5 -1 -8 -6l-160 -254
c-13 -21 -25 -24 -42 -24z" />
    <glyph glyph-name="afii10075" unicode="&#x439;" horiz-adv-x="612" 
d="M391 779h87c7 0 11 -4 9 -11c-18 -79 -77 -145 -185 -145s-167 66 -185 145c-2 7 1 11 9 11h87c8 0 11 -4 13 -12c11 -42 39 -57 76 -57s65 15 76 57c2 8 3 12 13 12zM81 0h108c17 0 29 3 42 24l160 254c3 5 5 6 8 6c2 0 4 -2 4 -6v-257c0 -11 9 -21 20 -21h108
c11 0 21 10 21 21v532c0 11 -9 20 -20 20h-111c-16 0 -24 -8 -34 -24l-167 -268c-3 -5 -5 -6 -7 -6c-3 0 -4 2 -4 7v270c0 15 -10 21 -21 21h-108c-11 0 -20 -6 -20 -21v-531c0 -16 10 -21 21 -21z" />
    <glyph glyph-name="afii10076" unicode="&#x43a;" horiz-adv-x="588" 
d="M558 562c0 -3 -1 -6 -4 -10l-186 -253l185 -278c2 -2 2 -5 2 -8c0 -7 -5 -13 -13 -13h-151c-11 0 -17 2 -25 14l-144 235v-228c0 -11 -9 -21 -20 -21h-121c-11 0 -21 10 -21 21v532c0 11 10 20 21 20h121c11 0 20 -9 20 -20v-224l152 229c8 12 18 15 26 15h143
c9 0 15 -5 15 -11z" />
    <glyph glyph-name="afii10077" unicode="&#x43b;" horiz-adv-x="574" 
d="M387 22l-97 416c-2 8 -6 8 -8 0l-95 -416c-2 -12 -14 -22 -28 -22h-112c-14 0 -25 10 -25 23c0 1 1 4 1 7l119 462c19 76 87 92 145 92c60 0 123 -13 144 -92l121 -464v-5c0 -13 -11 -23 -26 -23h-112c-14 0 -25 10 -27 22z" />
    <glyph glyph-name="afii10078" unicode="&#x43c;" horiz-adv-x="741" 
d="M681 11c0 -9 -7 -11 -13 -11h-122c-7 0 -12 7 -12 15v322c0 5 -3 6 -4 6c-2 0 -4 -1 -6 -5l-70 -127c-5 -10 -13 -14 -23 -14h-121c-10 0 -18 4 -23 14l-70 127c-2 4 -4 5 -6 5s-4 -1 -4 -6v-322c0 -8 -5 -15 -12 -15h-122c-6 0 -13 2 -13 11v536c0 16 12 26 28 26h122
c16 0 27 -8 34 -21l118 -220c3 -6 5 -10 8 -10c4 0 6 4 9 10l118 220c7 13 18 21 34 21h122c16 0 28 -11 28 -27v-535z" />
    <glyph glyph-name="afii10079" unicode="&#x43d;" horiz-adv-x="616" 
d="M556 552v-531c0 -15 -9 -21 -20 -21h-119c-11 0 -21 6 -21 21v209h-175v-209c0 -15 -9 -21 -20 -21h-120c-11 0 -21 6 -21 21v531c0 16 10 21 21 21h120c11 0 20 -5 20 -21v-187h175v187c0 16 10 21 21 21h119c11 0 20 -5 20 -21z" />
    <glyph glyph-name="afii10080" unicode="&#x43e;" horiz-adv-x="589" 
d="M545 251c0 -159 -88 -260 -250 -260s-251 101 -251 260v70c0 159 89 260 251 260s250 -101 250 -260v-70zM384 251v70c0 81 -31 122 -89 122s-90 -41 -90 -122v-70c0 -81 32 -123 90 -123s89 42 89 123z" />
    <glyph glyph-name="afii10081" unicode="&#x43f;" horiz-adv-x="612" 
d="M270 573h72c174 0 210 -87 210 -200v-353c0 -11 -9 -20 -20 -20h-122c-11 0 -20 9 -20 20v367c0 30 0 51 -44 51h-80c-44 0 -44 -21 -44 -51v-367c0 -11 -9 -20 -20 -20h-122c-11 0 -20 9 -20 20v353c0 113 36 200 210 200z" />
    </font>
</defs>
</svg>
